<svg viewBox="0 0 96.8 96.8" xmlns="http://www.w3.org/2000/svg"><path d="m48.4 96.8a48.4 48.4 0 1 1 48.4-48.4 48.4 48.4 0 0 1 -48.4 48.4z" fill="#fcf2e8"/><g stroke="#845567" stroke-linecap="round" stroke-linejoin="round" stroke-width="6"><path d="m42.1 23.6h12.5v51.54h-12.5z" fill="#eebfaf" transform="matrix(.70710678 .70710678 -.70710678 .70710678 49.1 -19.8)"/><path d="m57.7 36.4-2.6-2.6" fill="#eebfaf"/><path d="m35.4 58.7-2.6-2.6" fill="#eebfaf"/><path d="m34 43.9 21.8 21.7a15.8 15.8 0 0 0 7.5 4.3 4.6 4.6 0 0 0 5.6-5.6 15.8 15.8 0 0 0 -4.3-7.5l-21.7-21.8" fill="#fcf2e8"/><path d="m29.6 30.6a6.3 6.3 0 0 0 0 8.8l4.4 4.5 8.9-8.9-4.5-4.4a6.3 6.3 0 0 0 -8.8 0z" fill="#fcf2e8"/></g></svg>