<svg viewBox="0 0 76.9 68.3" xmlns="http://www.w3.org/2000/svg"><path d="m36.7 33.4a2.3 2.3 0 0 0 3.3.1c.1 0 .1 0 .1-.1l14.6-15.2a11.2 11.2 0 0 0 -.5-15.7l-.3-.2a10.2 10.2 0 0 0 -14 1.1l-1.5 1.5-1.4-1.5a10.2 10.2 0 0 0 -14-1.1 11.2 11.2 0 0 0 -1 15.7c.1 0 .1.1.2.2zm38.7 10.4a4.3 4.3 0 0 0 -5.6 0l-12.4 9.8a8 8 0 0 1 -5.3 1.9h-15.8a2.1 2.1 0 0 1 -2.2-2.1 2.2 2.2 0 0 1 2.1-2.2h10.6a4.2 4.2 0 0 0 .9-8.4h-22.1a15.5 15.5 0 0 0 -9.9 3.5l-6.2 5h-7.4a2.2 2.2 0 0 0 -2.1 2.1v12.8a2.1 2.1 0 0 0 2.1 2.1h47.7a8.5 8.5 0 0 0 5.3-1.8l20.2-16.2a4.4 4.4 0 0 0 .7-6z" fill="#845567"/></svg>