<svg viewBox="0 0 96.8 96.8" xmlns="http://www.w3.org/2000/svg"><path d="m48.4 96.8a48.4 48.4 0 1 1 48.4-48.4 48.4 48.4 0 0 1 -48.4 48.4z" fill="#fcf2e8"/><path d="m48.4 25.9a41.2 41.2 0 0 0 -12.5 2.3c-3.3 1.3-6.5-.6-8.7-1.1s-6.3-.7-6.4.8 1.7 1.6 3.6 2.1c4.8 1.2 3.3 4.2.6 3.7s-4.5-1.2-6.8-.7-1.6 4.6 1.6 9.1c1.6 2.3 1.3 7.6 2.4 13.6a26.2 26.2 0 0 0 26.1 21.1 26.4 26.4 0 0 0 26.2-21c1.1-6 .8-11.3 2.4-13.6 3.1-4.5 5.1-8.3 1.6-9.1s-3.4 0-6.8.7-4.2-2.4.6-3.7c2-.5 3.7-.9 3.6-2.1s-3-1.6-6.4-.8-5.4 2.4-8.7 1.1a37.4 37.4 0 0 0 -12.4-2.4z" fill="#845567"/><path d="m38.7 36.9c-4.2-2.1-6.8 1.8-3.8 3.4s2.6 3-.2 3.7c-4.4 1.3-6.5 3-7.6 7.2-1.5 6.2 3.6 10.9 4.8 6.2.7-2.9.6-5.9 3.7-8.4 5.7-4.5 11.2 3.3 6.1 6.6s-6.9 6.9-3.3 9.1a12.6 12.6 0 0 1 3.7 2.7c.9 1.2 2.1 4.2 6.4 4.2v-30.6c-4.3 0-5.3-1.8-9.8-4.1z" fill="#eebfaf"/><path d="m54.8 67.4a12.6 12.6 0 0 1 3.7-2.7c3.5-2.2 1.6-6-3.3-9.1s.4-11.1 6.1-6.6c3.1 2.5 3 5.5 3.7 8.4 1.2 4.7 6.3 0 4.8-6.2-1-4.2-3.2-6-7.6-7.2-2.8-.8-1.8-2.9-.2-3.7s.3-5.5-3.8-3.4-5.6 4.1-9.7 4.1v30.7c4.2 0 5.4-3 6.3-4.3z" fill="#fcf2e7"/><path d="m48.4 55.6c-2.2 0-4.4 1.8-4.5 3.3-.2 3.2 3.1 2.7 2.8 4.7s-2.3 1-2.3 2.5 1.9 2.5 4 2.5 3.9-.8 4-2.5-2.1-1.1-2.3-2.5 3-1.4 2.8-4.7c-.1-1.5-2.3-3.3-4.5-3.3z" fill="#845567"/></svg>