<?xml version="1.0" encoding="utf-8"?>
<!-- Generator: Adobe Illustrator 25.3.1, SVG Export Plug-In . SVG Version: 6.00 Build 0)  -->
<svg version="1.1" id="Layer_1" xmlns="http://www.w3.org/2000/svg" xmlns:xlink="http://www.w3.org/1999/xlink" x="0px" y="0px"
	 viewBox="0 0 96.8 96.8" style="enable-background:new 0 0 96.8 96.8;" xml:space="preserve">
<style type="text/css">
	.st0{fill:#FCF2E8;}
	.st1{fill:#845567;}
	.st2{fill:#EEBFAF;}
	.st3{fill:#FCF2E7;}
</style>
<path class="st0" d="M48.4,96.8C21.7,96.8,0,75.1,0,48.4S21.7,0,48.4,0s48.4,21.7,48.4,48.4S75.1,96.8,48.4,96.8L48.4,96.8z"/>
<path class="st1" d="M48.4,25.9c-4.3,0.1-8.5,0.9-12.5,2.3c-3.3,1.3-6.5-0.6-8.7-1.1s-6.3-0.7-6.4,0.8s1.7,1.6,3.6,2.1
	c4.8,1.2,3.3,4.2,0.6,3.7s-4.5-1.2-6.8-0.7s-1.6,4.6,1.6,9.1c1.6,2.3,1.3,7.6,2.4,13.6C24.7,68.1,35.6,77,48.3,76.8
	c12.6,0.2,23.6-8.6,26.2-21c1.1-6,0.8-11.3,2.4-13.6c3.1-4.5,5.1-8.3,1.6-9.1s-3.4,0-6.8,0.7s-4.2-2.4,0.6-3.7
	c2-0.5,3.7-0.9,3.6-2.1s-3-1.6-6.4-0.8s-5.4,2.4-8.7,1.1C56.8,26.8,52.6,26,48.4,25.9z"/>
<path class="st2" d="M38.7,36.9c-4.2-2.1-6.8,1.8-3.8,3.4s2.6,3-0.2,3.7c-4.4,1.3-6.5,3-7.6,7.2c-1.5,6.2,3.6,10.9,4.8,6.2
	c0.7-2.9,0.6-5.9,3.7-8.4c5.7-4.5,11.2,3.3,6.1,6.6s-6.9,6.9-3.3,9.1c1.4,0.7,2.6,1.6,3.7,2.7c0.9,1.2,2.1,4.2,6.4,4.2V41
	C44.2,41,43.2,39.2,38.7,36.9z"/>
<path class="st3" d="M54.8,67.4c1.1-1.1,2.3-2,3.7-2.7c3.5-2.2,1.6-6-3.3-9.1s0.4-11.1,6.1-6.6c3.1,2.5,3,5.5,3.7,8.4
	c1.2,4.7,6.3,0,4.8-6.2c-1-4.2-3.2-6-7.6-7.2c-2.8-0.8-1.8-2.9-0.2-3.7s0.3-5.5-3.8-3.4S52.6,41,48.5,41v30.7
	C52.7,71.7,53.9,68.7,54.8,67.4z"/>
<path class="st1" d="M48.4,55.6c-2.2,0-4.4,1.8-4.5,3.3c-0.2,3.2,3.1,2.7,2.8,4.7s-2.3,1-2.3,2.5s1.9,2.5,4,2.5s3.9-0.8,4-2.5
	s-2.1-1.1-2.3-2.5s3-1.4,2.8-4.7C52.8,57.4,50.6,55.6,48.4,55.6z"/>
</svg>
