<svg viewBox="0 0 96.8 96.8" xmlns="http://www.w3.org/2000/svg"><path d="m48.4 96.8a48.4 48.4 0 1 1 48.4-48.4 48.4 48.4 0 0 1 -48.4 48.4z" fill="#fcf2e8"/><path d="m67.8 35.8a10.6 10.6 0 0 0 -14.9 0l-4.5 4.5v29.8l14.9-14.9 4.5-4.5a10.6 10.6 0 0 0 0-14.9z" fill="#fcf2e8"/><path d="m29 35.8a10.6 10.6 0 0 1 14.9 0l4.5 4.5v29.8l-14.9-14.9-4.5-4.5a10.6 10.6 0 0 1 0-14.9z" fill="#eebfaf"/><path d="m67.8 35.8a10.6 10.6 0 0 0 -14.9 0l-4.5 4.5-4.5-4.5a10.6 10.6 0 0 0 -14.9 0 10.6 10.6 0 0 0 0 14.9l4.5 4.5 14.9 14.9 14.9-14.9 4.5-4.5a10.6 10.6 0 0 0 0-14.9z" fill="none" stroke="#845567" stroke-linecap="round" stroke-linejoin="round" stroke-width="6"/></svg>