<svg viewBox="0 0 677.6 1058.9" xmlns="http://www.w3.org/2000/svg"><g fill="#eebfaf"><path d="m192.3 671.6c-2.5 11.2-4.6 26.3-18.9 47.9-3.4 5.3-3.9 11.4-1.5 17.6 7.3 18.9 15.4 41.5 8.2 77-1.5 7.6-8.4 6.8-7.4.2 6.7-46.4-7-61.7-10-66s-8.6-10.3-21.9-6.3c-16.2 4.9-51.3 6.8-58.9-16.3-6.4-19.5 15.5-43.3 20.4-48.9s5.6-1.6 5.3 4-.5 12.5.1 14.8 7.2 4 7.5-4.3c-.3 10.1-3.9 9.4-11.9 15.6s-3.6 20.3 12.4 22.8c22.1 3.4 47.5-8.1 59.5-24.5s14.9-45.8 10.1-48.4c4.7.4 9 5.2 7 14.8z"/><path d="m353.5 469.9c-37.1-7.4-90.8-30.8-85.8-45 2.2-6.2 9.8-27.5 12.1-34.1 1.4-3.9 6.9-2.3 16 2.1-3.9 8-6 17.8-7.4 24-4.9 20.8 11.4 27.3 32.3 33.5s73.6 10.5 83.4 8.4c6.7-1.4 24-5.4 32.8-7.9 45.9-13.4 110.4-8.6 127.3 32.2-3.7-7.5-10.8-14.4-22-19.4-45.2-20.1-92-2.7-101.2.8s-18.7 10-24.9 10.4c-14.1.9-25.5 2.4-62.6-5z"/><path d="m577 595.6c-18.4 25.4-66.9 36.3-124.1 0s-69-41.4-84.8-42.6-32.8 2.8-55.2 12-29.4-17.7-8.1-37.9a103.7 103.7 0 0 1 27.6-18.6c-17.4 9.3-22.5 24.9-11.5 30.7 12.9 6.8 31.3-6.9 64.4-9.9 29.2-2.7 38.9 4.4 78.9 32.6s120.1 42.7 120.2-28.4c5.6 16.4 7.7 41.2-7.4 62.1z"/></g><path d="m617 569.4a32.8 32.8 0 0 1 -7.2-24.1c.9-8.3 1.1-19.4-4.7-25.9-12.1-13.3-25.5-.2-20.7 14.1 5.6 16.4 7.7 41.2-7.4 62.1-18.4 25.4-66.9 36.3-124.1 0s-69-41.4-84.8-42.6-32.8 2.8-55.2 12-29.4-17.7-8.1-37.9 53.3-32 91.2-30.5 100.2 22 134.6 30.5 56.8-43.3 11.6-63.4-92-2.7-101.2.8-18.7 10-24.9 10.4c-14.1.9-25.5 2.4-62.6-5s-90.8-30.8-85.8-45c2.2-6.2 9.8-27.5 12.1-34.1 5.3-15 73.4 52.4 166.6 45.1 13.1-1 31.3-2.9 40.2-10.2s16.3-18.1 5.2-69.5c-15.7-73.1-61.7-100.5-100.4-106.7-30.7-4.9-56.8 11.6-66.2 18.7-2.5 1.8-3.2 1.4-2.2-1.4 11.3-32 80.7-228 81.9-231.5s2-3.6 4.3-4.9c13.9-7.6 19.1-7.9 20.9-13.5s-6.7-7.4-16.2-10.3c-3.1-.9-16.1-4.9-18.7-5.9s-6.2-1.3-7.8 1.8a145.3 145.3 0 0 0 -5.7 14.6c-.8 2.6-1.5 5.2.9 6.2s2.9 1 2 3.6c-1.6 4.2-35 98.5-36.5 103.2s-4.9 4.6-8.1 3.3-3-3.5-1.9-6.3 5-14.6 9.1-26c2.3-6.2-10.1-9.6-12-4.4l-9.9 27.6c-1.2 3.4-3.1 2.8-5.8 1.8-4.5-1.5-8-2-10 3.2s-2 8.3 5.1 12c3.4 1.8 3.6 3.7 2.6 6.4s-70.7 199.9-75.9 214.2c-4.5 12.2-7.3 11.9-11.5 10.5s-6.7-3.9-10.5 7-58.1 164.1-62.1 175.3-5.6 15.7-19.5 23.1c-20.3 10.6-28.3 44.7-28.5 66-.1 11.2-1.8 16.7-6 19.8-8.4 6.3-28.8 20.8-33.4 38.7-9.4 36.2 16.8 53.2 19 69 1.7 12.4-2.8 65.5 11.9 110.5s44.2 98.3 67.1 102.8 52.9-22.5 86.4-79.8 44.7-103.6 46.3-119.6 23.9-11.5 24.2.2.6 29.9-32.8 104.4c-44.6 99.7-88.4 119.5-113.7 119.5s-48.2-34-67.5-74.2-28.4-83.3-28.6-99.3c-.1-8.9-14-9.7-14.2.5-.5 22.4-19.4 33.9-51 67.2-12.8 13.4-17 21.6-16.9 33.5.2 16 1.3 52.5 5.4 71.3 2 9.3 8.4 28.5 19.2 26.7 13.2-2.1 24.7-23 40.6-41.2s34-13.1 45.9.8c9 10.5 16.7 24.9 35.7 43.1s37.1 20.2 56.9 20.9 360.1-.1 398.7-.3c28.3-.1 34.7-6.4 40.6-19.9s34.4-88.2 34.6-246.5c.1-145.5-53.5-213.8-60.6-222.5zm-341.9-264.5s48-137 54-152.5c1.8-4.7 11.1-.6 9.4 4.4-7.7 23.8-39.7 110.6-54.2 152.6-1.5 4.4-11.2.9-9.2-4.5zm-82.8 366.7c-2.5 11.2-4.6 26.3-18.9 47.9-3.4 5.3-3.9 11.4-1.5 17.6 7.3 18.9 15.4 41.5 8.2 77-1.5 7.6-8.4 6.8-7.4.2 6.7-46.4-7-61.7-10-66s-8.6-10.3-21.9-6.3c-16.2 4.9-51.3 6.8-58.9-16.3-6.4-19.5 15.5-43.3 20.4-48.9s5.6-1.6 5.3 4-.5 12.5.1 14.8 7.2 4 7.5-4.3 1.7-28 5.6-56.1 8.8-37 15.2-42.2 15.4-2.2 10.1 13.5c-6.7 20.3-9.5 46.6-6.8 65.7s24.7 23.8 30.3 16.2 3.3-20.2 8.3-27.7 17.6-4.2 14.4 10.9zm101.6-82.8c-9.7 9.6-52.6 8.5-44.2-14.8 4.7-13.2 13.4-38 19.4-55.3 1.8-5.1-1.9-9.1-6.8-10.7-7.1-2.4-12.5 1.1-13.5 3.9-15.2 42.5-21.7 61.3-24.6 69.6-4.5 12.5-14.8 8.7-11.3-1.7 0 0 39.1-110.7 44.7-126.4 3.3-9.4 8.5-6.2 8.2 1.3-.7 12.1 2.1 42.6 20.4 64 2.3 2.6 2.6 6.1.8 8.3-15.4 18.5-16.4 53.8 6.5 54.1 4.9 0 2.9 5.3.4 7.7z" fill="#845567"/></svg>