<svg viewBox="0 0 1385.6 1201" xmlns="http://www.w3.org/2000/svg"><g fill="#845567"><path d="m1129.9 329.2c-12.8-5.9-14.9-20.7-6.7-28.1 41.2-36.7 61.8-71 57.4-130.5-1-13.6 20.5-38.1 18.8-66.2-.9-13.5-11.2-17.5-13.7-5.6s-4.8 16.9-10.4 29.4c-8.1 18.1-20.2 10.5-13.4-1s10.4-17.4 12.6-34.1c2.5-18.7-2.8-32.6-16.4-30.1-11.1 2.1-25.2 8.9-35.9 17.7-15.1 12.5-22.5.1-14.5-10.1 9.3-11.9 29.6-25.4 44.3-30.8 8-3 7.1-16.2-4-15.7s-43.5 14.1-50.3 16.8c-9 3.4-17.8 1.9-30.4-3.2-25.5-10.5-58.9-14-92.5-10.4-10.5 1.1-18.4-2.1-27.6-7.2-12.6-6.9-36.5-17.4-55.6-19.7-26-3.1-29.1 12.7-12.8 15.7 21.4 3.9 44.5 23.7 54.6 38.2s2.8 26.1-8.1 14c-14.7-16.5-30.2-22.6-50-24.8-15.4-1.7-22.5 8.5-21.3 19.9 1.9 17.6 8.3 27.2 10.8 46.2s-10.6 20-13.5 8.2c-1.7-6.8-2.7-11.7-4.7-21.1-3.4-15.9-16.6-9.4-15 4.9 1.3 12.2.8 16.6 3.3 30.5 1.6 9.5-3.4 17.7-3.6 34.6s-11.8 17.8-37.9 14.8c-55.1-6.2-114.2 9.1-133.1 21.6-4.8 3.2-11.3 5.9-19.3 4.3s-50.5-8.3-65.2-8c-7 .1-9.1-6-9.2-11-.1-8.5 1-23.2 5.5-49.1 2.6-14.7-10.4-15.6-13.8-5.8-2.8 8.1-3.5 13.8-5.6 26-2.7 16.2-14.8 8.9-15.6-1.2s.4-17.5 3.6-32.9-3.9-24.6-16-20.2c-9.9 3.6-21.8 12-30.3 21.9-11.9 13.8-20.7 3.5-14.9-7.1 6.7-12.4 23.4-28 36-35.3 6.9-4 4.1-16-6.1-13.9s-37.8 19.7-43.7 23.3c-7.7 4.6-16.2.6-28.8-1.4-31.2-5-56.2-3.2-86.6 5.3-9.5 2.7-16.8 3.4-26.1.1-12.6-4.5-36.1-10.4-54.1-9.6-24.4 1.1-24.8 16.2-9.3 16.4 20.3.4 44.5 15.1 56 26.9s6.6 23.6-5.3 14.1c-16-12.9-31.2-16.1-49.7-15.1-14.4.7-19.4 11.3-16.6 21.7 4.5 15.9 5.9 21.9 11.1 39.1s-7.7 23.4-10.7 12.3c-4.7-16.7-8-29.2-11.4-38.6-5.8-16.3-21.2-12.7-18.1 2.1s14.7 38.7 10.7 66.5c-7.2 50.5 23.2 102.9 49.2 122.2 5.4 4.1 8.1 11 3.7 17.9-15.8 24.7-42.3 87.4-44.3 167.2-1.7 66.9 21.1 132.4 35.8 167.7 19.9 48-68 65.6-96.6 89.6-33 27.8 1 50.2 28.4 22.2s93.9-63.9 127.4-62c29.9 1.8 82 42.3 163.3 29.5 77.8-12.2 92.5-32.1 120.6-53.7 12.7-9.7 26.6-5.4 36.5-.1 11.5 6.1 60.8 25.4 94-38.7 15.3-29.4 32.8-33.5 21.9-6.6-21.1 51.8 102.9 51.9 135.9-15.6 22.7-46.4 20.1-49.8 54.1-67.7 21.6-11.3 81.6-22.7 100.5-27.8 9.4-2.5 96.3-22.8 141.5-33.7s63.8 27.6 9.4 43.2c-34.3 9.9-70.8 19.1-91.8 25.5-34.1 10.6-20.9 36.5 3 31.2s45.1-9.3 61-11.9 31.2 21.4 1.2 27.7c-76.3 16-116.9 22.4-247.1 53.7-61 14.7-43.5 56.7.3 47.6s63.3-17.1 143-30.1c44.1-7.2 44.5 27.7 10.3 34.1-46.6 8.9-306.3 77.5-417.4 106.2-17.6 4.5-43.9-17 2.3-32.9 8.1-2.8 108.8-36 136.3-43.1 37.6-9.8 22.2-52.2-11.5-44.3-63.6 15-225.1 59.1-363.4 97.3-55.8 15.4-48.6 63.4 22.7 49.3 25.6-5.1 41.8 19.4 3.6 33.6-59.9 22.3-350.9 91.8-444.6 217.2-36.8 49.3-4.1 75.1 36.7 26.2 92.2-110.9 353-164 523.1-208.1 186.1-48.3 424.6-139.1 809.8-157.3v-360.3c-84.4-134-242.9-114-255.7-119.9zm-614.1-18.3c-19.2 36.1-33.6 6.5-29-9.5 6.9-23.5 9.9-45.3-14.6-64.5s-58 10.1-31.2 30.8c18 13.8 26.2 26.2 23.6 43.2-3.1 19.3-17.2 24.1-19.6 33.1-2.9 11-11.4 22.5-33.8 23.1-19.6.5-30.3-6.6-34.8-16.4-3.7-8.1-20.7-15.8-24.4-32.8s4.1-25.5 18.8-45.2c18.2-24.4-22.2-48.2-42.3-22.4-12.7 16.4-13.1 39.1-2.1 60.6 13.3 26.1-16.5 30.8-30.4 12.9-24.3-31.5-16.1-76 11.4-96.3 17.8-13.1 29.2-17.3 21.3-34.2-11.2-24.2 22.4-35.4 36.7-16.1 10.8 14.7 16.8 24.4 37.8 24.4s24.3-9.8 36.8-29.4 44.2-7.8 34.9 14.1c-4.9 11.6-11.6 14.8 9.2 28.3 37.5 24.3 50.9 60.1 31.7 96.3zm56.7-56.6c5.3 10.4 11.2 26.9 15.6 45.4 2.8 11.4-12.9 16.2-16.4 4-10.4-37.5-23.2-54.4-26.1-69.6s11.7-20.4 27.8-19.5c21.1 1.1 52.7 6.2 66.5 16s2.4 24-8.7 19.2c-17.6-7.7-33.7-12.7-44.3-14.3-12.7-2-21.1 5.9-14.4 18.8zm303.6 145.9c-16.4 41.8-35.7 19.5-31.1 1.7 9.5-37.2 3.6-63.6-25.5-81.5s-62.1 18.3-30.2 37.5c21.3 12.9 31.9 25.3 31.1 44.1-.9 21.5-15.7 28.5-17.1 38.6-1.9 12.4-7.9 28.1-32.2 31.6-21.3 3-35.7-5.5-41.8-15.6-5-8.3-24.6-14.7-30.8-32.7s1.3-28.3 14.8-51.6c16.8-29-30.2-49.9-48.9-19.2-11.8 19.5-5.1 45.3 8.9 62.5 20.3 24.9-6.7 37.4-23.3 18.9-30.7-34.3-39-78-11.5-103.6 17.8-16.5 29.6-22.6 19-40-15.3-25 19.9-41.5 37.9-22.1 13.7 14.6 21.5 24.4 44.3 21.8s25.3-13.7 36.4-36.7 47.3-14 39.9 11c-3.9 13.2-10.8 17.5 13.6 29.6 44 21.8 62.9 63.8 46.5 105.7zm10.4-152.9c-3.2-18.8-4.4-36.3-3.6-47.9 1-14.5-9.9-18.4-20.7-11.6-9.1 5.6-21.9 16.6-35 30.6-8.3 8.9-24-.2-15.6-14.1s35.8-31.7 54.6-41c14.5-7.3 30.2-7.4 33.3 6.8s-1.6 35.8 3.6 74.3c1.7 12.6-14.6 14.4-16.6 2.9zm222.8 16.2c-29.4 31-39.4 6-31.2-8.9 17.3-31.2 18.1-56.2-3.8-79.1s-60 1.9-35.9 26.6c16.2 16.5 22.8 30.2 17.7 46.9-5.9 19-20.8 21.9-24.4 30.6-4.6 10.7-16.6 25.6-39.2 23-19.9-2.2-27.8-15.4-30.9-26-2.6-8.6-18.6-18.8-20-36.5s11-22.4 25.3-42.9c17.9-25.5-20.8-56.2-39.4-28.6-6.3 9.4-12 6.3-13 1.2-1.7-9.4-6.4-18.5-.6-26.9s28-12.5 24.6-28.2c-5.7-26.6 24.9-36 36.5-14.5 8.9 16.3 13.5 27 34.7 29.9s25.8-6.4 41.2-24.4 45.7-1.6 33.2 19.2c-6.5 10.9-13.7 13.2 5.3 29.8 34.3 29.8 48.5 78.5 19.9 108.8z"/><path d="m408.6 284.4c15.4-.6 23.1 4.8 23.3 18.4.2 10.8-11.6 12.9-11.3 18.5s12.4 2.2 13.5 8.9c1.5 8.6-11.4 15.8-22.1 16.4-13 .7-26.2-3.5-26.2-10.9-.1-9.8 12.6-7 12.6-12.8s-12-5.9-12.6-17.3 8-20.7 22.8-21.2z"/><path d="m756 380.2c16.7-2.6 25.9 2.4 27.8 17.1 1.5 11.8-11.1 15.6-10 21.6s13.8.9 15.9 8.1c2.7 9.2-10.5 18.6-22.2 20.6-14.1 2.4-29-.5-29.9-8.6-1.3-10.6 12.9-9.1 12.1-15.5s-13.8-5-15.9-17.3 6.2-23.5 22.2-26z"/><path d="m1003.4 214.4c15.6 1.6 22.6 8.1 20.9 21.8-1.4 10.9-13.6 11.4-14.1 17s12.2 4.1 12.5 11c.2 8.9-13.8 14.2-24.7 13.3-13.2-1.1-25.9-7.2-24.9-14.7 1.4-9.8 13.7-5.2 14.5-11.1s-11.2-7.6-10.2-19.2 11-19.7 26-18.1z"/></g><g fill="#eebfaf"><path d="m457 897.8c25.6-5.1 41.8 19.4 3.6 33.6-57.6 21.5-329.1 86.6-433 203.1 52.5-68.9 249.7-162.5 290.9-177.1s27.1-59.7-15.4-44-69.2-29.1-13.4-46.1 93.5-28.4 140.5-40.5c14.5-3.6 35 .2 56.5 7.3l-52.4 14.4c-55.8 15.4-48.6 63.4 22.7 49.3z"/><path d="m515.8 310.9c-19.2 36.1-33.6 6.5-29-9.5 6.9-23.5 9.9-45.2-14.6-64.5s-58 10.1-31.2 30.8c18 13.8 26.2 26.2 23.6 43.2-3.1 19.3-17.2 24.1-19.6 33.1-2.9 11-11.4 22.5-33.8 23.1h-4.7c-1.2-6.5-2.2-13.5-3-20.7a79.1 79.1 0 0 0 8.5.2c10.7-.6 23.6-7.7 22.1-16.4-1.1-6.7-13.2-3.4-13.5-8.9s11.5-7.7 11.3-18.5c-.2-13.6-7.9-19-23.3-18.4a13.9 13.9 0 0 0 -3 .3v-.3c5.4-30.8 3.1-58.4-.9-82.8 19.7-.5 23.1-10.3 35.3-29.4s44.2-7.8 34.9 14.1c-4.9 11.6-11.6 14.7 9.3 28.3 37.4 24.3 50.8 60.1 31.6 96.3z"/><path d="m876.1 400.2c-16.4 41.8-35.6 19.5-31.1 1.7 9.5-37.2 3.5-63.6-25.5-81.5s-62.1 18.3-30.2 37.5c21.3 12.9 31.9 25.3 31.1 44.1-.9 21.5-15.7 28.5-17.1 38.6-1.9 12.4-7.9 28.1-32.2 31.6l-5 .5a174.2 174.2 0 0 1 -5-24.4c2.2-.1 4.3-.4 6.4-.7 11.7-2 24.9-11.4 22.2-20.6-2.1-7.2-14.9-2-15.9-8s11.5-9.9 10-21.7c-1.9-14.3-10.5-19.3-26.3-17.3-2.1-28.6-8.9-59.1-15-89.8 20.3-3.2 22.9-14.3 33.6-36.3s47.3-14 39.9 11c-3.9 13.2-10.8 17.5 13.6 29.6 43.9 21.8 62.9 63.8 46.5 105.7z"/><path d="m1109.3 263.5c-29.4 31-39.4 6-31.1-8.9 17.2-31.2 18-56.3-3.9-79.1s-60 1.9-35.9 26.6c16.2 16.5 22.8 30.2 17.7 46.9-5.9 19-20.8 21.9-24.4 30.6-4.6 10.7-16.7 25.5-39.2 23l-4.8-.8c.4-7.5 1.2-16 2.6-25.5a49.4 49.4 0 0 0 7.7 1.2c10.9.9 24.9-4.4 24.7-13.3-.3-6.9-12.9-5.3-12.5-11s12.7-6.1 14.1-17c1.7-13.7-5.3-20.2-21-21.8 8.2-30.7 10.2-58.3 10.3-83.9 17.9 1.3 22.9-8 37.3-24.8s45.7-1.6 33.2 19.2c-6.5 10.9-13.7 13.2 5.3 29.7 34.3 29.9 48.5 78.6 19.9 108.9z"/><path d="m1208.1 587.5c-34.3 9.9-70.8 19.1-91.8 25.5-34.2 10.6-20.9 36.5 3 31.2s45.1-9.3 61.1-11.9 31.1 21.4 1.2 27.7c-76.4 16-117 22.5-247.2 53.8-61 14.6-43.5 56.6.3 47.5s63.3-17.1 143-30.1c44.1-7.2 44.5 27.7 10.3 34.1-46.6 8.9-306.3 77.5-417.4 106.2-7.3 1.9-16-.7-20.5-5.5 68.2-17.9 171.1-44.6 192.6-49.3 32.8-7.3 44.9-15.8 39.2-34s-12.5-42.5 8.1-66.7 84.9-29.1 117.7-38.9 8.5-37.6 30.3-53.3 74.1-21.9 109.2-31.6 29.4-42.6-13.2-32.5c23.2-5.5 47.1-11.1 64.7-15.4 45.3-10.8 63.8 27.6 9.4 43.2z"/></g></svg>