<svg viewBox="0 0 1142.1 957.5" xmlns="http://www.w3.org/2000/svg"><path d="m1053.4 380.1c.5 1.8.9 3.6 1.3 5.4 22.4 97.8 21.6 184-43.4 347.8-10.5 26.5-15.2 34.6-21.3 47.1a12.3 12.3 0 0 1 -16.2 5.7c-32.4-15.6-44.7-22.2-55.8-28.9-30.2-17.9-28.2-49.8-15.7-80 9.7-23.5 19.6-46.2 36.2-105.9 32.9-118.6-6-202.6-15.8-215.2-14.9-19.1-45.2-2.8-23.8 22.2 6.7 7.8 60.4 76.3 28.9 190-16.4 58.9-31.6 93.8-41.6 116.9-5.2 11.9-9 20.5-11.1 28.1-7.1 25.4 5.8 33.8 17.2 41.2l.8.5c4.7 3 15 9.2 28 16.4l.3.2 13 7.1.6.3 35 19.1 4.9 2.7a15.8 15.8 0 0 0 21-5.6c8.3-13.3 22-36 37.4-63.7a9.5 9.5 0 0 1 -4.6-12c57.9-152.2 52.3-209.3 47.7-262.1-.7-7.8 11.8-13.8 19.4-5.1 1.9 2.2 4.1 4.7 6.4 7.6-18.9-29.6-33.9-57.9-48.8-79.8zm-104.4-108.7c-7.9-18-19.6-47.5-24.9-74-1.3-6.7.9-13.1 5.8-16.2-12.2 1.6-27 8.9-30.9 20.4-5.4 15.3 1.3 38.6 8.6 57.3s-12.8 29.4-26.6 22.4c-18.8-9.3-25-45.3-25-68.6a5.7 5.7 0 0 0 -.4-2.5c0 13.2 2.6 29.5 2.2 57.3-.3 21-1 40.2-3.9 56a30.3 30.3 0 0 1 -3.9 10.1c-16.8 26.5-42.4 65-54.9 77.5s-22.2 9.1-41.3-3.3c-15.8-10.3-32.5-26.8-50.6-50.1a26.2 26.2 0 0 1 -5.1-11.1 113.5 113.5 0 0 0 -4.7-16.9c-5.9-15.1-11.3-17.4-20-21.5s-17.1-15.2-23-23.1a13.1 13.1 0 0 0 1.2 1.9c7.3 10 16.9 21.9 20.2 35.9s-13.9 25.4-25.3 23.3c11.6 6 27.9 11.5 36.6 12.4a17.7 17.7 0 0 1 11.9 6.8c18.7 23.9 36.1 40.9 52.8 51.7 10.6 6.9 21.1 12.9 31.8 12.9 7.7 0 15.5-3.1 23.4-11 15.3-15.3 45.4-62.1 58.4-82.7a31.1 31.1 0 0 1 10.4-10c27.3-15.7 58.7-22.8 68.9-28.9a20.6 20.6 0 0 0 8.3-26zm-244-100.5c25.9 18 43 38 44.6 60.8 1.3 18.8.6 31.6-7.1 46.2 2.9-4 6-8.8 18.1-31.1s1.1-40.3-13-61.9c-20.4-30.8-37.2-36.4-66.3-34.3-21.3 1.5-44.6 16.4-57.1 27.3 22.8-11.8 54.9-25 80.8-7zm158.1 321.5c-26.8-9.3-66.1-13.8-99.1 11.3-16.8 12.7-28.6 36.2-31.6 63-1.5 13.3-1.5 27.3 2 40.7 2.4 9.2-5.8 16.4-14 15.2 28.6 17.2 35.7 4 75.7 50.7a31.3 31.3 0 0 0 -5.5-7.6c-12.5-13.6-22.1-22.1-32.6-37.2s-17.2-36.7-14.6-60.6 12.9-44.5 27.3-55.4c29.2-22.1 60.8-9.2 77.9 10 19.2 21.5 52.4-16.8 14.5-30.1zm-187.4 86.9c-11.1-19-16.7-30.3-23-49.5s-3.8-46.4 22.8-54.6c16.5-5.2 12.4-30.4-8.3-26.1-10.4 2.2-18.3 10.4-23.6 20.7-8.6 16.6-9.2 40.3-1.5 63.5a234.8 234.8 0 0 0 11.2 27.9 49.2 49.2 0 0 1 2.3 6c14.4 18 32.4 31.8 46.1 42.1-11.9-10.7-21-21.5-26-30z" fill="#eebfaf"/><g fill="#845567"><path d="m1076.4 457.4c4.6 52.8 10.2 109.9-47.7 262.1a9.6 9.6 0 0 0 11.3 12.8c46.7-11.3 99.2-43.3 102-139.8 2.4-82.8-30.2-121.9-46.2-140.2-7.6-8.7-20.1-2.7-19.4 5.1z"/><path d="m581.5 139.5c.4-21.7 10-92.7 48-120.8 34.1-25.2 74.8-23.7 95.2-2.9 18.1 18.7 18.9 36.1 32.4 56.4 11 16.4 16.8 18.2 27.6 24.6 15.8 9.3 5.2 40-20.7 24.8s-50.4-18.8-89.7-9.4-61.6 27.6-72.1 36-21.2 14.7-20.7-8.7z"/><path d="m893.8 156.3c-14.5 0-47.8 2-60.3 7.2s-18-6.1-20.9-21.2-17.6-11.6-18.5-4.9-.6 18-14.8 19.1c-26.8 2.2-47.5-21-86.1-21.7-46.1-.8-79.7 30.7-90.7 43.8s-7 26.3 8.8 39.3c11 9 13.5 23.1 12.3 39.9s-1.7 28.6-5.2 41.1 8.7 11.9 10.8 4.1 2-13.1 4-20.5c1.6-5.5 6.3-10.3 12.7-3.1s15.6 23.2 27.5 28.8c8.7 4.1 14.1 6.4 20 21.5a127 127 0 0 1 4.7 16.9 26.2 26.2 0 0 0 5.1 11.1c18.1 23.3 34.8 39.8 50.6 50.1 19.1 12.4 29.1 15.5 41.3 3.3s38.1-51 54.9-77.5a30.3 30.3 0 0 0 3.9-10.1c2.9-15.8 3.6-35 3.9-56 .5-38.1-4.6-54.7-.8-71s25.8-19.7 40.3-23.1 11-17.1-3.5-17.1zm-133.2 90.5c-16 29.4-16.3 28.4-21 35.2-8.1 11.8-23.3 2-13.5-14.3 4.7-8 13.4-19.6 3.9-30.8-12.6-14.9-26.6-10.2-33.2-23.8-5.3-11.2-2.1-19.2-6.5-28.3s-19.8-8.5-28.9-1.5c-11.5 9-9.7 18.5-3.4 27.7s16.2 14.3 27 16.6c14.6 3.1 8.4 20.8 2.1 19s-10.9-4.1-15.7-1.1-7.1 7.2-10 14.5c-4.4 11.1-17.6 3.9-17.8-6.9-.4-13.2 1.3-15.5-1.2-30.1s-14.2-17.7-22-19.5c-4.1-.9-9.1-8.4-4.5-16.6s36.9-34.3 65.4-36.3 45.9 3.5 66.3 34.3c14.1 21.6 26 38.1 13 61.9z"/><path d="m970 798.1c2.8 4.9-2 11.5-11 8.8-13.2-3.8-18.2 11.9-41.7 37.1-32.1 34.5-35 69.6-71.8 75-25.9 3.8-40.3 15.5-53.3 29.1-14.5 15.3-44.5 10.5-53-3.8s-6.7-25.6 9.3-45.1 35.9-29.9 56.2-34.7c30.2-7.1 41.4-24.9 53.3-51.4s20-34.9 22.4-46.1c1.2-5.6-6.4-11.3-9.6-14.3-4.9-4.6-6.4-5.9-13.3-5.1-13.7 1.6-20.5 18.4-62.7 25.9s-85.9 12.6-97.8-10.2 22.3-40.1 43.4-42.1 39.5-5.6 51.1-20.6 7.1-26.4-.9-34.9c-12.5-13.6-22.1-22.1-32.6-37.2s-17.2-36.7-14.6-60.6 12.9-44.5 27.3-55.4c29.2-22.1 60.8-9.2 77.9 10 19.2 21.5 52.4-16.8 14.5-30.1-26.8-9.3-66.1-13.8-99.1 11.3-16.8 12.7-28.6 36.2-31.6 63-1.5 13.3-1.5 27.3 2 40.7 3 11.4-10.4 19.8-19.8 12.7-18.3-14.1-32.2-29.5-38.9-40.8-11.1-19-16.7-30.3-23-49.5s-3.8-46.4 22.8-54.6c16.5-5.2 12.4-30.4-8.3-26.1-10.4 2.2-18.3 10.4-23.6 20.7-8.6 16.6-9.2 40.3-1.5 63.5a234.8 234.8 0 0 0 11.2 27.9 51.2 51.2 0 0 1 1.1 40.8c-1.9 4.7-3.4 8.7-3.5 10a77.2 77.2 0 0 1 -2.4 17.7c-2.1 7.3-9.7 13.6-12.9 15.8s-19.5 35.2-21.3 40.5 16.2 5 21.2 5.2 12.3-.7 19.7 3.3c4.2 2.2 7.1 5.1 12.9 9.4a3.8 3.8 0 0 1 -1.1 6.6c-3.1 1.1-6.4 2.6-8.5 4.8-7.1 7-13.6 16-26.9 15.4s-26.7-9.3-26.7-3v107.6c0 2.2.4 5.2 5.9 6.6s111.1 30.7 116.9 32.7 22.9 6.6 16.8 13.5c-7.6 8.5-19.6 21.3-20.3 36.8s-14.2 9.5-21.8 6.6c-18-6.7-102.1-29.5-124.5-34.2s-53.9-11.9-63.7-14.3c-5.8-1.6-22-4.7-30.1-9.6-3.5-2.2-4.5-6.3-2.7-11.8s3.6-13.3 5.6-21.4c2.6-10.1 15.2-19.9 20.6-22.1 10.9-4.4 22 1.3 32.3 4.7s45.7 12.5 49.3 13.6 5.8-2 5.6-5.3 0-99.4 0-105-6.5-15.3-17.2-16-16.4 2.6-23.8 16.9-29.1 62-50 80.2c-7.3 6.4-24.3 20.4-27.2 30.7s-2 23.6-10.8 28c-13.1 6.5-13.8 13.9-23.6 20s-25.3-7.1-10.2-19.2c3.7-2.9-.1-5.9-1.9-4.4-6.6 5.6-10.5 9.8-16.4 20.3-10.8 19.3-35.3 16.4-42.4 5.1s-4.7-21.2 7.7-37.2 24.2-25.1 40.3-29.3c24.1-6.4 38.5-31.5 41.6-42.4 6.4-22.1 30.2-71 35.9-78.5s-8-10.5-1.5-25.7 99-156.5 125.2-322.2c.5-3 1.2-9.4-.1-13.5-2.1-7 8.1-12.6 12.9-2.6 4.1 8.3 36.2 20.9 49.8 22.3a17.7 17.7 0 0 1 11.9 6.8c18.7 23.9 36.1 40.9 52.8 51.7 10.6 6.9 21.1 12.9 31.8 12.9 7.7 0 15.5-3.1 23.4-11 15.3-15.3 45.4-62.1 58.4-82.7a31.1 31.1 0 0 1 10.4-10c27.3-15.7 58.7-22.8 68.9-28.9a20.6 20.6 0 0 0 8.3-26c-7.9-18-19.6-47.5-24.9-74-2.4-11.9 6.5-23 22.3-16.2s77.2 74.3 107 198.9h.1c.1.7.3 1.5.5 2.3s.5 2 .7 3c22.4 97.8 21.6 184-43.4 347.8-10.5 26.5-15.2 34.6-21.3 47.1a12.3 12.3 0 0 1 -16.2 5.7c-32.4-15.6-44.7-22.2-55.8-28.9-30.2-17.9-28.2-49.8-15.7-80 9.7-23.5 19.6-46.2 36.2-105.9 32.9-118.6-6-202.6-15.8-215.2-14.9-19.1-45.2-2.8-23.8 22.2 6.7 7.8 60.4 76.3 28.9 190-16.4 58.9-31.6 93.8-41.6 116.9-5.2 11.9-9 20.5-11.1 28.1-7.1 25.4 5.8 33.8 17.2 41.2l.8.5 6 3.7 1.5.9 1.7 1 1.7 1 2 1.2.9.5 3.9 2.3 2.4 1.3 1.8 1.2 6.4 3.6 13 7.1.6.3z"/><path d="m428.6 789.3c7.9 6.2 3.3 12.7-2.7 15.8-10.5 5.5-35.2 6.3-50.9 31.2-6.6 10.5-22.5 4.4-33.7-1.6-9.5-5-121.2-54.3-336.7-111.2-7.5-2-5.2-13.1 2.4-11.9 160.6 25.4 406.7 65.8 421.6 77.7z"/><path d="m480.6 645.2c10 2.8 11.8 10.8 9.6 15.2-5 9.9-11.6 21.1-15.2 28.8-2.9 6.2-20.3 4.9-30.8 1.2-8.5-3.1-107.7-41.2-280.5-85.9-7.5-2-5.2-13.1 2.4-11.9 120.2 18.2 281.8 43.5 314.5 52.6z"/><path d="m547.8 535.7c3.5.8 4.8 5 2.2 9.6-4.5 8-9.4 16.9-12.3 21.7s-7.6 6.6-18.5 4.6c-14.3-2.6-96.5-28-221-57.5-7.5-1.8-5.5-12.9 2.1-12 98.9 12.3 223.6 28.3 247.5 33.6z"/><path d="m578.8 462.8c2.7.6 3.3 3.4 1.6 7-2.9 6.2-4.9 12.6-6.6 16.8s-5.8 4.8-14.2 3.4-62.1-16.7-142.3-35.1c-7.5-1.8-5.6-12.9 2-12 68.7 7.8 143.4 16.6 159.5 19.9z"/><path d="m596.4 407.3c1.9.4 1.9 2 1.1 4.5-1.4 4.7-2 8.3-3.2 11.6s-4.2 3.1-10.2 2.2-30.7-6.4-69.3-14.1c-7.6-1.5-6-12.6 1.6-12 37.6 3.2 71.2 6.3 80 7.8z"/><path d="m602.8 373.2a2.5 2.5 0 0 1 2 2.9c-.7 2.9-.7 3.8-1.3 5.9s-2.5 3.2-5.9 2.8h-.7c-7.7-1.4-6-12.9 1.8-12z"/></g><path d="m587.2 612.3c.9-4.6 6.9-5.7 10-2a18.4 18.4 0 0 1 2.2 3.2c3.9 7.5 2.4 14.3-1.9 14.2-1.1-.1-2-1.3-2.7-3.2s-3.8-2.3-4.5-.2-3 5.2-5.5 4.1c-4.2-1.7 1.2-10.1 2.4-16.1z" fill="#eebfaf"/><path d="m555.9 628.7c5.8.4 11.3-.6 16.2-.5 7.2.1 12.9 3.9 11.7 7.6-.4 1.2-5.3 0-9.1-.1-1.5-.1-1.6 1.4-.3 2.1 3 1.6 8.3.3 6.9 5.2-.4 1.5-2.9 3.9-11.5 3.5-5.7-.2-12.9-3.3-18.1-7.9a5.7 5.7 0 0 1 4.2-9.9z" fill="#eebfaf"/><path d="m586 693.8c-1.1 1.8-8-2.5-10.4-2.7s-4.1 2.6-1.3 4 8.2 4.2 7.3 5.9c-1.9 3.3-7.3-1.9-23.3 6.2-18.4 9.3-36.9-5.5-43.9-12.1a1.9 1.9 0 0 1 1.2-3.3c17.2-1.8 24.1-4.8 34.3-11.1 6.2-3.7 16.2-6.1 24.1-2.2 9.6 4.7 15 10.8 12 15.3z" fill="#eebfaf"/><path d="m606.9 687.4a5.7 5.7 0 0 1 -9.6 2.4c-5.5-6.1-11.3-7.8-17.4-13.3-7.7-6.7-9.5-11.2-9.5-17.7s5.7-11 13.6-11.2 12 3.8 13.9 8c.8 1.6 2.7 1.8 2.8.4a11.9 11.9 0 0 0 -2.2-6.3 2 2 0 0 1 1.1-2.9c5.4-2.1 10.9.7 13.6 4.8s.5 17.6-3.5 27.5a67.3 67.3 0 0 0 -2.8 8.3z" fill="#eebfaf"/><path d="m626.4 695.5c11.4-1 19.4 1 27.2 5.1a38.2 38.2 0 0 1 6.1 3.9 2 2 0 0 1 -.6 3.4 24.2 24.2 0 0 0 -9.4 5.3c-5 4.9-11.1 10.1-20.2 9.5s-16.6-4.4-17.2-6.2 2.5-6.5 8.4-8.6c.9-.3.8-2.2-.7-2.3-6.4-.2-9.5.8-8.7-1.2s8.6-8.3 15.1-8.9z" fill="#eebfaf"/><path d="m638.2 618.4a3 3 0 0 1 5.1 2.2c.1 6.5-2 15.2-12 19.4-17.4 7.2-29 1.7-28.6-2.3s5.5-2.7 11.9-4.8a1.1 1.1 0 0 0 -.1-2.2c-2.7-.4-6.9-1.7-6.9-3.5-.1-3.5 8.1-3.4 13.8-3.1a24.9 24.9 0 0 0 16.8-5.7z" fill="#eebfaf"/></svg>