<svg viewBox="0 0 1059.2 1055.4" xmlns="http://www.w3.org/2000/svg"><g fill="#eebfaf"><path d="m413.7 548.3c-10.1-25.6 14.3-34.3 33.7-26.6-16.4-2.6-29 27.1 0 62.3s47 60 48.7 87.5 32.7 93.4 89.6 86.6c44.1-5.3 59.3-28.3 34.1-73 6.8 10.8 12.5 21.4 16.3 31.3 11.8 30.8 11.8 105.3-28.5 111.8-96.1 15.7-144.1-62.7-140-139.9s-36-94.7-53.9-140z"/><path d="m.3 965.8c-4.1-24.6 38.8-44.8 112-56.4.3 14.3 3.1 26.4 9.2 35.5 34.5 50.7 211.6 48 298 50.3 178 4.9 261.9.5 287-46.1 7.6-14.2 5.9-35-.2-58.6 17.1.7 34.4 1.7 51.3 3.4 20.7 28 41.5 45.4 67.1 45.3 20.5 0 35.7-5.5 44.6-14.4 9.6 7 16.1 15.4 18.5 25.4 31.1 130.8-866.3 143.7-887.5 15.6z"/><path d="m524 126.5c2.8 10.3-23 10.5-24-3.8-.7-10.3 2.9-20.4 5.4-26.1 4.3-9.6 19.8-17 18.5 0-.6 8.6-3.9 15.3.1 29.9z"/><path d="m626.3 178.7c-18.9-12.5-36.2-16.2-40.2-.3-1.1 4.6-.4 12.2 1 19.7a3.9 3.9 0 0 1 -3.1 4.5 3.8 3.8 0 0 1 -4.2-2.3c-3.5-8.4-5-16.5-6.3-27.5-7.6-63.1 45.9-28.6 60.5-8.4 10.3 14.2.6 19.9-7.7 14.3z"/><path d="m656.2 204.1c-2.8 6.9-5.5 13.9-7.8 20.9-12.6-3.1-16 5.1-16.8 12.4a3.8 3.8 0 0 1 -4.2 3.3 3.6 3.6 0 0 1 -2.8-1.8 30.3 30.3 0 0 1 -4-17.6c1-17.1 12.7-22.7 30.3-18.6z"/></g><path d="m1018.5 499.9c-43.2 6.8-10.5 63-74.5 115.2-67.8 55.2-141 43.9-152.3-2.2-25.1-103-6.8-239.1 4.7-260.7 28.3-53.2 63.4-92.2 79.6-115.6 22.4-32.6 21.8-71.2 7.1-96.1-26.6-45.3-70.8 31.4-70.8 31.4 5.7-23.9 3.7-36.7 2.4-47.7-.5-4.1-5.8-4.8-6.9-.8a89.2 89.2 0 0 1 -6.7 17.1 3.8 3.8 0 0 1 -5.1 1.5 3.8 3.8 0 0 1 -1.9-4c3.8-21 3.7-33.9 3.3-39.4a3.7 3.7 0 0 0 -3.4-3.4c-9.9-.8-21-.5-30 4.1-3.6 1.9-6.9-3-4.1-5.9 9.5-9.4 24.6-11.6 31.4-12.8a3.8 3.8 0 0 0 3.2-4.3 3.5 3.5 0 0 0 -.6-1.4c-15-21.9-39.7-40.8-74.4-51.2-20.7-6.2-47.5-6-62.9-2.8a4.1 4.1 0 0 1 -3.4-.8c-27.5-21.3-49.2-20.8-62-19.7-3.1.3-4.3 3.3-4.1 6.5 1.4 27.8 4.6 45.2-7.8 60.5-33 40.9-19 90.8-19 90.8-7.6-11.2-22-29.9-19.4-81.1 1.5-30-59.5-29-66.2 46-3.9 43.7 8.2 113.3 30.8 164.5 21.6 48.9 32.2 59.1 24.4 87-12.7 45.2-30.2 152.6-20.1 173.4 6.2 12.9 44.1 51.1 77.6 92.6l4.3 5.4h.1c4.4 5.6 8.7 11.1 12.7 16.7h.1c5.5 7.5 10.6 15 15.2 22.3 6.8 10.8 12.5 21.4 16.3 31.3 11.8 30.8 11.8 105.3-28.6 111.8-96 15.7-144-62.7-139.9-139.9s-36-94.7-53.9-140c-12.1-30.7 25.2-37 44.3-20.2 6.8 5.9 15.1-2.1 8.4-10.3-10.4-12.7-35.6-18.3-50.1-18-74.2 1.5-156.8 82.2-204.4 155.7-45.3 70.1-127.1 235.4-90.4 289.4 34.5 50.7 211.6 48 298 50.3 178 4.9 261.9.5 287-46.1s-45.3-157.2-55-211.3c-4.4-24.7 15.8-19.5 31.8 18.2 16.7 39.3 24.7 58.4 40.4 85 33.8 57.3 61.6 98.3 101 98.2 45.2 0 65.1-27.1 46.7-57.6-16.7-27.8-46.5-56.9-66.9-124.7a3.9 3.9 0 0 1 2.6-4.8 3.8 3.8 0 0 1 1.5-.1c92 7.5 166.2-34.3 209.2-83.3 61.1-69.7 48.7-176.3.7-168.7zm-183.1-317.5c1.3-7.2 7.7-16.5 12.8-21.2 10.6-9.6 13.6 1 13.6 8.7a42.7 42.7 0 0 1 -5.9 20.8c-9.8 16.1-22.1.5-20.5-8.3zm-335.4-59.7c-.7-10.3 2.9-20.4 5.4-26.1 4.3-9.6 19.8-17 18.5 0-.6 8.6-3.9 15.2.1 29.9 2.8 10.3-23 10.5-24-3.8zm84 79.9a3.8 3.8 0 0 1 -4.2-2.3c-3.5-8.4-5-16.5-6.3-27.4-7.6-63.2 45.9-28.7 60.5-8.5 10.3 14.2.6 19.9-7.8 14.3-18.9-12.5-36.1-16.2-40.1-.3-1.1 4.6-.4 12.2 1 19.7a3.9 3.9 0 0 1 -3.1 4.5zm100.3 42c-4.6 7-12.3 9-17.7 9.5a3.7 3.7 0 0 1 -4-3.4 3.8 3.8 0 0 1 .1-1.5c2.2-6.8 3.4-18.8-12.7-23.7-13.8-4.3-17.6 4.3-18.4 11.8a3.8 3.8 0 0 1 -4.2 3.4 4 4 0 0 1 -2.9-1.8 31 31 0 0 1 -3.9-17.6c1-17.1 12.7-22.7 30.3-18.6 27.3 6.3 43.5 26.3 33.4 41.9zm87.4-27.3c-3.4 15.8-22.3 28.6-48.1 35.8-3.8 1-6.7-3.4-3.8-6.1 9.8-9.4 15-15.6 12.8-25.9-3.4-15.7-21.9-14.4-38.9-16.7s-20.7-18.9 7.1-21.5c48-4.4 78.3-.8 70.9 34.4z" fill="#845567"/></svg>