<svg viewBox="0 0 2874.7 1615.4" xmlns="http://www.w3.org/2000/svg"><path d="m0 0h2874.7v1615.2h-2874.7z" fill="#fcf2e8"/><path d="m1374.4 1615.2h-356.3v-.9c-3.8-45.7-4.2-63.1-3.9-69.7 4.8-3.5 7.2-9.6 7.1-15.1-.2-7.6-5.1-13.4-11.9-14.2a3.9 3.9 0 0 0 -1.6-.2c-2.8 0-5.7.9-9.1 1.8a51.5 51.5 0 0 1 -8.3 1.8c0-2.9 1.6-6.3 2.9-9s4.2-8.9.9-14.3a10.7 10.7 0 0 0 -9.3-4.9c-.2 0-11-.9-12.3-14a9.5 9.5 0 0 1 .1-3.9 15.9 15.9 0 0 1 3.8-1.6c4.2-1.4 10.4-3.8 13.3-10.7s2.3-17.4 1.8-25.8c-.2-2.8-.5-5.4-.5-7.3v-2.6c.2-4.5.5-10.6-4.2-15.7s-12.3-6.1-17.5-6.2c-11.8-.5-39.5-12.6-52.3-20.6 0-3.8 5.1-13.2 7.3-17.4l1.9-3.5a25 25 0 0 0 13 4.1 20.2 20.2 0 0 0 11.8-3.8c10.7-7.6 10.6-20.3 10.4-28v-2.6h.2c6.8 0 17.7 1.3 25.5 2.3s10 1.2 12.3 1.2c8.6 0 21.8-9.8 22.8-18.8.6-5.8-3.2-10.8-9.1-12.1a46.6 46.6 0 0 1 -7.7-2.4 18.4 18.4 0 0 0 -1.2-12.7 14.9 14.9 0 0 0 -13.5-7.9 24.4 24.4 0 0 0 -6.8 1.2 15.7 15.7 0 0 1 -4.2.4c-6.1 0-12.5-1.7-15.1-3-3.3-9.7-15.5-22.9-27.8-23.7-1.3-.1-4.7-.5-6.3-2.6s-1.7-6.2-.4-11.7c2-8.6 11.6-14 20.2-18.7s13.9-7.9 15.9-14.5a19.1 19.1 0 0 0 .2-9.5l9.5 10.2c3.4 3.8 5.8 6.4 7.6 8s8.1 6.3 14.2 6.3a13.1 13.1 0 0 0 10-4.5c2.2-2.6 3.3-6 3.2-10.3a127.5 127.5 0 0 1 6.5 12.8c2.9 6.2 6.1 12.8 9.5 17.4 6.6 9.3 24.2 15.7 35.9 15.7 8.6 0 13.5-3.2 16.1-6a16.9 16.9 0 0 0 4.8-11.4l.9.8c2.9 2.7 4.5 5.3 4.5 7.2a3.4 3.4 0 0 1 -1.5 2.7c-2.6 2.3-6.6 7.4-4.9 15.8a33.3 33.3 0 0 0 4.1 10 44.1 44.1 0 0 1 1.9 4.1c.7 2.3.2 8-.2 14.5-.3 4.5-.7 9.6-.9 15.7a19.4 19.4 0 0 0 5.5 13.8c5.4 5.5 17.5 13 59.1 13h13.2c5.9 0 13.6 1 22.5 2.1 13.8 1.9 30.9 4.1 52.2 4.1a277.1 277.1 0 0 0 28.7-1.4c6.6-.6 13.1-.9 19.8-.9a208.1 208.1 0 0 1 61.5 9l-2.2 1.7c-3.8 4.1-5.1 10-4.4 20.3.2 1.6-.4 8.3-12.4 23.2a324.6 324.6 0 0 1 -24 25.7c-2.1 2.2-3.9 3.8-5 5.1-4.5 2.8-24.4 4.3-32 4.8l-10.3.9c-7.7 1-14.9 7.2-22.2 19a109.8 109.8 0 0 0 -11.6 26.6c-2.3 8.9.5 20.2 8.2 33.7 5.5 9.4 13 19.2 19.3 24.7 2.6 2.3 5.6 6.1 8.7 10.1 7.4 9.6 15.9 20.5 28.2 20.5a18.2 18.2 0 0 0 13.4-5.5c7.7-8.2 6.8-21.8 6.2-31.8v-.6c-.1-2.3.8-3.5 5.4-7.4a64.2 64.2 0 0 0 5.7-5.2c6.5-7.3 4.3-15.2 2.9-20.5a52.9 52.9 0 0 1 -1.5-6.9 20.8 20.8 0 0 1 5.5-.6 43.3 43.3 0 0 1 14.8 2.8c1 1.4 4.4 8.4 6.8 32 1.6 16 1.9 31.3 1.9 34.5 0 7 4.7 14.3 10.2 22.5s9.4 14.5 10.4 20.3v.2c.3 1.6.7 7 1.2 12.1a20.3 20.3 0 0 1 1 5.9z" fill="#fffdf4"/><path d="m2874.7 987.2v628h-478c7.8-6.2 10.5-15.7 12.5-22.3 1-3.7 2.2-7.6 3.6-9.3 1.3.3 4.4 1.1 10 4.5s12.2 7.8 18.3 12c13.9 9.6 21.5 14.7 28.1 14.7h.9c10-.6 17.3-11.5 25.5-23.8 1.6-2.5 3.7-5.5 5.6-8 .1.4.4 1 .5 1.3 3.4 7.8 7.4 17.4 17.3 18.1h1c2.6 0 9.2-.8 13.1-8.8a54.9 54.9 0 0 0 2.6-7.8l2.7 4.3c4.5 7.1 8.5 13.2 13.8 16a28.1 28.1 0 0 0 12.2 3c9.9 0 17.1-6.9 18.3-17.7.6-5.3 4.3-10.4 6.9-12.6a38.5 38.5 0 0 1 3.8 4.6c4.5 6 9.3 12.1 16.8 12.1h1.2c7.4-.7 12.6-7.6 17.6-14.2a38.5 38.5 0 0 1 2.6-3.4l1.7.5c3.5.8 7.6 1.9 11.3 1.9 8.2 0 11.6-5 12.7-7.2a37.9 37.9 0 0 1 2.1-3.3c3.9-5.5 9.9-13.9 6.6-22.9a9.6 9.6 0 0 1 1.6-4.2 97.7 97.7 0 0 0 16.5-3.9c13.6-4.4 17.4-8.5 19.1-11.8a5.1 5.1 0 0 1 3.1-.9c.4 0 .9 0 1.1.2 3.1 1.9 13 10.7 20.2 17.2 19.5 17.5 31.8 28.3 39.3 31.1a26.9 26.9 0 0 0 9.5 1.7 22.4 22.4 0 0 0 15.9-6.5c5.1-5.2 7.7-12.6 7.6-21.6-.2-7.4-2.5-32.9-7-58-8.4-45.9-17.7-55.2-25.8-58.2-10.8-4.1-25.7-4.7-37.5-4.7-3.4 0-6.6 0-9.7.2h-10.6v-1.3c-.1-6.7-.3-19.2-12-25.3a16.5 16.5 0 0 0 -7.8-1.8 20.2 20.2 0 0 0 -8.3 1.8 49 49 0 0 0 -6.8 4.1c-4.2 2.8-7.9 5.2-12.4 5.2s-9.7-2.1-15.8-6.6-11.3-11.4-11.9-18.3c-1-12.5 8.7-25.1 11.2-27.6 5.2-5.2 16-21.3 14.7-35.8a21.9 21.9 0 0 0 -9.8-16.4 194.5 194.5 0 0 1 -22-18.1c-10.6-10.1-13.2-14.7-13.7-15.7 0-6.1 10.2-29.8 20.8-45.7 8-11.9 10.7-24.4 8-35.3-1.8-6.8-6.6-16.5-19.8-23.5a33.8 33.8 0 0 0 -16.2-4c-9.7 0-18.6 3.9-26.4 7.2-6.2 2.8-12.2 5.4-17 5.4h-1.3c-6.4-.7-7-18.3-7.2-25.8a82.1 82.1 0 0 0 -.6-8.3c-1.6-10.3-11.2-13.1-15.8-14.2 1.7-3.1 5.3-8 11.6-14.4 7.8-8 13.8-12.2 16.2-13.3 1.3.8 3.5 3.3 5 4.8 4.2 4.6 9.4 10.3 17.1 10.3 9.3 0 13.9-8.2 17.4-14.1l2.4-4.1a27.2 27.2 0 0 1 3.1 4.7 40.2 40.2 0 0 0 3.3 5.1c4.1 5.2 11.5 6.3 21.4 6.3 7.2 0 15.5-.5 22.7-1.1l9.6-.8c17.6-.8 40.8-21.1 45.4-46.7 1.9.3 3.6.5 5.1.9a126.8 126.8 0 0 0 33.2 4.4c25.7 0 41.5-7.7 44.7-21.5 4.9-21.8-16.7-43.7-33.7-50.5-4.5-1.7-8.8-6.8-10.1-11.9a9.9 9.9 0 0 1 -.2-4.9c1.6-.5 5.5-1 13.7-1 15.8 0 38.3 2.1 60 4.2 18.3 1.6 36.3 3.3 47.6 3.3z" fill="#fffdf4"/><path d="m2874.7 977.5v-441.3c-34.4-10-64.8-14.4-79.8-14.4-5.1 0-8.2.6-9.3 1.5-5.9 5.9-34.8 16.1-47.4 16.1-3.3 0-5.5-.8-5.8-2.5-1.2-6.8-7.7-14.4-13.1-14.4a4.7 4.7 0 0 0 -2.6.8c-5.3 3.5 6.1 12.3 2.1 16.9s-32.1 12.4-52.6 12.4-41-13.7-49.9-16.4-21.1-9.6-11.6-15 6.9-25.2-.7-32-12.9-17.9-12.9-25.3-8.1-23.2-18.4-23.2-60.1-3.5-68.9-3.5-24.7-8.1-24.7-22.4-14.2-36.3-22.5-36.3-22.5 8.3-25.9 19.1c-2.5 7.9-11.8 12.2-19.5 12.2a15.3 15.3 0 0 1 -7.8-1.9 15.8 15.8 0 0 0 -8.1-2.1c-6.3 0-12.2 3.3-11.7 9 .8 8.2 19.8 29.3 25.3 40.1s-10.3 14.4-20.5 15.1-13 16.4-25.9 26c-3.8 2.8-7.3 3.9-10.3 3.9-7.4 0-12.1-6.5-11.6-11.4.5-6.9 11-11.7 13-19.9s-.7-20.5-8.8-21.1h-.5c-8.1 0-20.1 15.1-21.4 23.8s11.6 10.9 8.1 17.9c-2.5 4.9-5.5 9.3-9.7 9.3a10.1 10.1 0 0 1 -6-2.5 28.2 28.2 0 0 0 -18.1-6.1 49.6 49.6 0 0 0 -14.7 2.6c-14.3 4.8-8.8 26-2.6 34.1s3.4 19.9-11 24.7a39.2 39.2 0 0 1 -11.6 1.6c-11 0-22.6-3.2-26.8-3.2h-1.2c-3.5 1.3-7.4 10.3-9.4 20.5-1.1 4.8-5.3 6.8-9.5 6.8s-9.1-2.5-8.4-6.1c1.3-6.8 9.6-21.2-2-27.3a19.2 19.2 0 0 0 -8.9-2.4c-6.3 0-10.7 4.5-15 9.2-1.1 1.2-1.9 1.6-2.8 1.6-4.1 0-5.4-13.5-5.4-25.5 0-7.5-10.4-11.2-19.4-11.2s-15.2 2.9-12.6 8.4c4.3 9.3-3.1 18.2-8 18.2a3.2 3.2 0 0 1 -2.9-1.8c-3.3-6.2-45.1-12.9-49.2-15.6s5.4-14.4-8.3-17.7-36.8-2.1-36.8-17.1-25.8-53.3-35.4-64.2c-6.4-7.2-26.6-10.8-41.3-10.8-7.3 0-13.2.8-15.4 2.6a8 8 0 0 1 -4.8 1.7c-6 0-12.3-6.5-15-11.9-1-2.2-5.3-3.8-10.5-3.8-10.9 0-26 6.4-25.7 26.3.6 29.3 35.5 34.8 34.2 43.7s-15.8 11.6-19.9 21.9 2.8 19.7-5.5 19.7-11.6 9.6-4 24.7 68.9 38.8 78.4 41.6 24 41.6 24 51.8 40.9 39.6 46.4 44.4-4.2 12.7-8.8 12.7a2.1 2.1 0 0 1 -2.1-1.1c-1.6-2.8-6.1-5.8-10-5.8s-5.2 1.6-5.8 5.8c-1.4 10.3 28 50.5 34.8 56s15.8 74.4 13.1 87.3-2.8 46.4 0 59.3a14.8 14.8 0 0 0 .3 1.9h1.6l3.3.5c8.9 2.1 12 7.8 13.1 12.3s.5 8.7 0 13.8a79 79 0 0 0 -.5 20.6 281.5 281.5 0 0 0 5.8 32.8 17.6 17.6 0 0 1 2.9-5.8c7.6-10.6 23.5-26 30.5-29.3a11.1 11.1 0 0 1 5.4-1.3c6.8 0 11.1 5.2 15.8 10.8s6.5 7.9 10.4 10.5a128.1 128.1 0 0 1 21.9 20.4c13.1 15.4 13.8 23 13.2 27.3-1.1 8.7-7.7 12.9-12.9 15.2 4.7 9 13.7 23.3 18.4 26.4 2.5-.5 7.2-3.4 10.5-5.5 6.8-4.2 14.5-8.8 23.1-9.3h.7c6.7 0 16.2 4 31.5 34.9 4.5 8.8 12.1 26.4 14.2 37h2.3a14.5 14.5 0 0 1 11.2 5.5c4.3 5.8 3.3 11.9 2.7 15.5a18.1 18.1 0 0 0 -.3 2.3c3.5 3.2 7.1 6.2 10.9 9.2 12.2 9.5 20.5 16.3 23.8 23.5a18.2 18.2 0 0 1 -2 19.4h.4c6 3.6 13.4 8 17 15.1a167 167 0 0 0 19 28.1 19.7 19.7 0 0 0 8.3 1.8 16.5 16.5 0 0 0 6.9-1.5c6.5-9.1 39.8-32.2 53.7-32.2h1.9a16.1 16.1 0 0 1 11.9 7.8 24.5 24.5 0 0 1 1.7 4.5 56.6 56.6 0 0 0 11-6.2c7-4.9 10.2-9.6 10.2-11.9s-3-13.9-5.9-23.4c-6.9-22.4-14.8-47.8-7-64.8 6.7-14.5 15.2-16 23.5-16.2 5.1-.2 9.1-.3 16.7-9.9s12.2-14.2 16.5-19.2c9-9.7 10.5-11.6 10-16.4-.1-2.4-.4-4.5-.6-6.5-1.1-10.4-2-18.7 4.7-27 4.8-5.9 9.7-6.8 13.2-6.8l3.2.2 6.2.3c-1.3-8-3.2-19.1 1.6-28 1.9-3.5 7.6-14.4 51.5-14.4 6.4 0 17.9.3 22.9 2.2a12.3 12.3 0 0 1 7.6 7.8c1.7 6.7-2.5 11.9-7 17.6a50.7 50.7 0 0 0 -5.5 7.4l1.6.2c4.6 1.1 16.8 4 16.8 17.2 0 9.4-5.9 16.6-10.3 22l-2.4 2.9c4.6 3.1 14.8 7 21.1 7 3.1-.3 12.1-7 16.9-10.5 9.1-6.9 17.1-12.9 24.9-12.9s19.3 5.8 26.7 14.4a41.3 41.3 0 0 1 10.5 25.7 50.7 50.7 0 0 1 6.8 1.1 115.8 115.8 0 0 0 30.6 3.9c17.1 0 32.9-3.9 35.2-13.9 3.8-16.4-15.2-34.2-27.8-39.3s-21.6-22.8-13.9-32.9c2-2.8 9.8-3.7 20.8-3.7 30.5 0 85.2 7.6 108.4 7.6z" fill="#fffdf4"/><path d="m2694.5 1522.5c1.8-3.5 6.6-6.1 11.6-6.1a13.6 13.6 0 0 1 4.8.9c6.6 2.3 48 44.1 59.2 48.2a20.2 20.2 0 0 0 6.1 1.1c8.1 0 13.9-6.8 13.6-18.3-.2-14.2-9.1-100.6-26.5-107.3-8.9-3.4-22.1-3.9-33.9-3.9h-17c-4.1 0-7.3-.1-9.2-.6-8.2-1.9 1.3-20.9-10.7-27.1a7.5 7.5 0 0 0 -3.3-.9c-7.3 0-14.2 11.2-27.5 11.2-5.8 0-12.7-2.2-21.6-8.6-31.6-22.7-7.5-54.9-1.9-60.6s19.6-28.4 6.4-37.3-38-30.9-39.9-39.7 12.1-37.9 22.2-53.1 11.9-34.1-8.2-44.9a24.8 24.8 0 0 0 -11.8-2.9c-15.1 0-29.4 12.7-43.4 12.7a9.8 9.8 0 0 1 -2.3-.2c-18.3-1.9-15.1-33.5-16.4-42.3s-19-3.8-17.1-14.5 27.9-36.7 37.3-38.6a3.4 3.4 0 0 1 1.4-.2c8.7 0 14.8 15.4 21.9 15.4s10.8-19 19-19 11.4 9.6 15.1 14.5c1.5 1.9 6.9 2.6 13.7 2.6 10.4 0 24.2-1.4 31.9-1.9 12.6-.6 33.4-17.7 36.5-40.4s-17.7-36.6-27.1-36.6-30.3 23.4-41.6 23.4-32.2-8.9-32.2-15.9 13.8-15.2 13.8-25.9-17-4.4-18.9-14.5 18.9-24 11.9-26.4c-2.5-.9-10.3-1.6-19.7-1.6-17 0-39.1 2.1-42.7 9.1-5.6 10.7 3.1 29.6-.7 32.8a6.9 6.9 0 0 1 -4.2 1c-3.2 0-7.7-.7-11.6-.7s-7 .6-8.9 2.9c-5.1 6.4-3 12.6-1.9 26.5s-8.4 17.4-28.5 42.5-29.2 2.9-38.9 24.1 13.8 68.2 13.8 84.2-27.9 29.6-35.9 29.6a5.8 5.8 0 0 1 -1.4-.3c-5.2-2.4 0-12.7-8.6-13.8h-.7c-9.6 0-40.8 20.9-45.7 28.1-2.5 3.8-8.7 5.5-14.8 5.5s-12.6-1.7-15.5-4.9a179.4 179.4 0 0 1 -20.6-30.5c-4.1-7.9-19-12.6-21.3-17.1s10.4-8 5.8-17.8-32.7-26.9-35-32.7 2.3-11.4-1.2-15.9c-1-1.3-2.4-1.6-4.3-1.6l-5.1.3c-3 0-5.5-.9-5.5-5.7 0-10.3-24.4-66.4-36.6-66.4h-.1c-12.1.6-24.7 14.9-35 14.9s-29.1-36.1-29.7-40 14.2-4.1 15.4-12.6-20.1-30.9-30.9-38.5-16.1-19.7-20.8-19.7a1.9 1.9 0 0 0 -1 .3c-4.6 2.3-19.4 16.1-27 26.4s1.3 36-4.5 36a3.5 3.5 0 0 1 -1.7-.6c-9.2-5.2-17.1-43.5-20-67s6.8-35.4-5.3-38.3a2 2 0 0 0 -1-.2c-11 0-10.6 43.8-19 46.6a5 5 0 0 1 -1.3.3c-7.2 0-12.6-19.6-20.7-19.6a5.9 5.9 0 0 0 -2.1.4c-9.7 3.9-3.3 17.9-6.2 35s14.8 20 14.8 30.9-25.4 21.6-35.1 21.6a8.5 8.5 0 0 1 -2-.3c-7.4-2.2-3.5-22.9-12.1-23.5h-.6c-8.2 0-13.3 13.3-14.3 18.9s17.7 70 24.8 70 4.6-9.8 7.5-14.9a3.1 3.1 0 0 1 2.9-1.8c3.7 0 9.5 5.1 17.3 9.8 10.4 6.2 9.7 39.3 12.2 90.3s-17.9 45.2-17.9 60.1 15 22.1 12.2 29.2a3.6 3.6 0 0 1 -3.6 2.4c-4.8 0-12.5-5.8-15.8-5.8h-.3c-4.2.5-11.8 30.9-16.4 30.9s-8.3-6.4-13.3-6.4a5.9 5.9 0 0 0 -4.5 2.2c-6.6 6.5-13.7 34.3-21.1 34.7s-29.6 3.3-26.8 17.4-5.5 29.6-15 35.7-5.6 32.3 3.4 32.3 14.5 18.8 14.5 27.6-20.6 17-22.1 22.1 3.8 14.6 10.3 14.6 42.7-23.1 61.4-29.2c9.3-3 25.8-4.6 40-4.6s26.4 1.5 27.2 4.6c1.4 6.1-24.4 12.2-22.5 23.1s15.4 15.8 21 29.5 3.4 26.7 3.8 38.4c.3 9.6 12.9 13.8 23.1 13.8a43.5 43.5 0 0 0 6.5-.6 57.1 57.1 0 0 1 12-1.3c10.8 0 22.8 3.2 24 15.4 1.7 17.4-21.5 15.9-22.5 22.5s6.1 15.5 6.1 23.9c0 3.3-3.5 9.4-8 15.8h244.7a16.6 16.6 0 0 1 6.1-11.3 13.4 13.4 0 0 1 8.9-3.2c11.1 0 24.9 11 37.7 11a23.3 23.3 0 0 0 5.9-.8c18.2-5.8 12.4-29.3 24-36.3a6.4 6.4 0 0 1 3.4-.9c14.6 0 48.4 31.4 57.2 31.4h.3c9.4-.6 23.4-32.2 31.5-35.7a3.5 3.5 0 0 1 1.4-.3c7 0 9.6 23 17.3 23.6h.3c7.7 0 5.1-20.4 12.6-22.2h.7c7.4 0 16.4 23.5 23.2 27a17.7 17.7 0 0 0 7.7 2c4.4 0 7.9-2.5 8.7-9 1.2-10.4 10-21.6 17-22.2h.3c6.8 0 14.2 17.6 19.9 17.6h.3c5.8-.6 14-17.6 18.1-18.2h.6c3.3 0 10.7 2.9 15.4 2.9 1.8 0 3.3-.4 3.9-1.7 2.3-4.7 10.6-12.9 8.2-18.7s3.5-17 8.7-17 27.3-5.9 29.6-10.6z" fill="#fffdf4"/><path d="m2068 1615.2c1.1-1.6 3.2-3.6 4.3-5.4a73.3 73.3 0 0 0 7-11 43.6 43.6 0 0 0 -2.6-8.2c-2.1-5-4.2-10.6-3.4-16.6s8.5-10.9 14-13c8.8-3.5 8.7-4.5 8.4-7-.6-5.5-8.1-6.7-14.4-6.7a45.3 45.3 0 0 0 -9.8 1.2 41.2 41.2 0 0 1 -8.6.9 46.4 46.4 0 0 1 -19.7-4.4c-8.2-4.2-12.8-10.9-13.2-18.9 0-3.3 0-6.6.1-10 .2-8.7.3-16.9-3-25.1-2.1-4.8-5.7-8.4-9.6-12.3s-10.7-10.7-12.2-19.3 3.8-14.8 9.9-19.4h-4.8c-14.5 0-29.5 1.6-37 4s-22.5 10.3-34.7 16.7c-18.3 9.7-24.5 12.9-29.7 12.9a19.3 19.3 0 0 1 -15.3-8.1c-3.4-4.5-6.3-11.8-4.4-18.7s6.3-9 12.4-13.1c2.8-1.9 7.7-5.3 9.2-7.2-.3-6.3-3.5-15-5.8-17.1-7.1-.6-12.9-6.3-15.7-15.7s-3.2-27.3 8.1-34.7c6-3.8 12.8-15.4 10.8-25.5a20.2 20.2 0 0 1 3.6-16.3c6.9-9 20.7-11.7 29.7-12.6 2.1-2.6 5-9.3 6.7-13.3 3.5-7.9 6.5-14.7 10.4-18.6a16.3 16.3 0 0 1 11.6-5.1 21.1 21.1 0 0 1 10.1 3.2c1-2.3 2-4.8 2.7-6.8 4.9-12.5 7.8-20 15.8-20.9h3.1a34.7 34.7 0 0 1 -4.4-16.1c0-9 4.5-13.8 8-17.8s11.3-12.4 9.9-41.8q-.4-11.6-.9-21.9c-.7-17.4-1.3-32.7-2.6-43.7s-3.6-16.4-4.1-17l-7.4-4.8h-.3c-1.1 5.4-4.5 13.4-14.8 13.4a12 12 0 0 1 -9.8-5.1c-5.7-6.9-12.1-25.2-16.4-39.3-6.1-19.6-8.9-31.9-8.1-36.8-4.4-2.9-7.4-5.4-8.2-6.7-3.7-6.4-23.2-36.1-36.2-31.5s-18.6 12.9-14 22.2-11 5.7-12 13.9 4.6 18.6 2.7 28.9-15.6 3.6-28.7 15.7-24.1 22.3-18.5 34.3 23.2 29.8 24.2 32.5-6.5 7.4-15.8 2.8-19.6-30.6-35.3-28.7-22.3 10.1-44.5 12.9-44.6 25.9-47.3 31.6-30.6 28.7-39 28.7-27.9-5.5-30.6 9.3 6.5 44.6 7.4 52.8-19.5 9.3-22.2 18.6 10.1 14.9 2.7 22.3-20.4 17.6-35.2 21.4-12.1 26.8-2.8 30.6 13.9 12.9 9.3 22.2-21.3 28.8-34.4 49.1-24.1 54.9-24.1 65 1.9 35.3-3.7 40.8-11.2 25.1-12.1 50.2 9.3 33.4 15.8 39.9 8 13.9 8.1 24.4z" fill="#fffdf4"/><path d="m1516.3 1118.6c1.3-6.2 29.1-33.5 39-40.9s13.6-3.7 30.3-3.7 83-39.6 86.6-50.1 41.5-21 46.4-21 29.8 9.8 37.8 9.3 23.5 1.1 25.4 8.7c1.3 4.9 33.3 18.2 62.9 29.7l3.1-2.9.3-.3a43.4 43.4 0 0 1 22.9-10.9l3-.7a37.4 37.4 0 0 0 -1.4-11.5c-1-4.9-2.2-10-1.6-15.3.8-8 6.9-11.6 11.1-13.5a20.2 20.2 0 0 1 .9-13.7c2.9-7.5 10-13.5 20.5-17.1a17.8 17.8 0 0 1 6.1-1.1c19.1 0 37.8 30.1 41.3 36.2a19.6 19.6 0 0 0 3.2 2.5c3.6-8.6 10.4-17.6 20.9-17.6h1.1c12.2.8 14.4 13.2 15.6 19.9.3 1 .4 2.3.7 3.5 7.4-1.5 19.6-7.8 22.5-11.8a44.9 44.9 0 0 0 -3.6-3.9c-5.1-5.1-13.5-13.3-11.1-28.3a71.3 71.3 0 0 0 .6-15.3c-.3-9.3-.7-21.9 11.6-27a16.7 16.7 0 0 1 5.8-1.2c9.2 0 14.4 7.6 18.6 13.9.7-2.7 1.3-5.6 1.7-8.1a174.6 174.6 0 0 1 4.7-18.6 28 28 0 0 1 5.2-9.2c-.2-1.6-.3-3.2-.6-5-3-14.2-3-49.1 0-63.4.7-3.2.3-17.8-2.6-40.1s-6.4-35.2-8-38.3c-5.2-4.8-14.5-17.2-21.4-27.6-17.3-26-16.3-33.4-15.9-36.6 1.2-8.5 7.1-14.2 15.3-14.2h.1c-26.5-21.2-35.2-31.3-35.2-40.5 0-2.4-2.5-11.9-6.9-22.7s-8.9-18.3-10.8-19.9a351 351 0 0 1 -36.7-14.7c-12.8-1.3-23.8-2.1-31.4-2.1h-4.2a58.7 58.7 0 0 0 -1.4 11.9c-1 12.3-2.2 27.7-14.7 33.2-5.9 2.6-14.3 3.8-28.3 3.8l-13-.3h-6.7l2.6 5.5c2.9 5.9 4.5 9.4 4.9 12.7a15.7 15.7 0 0 1 -3.4 13c-2.4 2.6-6.7 5.8-14.4 5.8a42 42 0 0 1 -6.1-.6c-7-1.2-14.2-6.4-22.8-12.5-4.9-3.5-13.2-9.3-16.1-9.9h-1.1a4.3 4.3 0 0 0 -2.9.8c5.3 10.7 11.3 22.7 4.3 31.6a10.8 10.8 0 0 1 -8.7 4.3c-7.5 0-10.4-6.5-12.5-10.7-.7-1.7-2.4-5.5-3.4-6.2s-22.5-8.9-36.9-8.9c-4.6 0-6.5.7-7 1a25.6 25.6 0 0 1 -11.4 2.8 27.7 27.7 0 0 1 -19.9-9.2 30 30 0 0 1 -8.3-22l.5-6.4c.4-3.9 1.1-11.3.1-13.5h-.7l-3.9-.4c-12.9-1.3-29-3.1-43.7-19.5h-.1c-8.6-9.5-17.6-19.5-24.5-19.5a8.4 8.4 0 0 0 -5.3 1.7c-20.1 12-35.5 17.7-48.6 17.7a29.1 29.1 0 0 1 -6.5-.6c-9.1-1.4-16.2-5.8-21.9-9.3a39.5 39.5 0 0 0 -6.1-3.3 62.4 62.4 0 0 0 -8.4 3.6c-4.5 2.3-8.9 4.5-13.2 5.1h-1.8c-4.6 0-9.1-2.6-16.3-6.8-9.6-5.5-23.8-13.9-38.1-14.8-8.7-.6-20.6-.6-32-.6-32.8-.3-45.9-.7-52.2-4.9a39.3 39.3 0 0 1 -8.5-8.3 16 16 0 0 0 -2.1-2.6 19.9 19.9 0 0 1 -6.4 1c-16.1 0-49.5-19-58.8-26.7-5.6-4.8-8.5-11.4-11.1-17.4a80 80 0 0 0 -3.5-7.2c-10.2 1.7-30 12.3-33.4 15.8s-10.9 8.1-20 8.1a45 45 0 0 1 -23.2-6.4c-2.6-1.6-6.7-3.5-11-5.6-13.1-6-27.8-13-33.1-23.8l-.6-1.1c-5.1-10.3-8.6-17.1-19.6-21.1-18.8-7-43.6-33.3-37.8-54a25.7 25.7 0 0 1 14.2-17.4l2-1.2a2.5 2.5 0 0 0 .1-.8c.6-4-3.1-14.5-5.5-21.7-4.2-11.7-6.6-19.4-5.5-25.6s6.7-12.1 10.2-14.8 4.5-3.5 5.2-6.1-15.7-29.5-15.7-61.5c-.3-48.6 41.8-110.7 41.5-166-.3-41.5-27-77.2-26.8-83.7h-1090.8s.1 711.7.1 722.6c1.4 7.4 74 17.8 139.2 53.7 16.2 9 37.1 12.4 40.2 20.4s11.7 27.3 17.9 29.8 11.8-4.4 17.3-16.1 2.6-24.8 14.4-30.4 38.8 7.4 49.4 6.9 18 3.7 19.8 12.3 5 21.8 21 21.8 36 18.5 37.9 24.6 17.8 16.7 32.7 16.1 30.9 16.1 36.5 24.8 20.4 33.4 32.9 19.8 43.8-16.1 52.5-6.1-1.2 40.7 4.4 40.7 14.8-1.9 17.9 5.7a13.7 13.7 0 0 0 15.4 8.5c5-1.1 8.7-1.8 11.2 7.4s25.4 15 36.6 5.1 16.1 9.9 12.9 12.9-3.7 12.5.7 18.6 43.9 5.7 47-2.5 13.6-4.3 14.2 3.1 25.4 40.9 31.6 42.8 3.7-9.3 3.7-18 9.2-11.2 9.2-5.5 20.5 22.2 29.8 19.7 9.9-16.1 19.9-16.1 42 20.5 48.8 25.4 35.9 1.9 49.5 1.3 40.8-7.4 53.3-8.1 29-11.1 51.9-16.7 29.2 9.9 29.7 21.6-13.6 26.7-8.7 42.8 21.6 24.7 28.5 19.7 6.8-14.2 3.7-22.2 11.8-32.2 21.7-40.3 32.2-28.4 51.3-37.1 48.3 6.8 51.4 11.1 37.8 3.8 47.1 7.4 25.4 22.4 32.1 21.8 19.3-18.6 26.1-24.8 33.3 23.5 33.3 32.8-10.4 14.2-3.7 23.5 31.6 4.9 37.1 4.3 15 15 14.4 21.8-3.8 6.7-6.3 15.9 4.4 10.1 5 15 3 15.4 8.7 10.4 42.6-9.8 56.3-3.6 111.4-3.2 116.9-9.3.7-10.6 1.9-16.7z" fill="#fffdf4"/><path d="m925.3 1059c.2-3 .2-6.1.1-9.1a32.9 32.9 0 0 1 -7.1 1.1c-5.4.2-14.8 1.9-23.9 3.7s-21.7 4-29.3 4.3l-8.6.6c-7 .4-15.7 1-23.5 1-12 0-19.2-1.4-23.7-4.6-9.8-7.3-36.1-22.7-42.9-23.5a18.8 18.8 0 0 0 -2.8 3.4c-2.7 4.1-6.9 10.2-14.7 12.2a14.3 14.3 0 0 1 -4.5.6c-9 0-18.6-6.2-23.5-10l-3.2-2.6c0 4.8-.8 9.1-4 12.6a12.7 12.7 0 0 1 -8.8 3.8 13.5 13.5 0 0 1 -4.1-.7c-2-.6-7.7-2.4-22.9-22.8-7.5-10.2-12.3-18.2-14.3-23.8-7 6.4-20.8 7.8-32.3 7.8-22.6 0-27.1-6.2-28.4-8.2-5.8-8.2-6.5-19.9-2.2-27.6a34.5 34.5 0 0 1 -19.1 5.4c-12.8 0-27.3-6-30.3-17.4v-.3l-4.2.4a23.9 23.9 0 0 1 -21.8-14.5 8.9 8.9 0 0 0 -2.8-.3h-6.3a11.1 11.1 0 0 1 -8.2-3.6c-4.2-4.7-3.7-10.9-2.9-20.3.5-4.8 1.5-17.6-.5-20.3s-4.8-2.8-11.9-2.8c-10.6 0-21.4 3.8-26.3 9.1a19.8 19.8 0 0 1 -15.1 7.1c-15.1 0-26.2-17.5-32.3-27.1l-.8-1.1c-5.5-8.5-18.5-20.4-27.5-20.4h-2.1c-16.9 0-36.9-11.3-40.7-22.7-2.5-4.7-17.9-18.2-28.6-18.2-24.2 0-28.9-21.3-30.5-29.4-.4-1.3-1-4.7-8.4-4.7h-2.6c-5.5 0-12-1.8-19.7-3.9s-15.8-4.3-21.5-4.3a7 7 0 0 0 -3.5.4c-2.7 1.3-3.5 3.5-5 10.9a63.3 63.3 0 0 1 -4.5 14.8c-4.8 10.3-11.9 22.2-23.7 22.2a18.4 18.4 0 0 1 -6.1-1.2c-10-4-18.8-23.5-23.3-35.1-2.5-3-16-8-24.1-11l-10.8-4.1c-9.7-3.7-28.7-12.9-45.4-20.1-37.8-16-89-24.6-90.1-30.2 0 15.8-.1 137.8-.1 137.8s63 64.1 72.2 67.8 56 47.2 56 36.5-1.4-18.7 6.4-18 46.6 30.1 56.7 30.1 13.7 12.1 17.9 22.3 44.4 25.1 53.1 30.7 12.2-4.9 29.3-4.3 28 27.3 40.9 27.3 22.9-11.5 24.4-.8 6.4 19.5 28.7 19.5 12.2 11.4 27.9 17.8 5.8-10 13.6-15.1 31.6 4.4 41.6 11.5 24.4.7 23.7-7.8 7.1-12.2 10.7-7.9 22.9 17.9 37.3 16.4 15.1 10.9 15.1 20.9 22.2 16.4 37.8 27.1 48.1 17.3 53.9 9.5 17.2-11.5 20.7-5.1 3.6 28 11.5 28 23.6-5.1 43.8-5.8 32.2 15.1 42.2 19.4 25.1 1.5 31.6-4.3 11.5-3.6 15 5.1 32.3 2 38 6.3 26.5-3.6 34.3-9.2 18.8 10 24.4 14.3 11.5-23.6 18-37.3-12.9-32.3-16.5-53.8 12.2-42.2 15.1-54.4z" fill="#fffdf4"/><path d="m1322.9 1140.1-.3-.3c-2.3-2.7-7.4-8.5-4.5-19.4a42.3 42.3 0 0 1 4.7-11.2 5.2 5.2 0 0 0 1.1-3.2c-.1-2.5-3.3-8.4-5.6-10.9a106 106 0 0 1 -16.9 1.3c-13.3 0-22-3.2-27-9.8-7.8-10.6-2.7-19.6-.1-24.5a13.5 13.5 0 0 0 2-4.4c-.6-1.7-3.5-7-9.4-13.6a52.7 52.7 0 0 0 -10.4-9.6l-4.5 5.2c-9.9 11.5-16.4 18.6-24.4 19.3h-1.3c-7.4 0-14.2-5.8-23.1-13.2-4-3.3-9.7-8.1-12.3-9.1s-13.5-2.1-20.6-2.6c-18.3-1.5-26.1-2.4-30.5-7.7-2.6-2.3-17.1-10.2-30.4-10.2a21.2 21.2 0 0 0 -9.3 1.8c-14.7 6.5-32.4 21.6-43 30.4l-6.2 5.4c-8.3 6.7-18.3 24.5-18.4 29.7 4.9 13.5 2.1 26.1-7.4 33.1a17.6 17.6 0 0 1 -10.6 3.2c-7 0-15.1-3.5-21.8-10-.7 1.9-1.4 3.6-2.3 5.5-4.1 6.2 28.3 40.9 50.3 40.2s63.1 7.1 77.4 7.8 6.2-15.8 35.4-15.8 19.7 9.6 27.5 10.3 55.3 6.2 82.9-2.3 41.7-10.3 48.8-10.3c4.4 0 7.7 2.3 12.5 3.6a34.8 34.8 0 0 1 -2.3-8.7z" fill="#fffdf4"/><path d="m2364.1 226.7c0-26.2 19.5-43.6 26.1-63.4s46-52.3 28.4-78.6c-12.5-18.7-23.9-56.7-39-84.7h-1275.8s29.1 42.2 29.1 88.1c0 53.6-43.1 112.2-43.7 161.6-.4 33.8 12.8 61.2 12 64.1-3.2 11.2-13.6 11.2-15.2 20s12.8 35 11.2 46.9-12.8 6.3-16.7 20.7 16.7 36.6 31.8 42.2 19.8 16 25.5 27 30.2 19.2 40.6 25.5 26.3 6.4 30.2.8 28.7-18.3 40.6-19.9 11.9 19.1 21.5 27.1 46.1 27.9 55.7 23.8 12 7.3 19.1 12.1 54.1 2.3 79.7 3.9 48.4 22.3 54.1 21.4 14.2-7.1 21.5-8.7 16.6 10.3 31 12.8 32.6-6.4 48.6-16 28.6 4.8 42.1 19.9 27.8 15.1 41.5 16.7 9.4 17.6 8.7 30.3 12.7 25.4 25.5 19 47.7 4.1 54.1 8.9 8 18.3 11.2 14.3-1.6-13.6-5.7-21.6 4.1-15.8 14.4-14.2 29.4 20.6 39 22.2 13.5-1.6 12.8-7.1-14.4-26.3-8.9-28.7 42.2 2.4 55-3.2 5.5-36.6 13.5-44.6c1.6-1.4 8.6-1.7 18.9-1.3-16.9-9.5-21.8-15.8-23.8-20-6.1-12.2-6.9-23.1-2.2-30.6a15.6 15.6 0 0 1 9.3-7.2 36.2 36.2 0 0 1 2.1-14.6c3.1-7.6 9.2-12 14-15.5l3-2.2-3-2c-10.8-6.8-28.5-18.1-29-41.9-.3-13.2 4.9-21.3 9.2-25.8a36.3 36.3 0 0 1 26-10.5c9.4 0 16.5 3.4 19.4 9.2a16 16 0 0 0 5.9 6.2c2.9-1.9 8.2-4.2 20.8-4.2s38.5 3 48.4 14.4c7.8 8.7 38 50.3 38 70.5 0 .7 0 1.1 2.3 2.3s9.6 2.3 15.2 3.2a77.9 77.9 0 0 1 11.9 2.1c8.9 2.2 12.5 7.3 13.9 11.2a19.9 19.9 0 0 1 1.1 8.7l8.8 2.2c17.8 4.2 27.9 7 33.7 10.3a3.4 3.4 0 0 0 -.5-1.7 14.2 14.2 0 0 1 .6-13.7c4.8-7.5 15.1-8.7 20.9-8.7 17.3 0 29.1 8.7 29.1 20.9 0 3.5.2 6.4.3 9a22.7 22.7 0 0 1 13.2-4.2 30.6 30.6 0 0 1 13.5 3.6 20.7 20.7 0 0 1 11.2 16.4c2.3-4.6 5.7-8.8 9.9-10.6a13.6 13.6 0 0 1 4.9-.8 48.2 48.2 0 0 1 9.3 1.1 93.6 93.6 0 0 0 17.4 1.9 31.1 31.1 0 0 0 8.6-1c3.7-1.3 6.5-3.4 7.1-5.4a4.5 4.5 0 0 0 -.9-4c-6.1-8.2-10.6-23.1-7.1-34.6a23 23 0 0 1 14.5-14.8 55.3 55.3 0 0 1 18-3 35.9 35.9 0 0 1 19.4 5.1c-19.3-25-50.3-53.1-62.1-53.1-17.5 0-43.8-65.6-32.8-74.3a12.2 12.2 0 0 1 7-1.8c20 0 69.6 21.4 84.7 21.4 17.6 0 37.2-21.8 35-39.3s-35-28.5-35-41.5 50.4-43.7 50.4-70z" fill="#fffdf4"/><path d="m2874.7 0h-482.8c6.1 12 11.5 25.4 17 38.4 6.5 16 12.8 31.1 18.9 40.2 16.1 24.4-2.2 50.5-15.7 69.5-4.9 7-10 14.2-11.5 18.7-2.7 8.4-7.4 16.1-11.9 23.5-7.1 11.8-13.8 23-13.8 36.4 0 20.1-18.5 38.1-34.8 54-5.5 5.4-12.7 12.5-14.9 16.1 1.7 2.5 7.2 6.8 10.7 9.4 10.3 8 21.9 17 23.7 30.7 1.4 11.3-3.2 23.9-12.7 34.5s-21.7 17.1-33.2 17.1c-8.2 0-20.7-3.9-40.3-10.2-14.9-4.7-33.5-10.5-43.1-11.1.3 5.1 2.5 15.2 8.1 28.1 7.3 16.8 14.5 24.7 17 26 15.7.6 39.5 23.1 52.4 36.7 1.9 1.9 4 4.3 6.7 7.2 4.2-12.1 17.2-27.5 29.7-27.5h1.3a19.2 19.2 0 0 1 13.5 8c5.4 7.4 5.9 18.1 4 25.3s-5.9 11.1-9.2 14.7a35.9 35.9 0 0 0 -3.2 3.6 2 2 0 0 0 1.6.7 7.1 7.1 0 0 0 4.5-2c4.5-3.2 7.5-7.8 10.6-12.2 4.7-6.9 10.1-14.9 20.4-15.5a39.2 39.2 0 0 0 11.6-2.3 135.5 135.5 0 0 0 -9.7-14.1c-9.3-12.9-15.1-21.2-15.7-28.4a16.1 16.1 0 0 1 4.4-12.6 23 23 0 0 1 17.1-7 24.7 24.7 0 0 1 13.2 3.8l2.6.4c4.5 0 9.3-2.5 10.2-5.4 4.6-14.8 22.5-25.9 35.2-25.9 16.4 0 32.4 29 32.4 46 0 7.8 10.4 12.7 14.8 12.7s17.7.7 32.9 1.6 30.9 1.8 36 1.8c17.2 0 28.1 21.6 28.1 33 0 4.2 4.1 12.8 9.9 18s11 18.4 9.7 29.5a25.6 25.6 0 0 1 -5.5 13.9l4.3 1.6a76.8 76.8 0 0 1 11.4 4.9c9.8 4.7 23.2 11.1 35.6 11.1a133.3 133.3 0 0 0 42-7.7 38.6 38.6 0 0 1 -2.5-6.4 13 13 0 0 1 5.8-13.8 14.5 14.5 0 0 1 7.8-2.3c9.2 0 17.5 8 21.1 16.8 11.6-1 34.4-9.4 38.3-13.2s7.5-4.2 15.5-4.2c14.9 0 46.3 3.5 80.5 13.2z" fill="#fffdf4"/><path d="m1763.6 1098.8a83.6 83.6 0 0 0 23.5-6.9 74.2 74.2 0 0 1 21.1-6.2h2.7a26.3 26.3 0 0 1 15.5 5.5c-4.6-12.7 1.8-23.3 10.8-32.9l-18.5-7.4c-38.5-15.7-44.2-20.9-46.1-26.6a31.3 31.3 0 0 0 -12-2.4h-5c-6.1 0-14.6-2.5-26.1-6.1l-10.9-3.2c-7.2 1-33.2 9.7-37.2 14.9-1.3 3.4-4.4 7.9-16 16.6-8.6 6.1-17.5 11.9-26.7 17.2-11.4 6.9-39.6 22.5-53.1 22.5-5.2 0-9.3-.4-12.6-.6l-5.1-.4c-2 0-3.3.1-6.8 2.8-9.7 7.2-31.5 29.3-35.3 35.4.2.5.3 1.3.5 2.1.7 4 2.2 11.2-4.5 18.7-2.5 2.7-5.7 6.3-43.4 10.6a573.8 573.8 0 0 1 -60 4c-16.4 0-22-1.6-25-2.9s-5.2-2.1-15.4-2.1c-13.9 0-27.5 2.9-30.7 4.5a13.8 13.8 0 0 1 -8.9 3.5l-2.4-.3-4.7.3a35.7 35.7 0 0 1 -14.5-3.2 17.9 17.9 0 0 0 -4.1-1.3c-6.8 0-20.1 1.7-45.9 9.9-11.1 3.5-26.2 5.2-44.4 5.2a395.3 395.3 0 0 1 -40.8-2.3h-1.5a14.6 14.6 0 0 1 -11.7-8l-.3-.4c-.7-.5-3.9-1.8-14.6-1.8s-14.4 2.8-17.3 6.4-7.3 9.4-17.3 9.4h-1.4c-5.5-.3-14.1-1.4-24.3-2.9-15.9-2.1-35.6-4.9-49.1-4.9h-4.1c-22.8 0-49.5-25.7-56.9-38.9-3.4-6.2-3.7-11.6-1.1-16.1a93.1 93.1 0 0 0 3.6-9.4 45.9 45.9 0 0 1 -4.1-9c-3.9-12.9.8-24.4 4.7-33.7 1.9-4.3 3.8-8.8 3.6-11.4-.7-13.7-8.5-13.7-11-13.7a37.5 37.5 0 0 0 -6.7 1.1 190.5 190.5 0 0 0 -27.3 9.2c-3.4 1.3-6.6 2.6-9.8 3.7.6 10.7.1 12.7-.2 14.2a86.5 86.5 0 0 1 -6.2 15.5c-4.9 10.9-10.7 23.2-8.7 35.1 1.3 7.7 5.2 15.4 9 22.9 6.1 12.1 12.5 24.5 6.7 36.6a161.5 161.5 0 0 0 -6 15.9c-5.4 16-9.1 27.5-19.6 27.5a11.4 11.4 0 0 1 -7.1-2.5 40.3 40.3 0 0 1 -6.4-6 48.8 48.8 0 0 0 -7.9-7.1c-7.6 5-22.7 11.4-33.6 11.4h-.7a17.6 17.6 0 0 1 -9.3-2.7l-4.9-.2h-9.9c-8.5 0-22.7 0-27.2-10.9l-.3-.8c-6.3 5.1-16.1 8.2-26 8.2h-1a35.9 35.9 0 0 1 -14.1-2.9 74.5 74.5 0 0 1 -12-7.4c-7.4-5.5-15.1-11.2-25.1-11.2h-1a187.4 187.4 0 0 0 -28.9 3.8 100.6 100.6 0 0 1 -15.2 2c-13.1 0-16.1-15.1-18-25.1-.5-1.7-.9-4.1-1.3-5.8a11.5 11.5 0 0 0 -5 3.9c-3.6 5.1-10.3 7.6-19.5 7.6-15.1 0-35.6-6.3-47.6-14.5a184.9 184.9 0 0 0 -16.1-9.2c-13.5-6.9-26.3-13.5-26.3-26.1 0-8.3-.9-10.4-1.4-11h-6c-13.3 0-28-8-36.4-14.5a19.4 19.4 0 0 1 -4.6 9 25.7 25.7 0 0 1 -18.2 7.8h-.6a26.3 26.3 0 0 1 -15.3-4.9c-7.1-5-21.8-11.1-29.6-11.1h-.2c0 .6-.1 1.2-.1 1.8a25.2 25.2 0 0 1 -1.5 8.1 13.6 13.6 0 0 1 -12.4 8.1 21.8 21.8 0 0 1 -9.5-2.3 28.7 28.7 0 0 1 -15.4-13.9 13.5 13.5 0 0 0 -1.4-2.2c-.3-.1-1.9-1-7.4-1-20.9 0-33.1-7.3-37.3-22.1a45.7 45.7 0 0 1 -15.8 3.4c-10.2 0-17.6-7.7-24.7-15.1s-11.3-11.9-16.5-12h-1.3a27.2 27.2 0 0 0 -11.8 3 23.2 23.2 0 0 1 -11 3 17.8 17.8 0 0 1 -10.3-3.3c-2.2-1.4-8.2-4.2-14.2-7.1-23.1-10.7-38.3-18.4-42.5-28a32 32 0 0 0 -1.6-3.9c-1.7-4.4-5.1-12.3-7.3-12.3-7.5 0-17.8-6-37.8-18.6-4.9-3.1-11.2-7-15.5-9.4v5.9a11.1 11.1 0 0 1 -10.6 11.5h-.8c-7.4 0-16.5-6.7-38.5-24.4-7-5.5-16.6-13.2-19.3-14.5s-38.6-29-68.8-59.1v724.7h1008.4c-3.4-41.2-5.5-76.8-2.5-77.4 6.8-1.1 7.4-12.1 2.5-12.7h-.5c-3.4 0-11.7 3.6-18.2 3.6-3.9 0-7.1-1.3-8.3-5.5-3-11.6 8.6-22.8 3.6-22.8s-20.1-4.2-22-22.6 14.6-12.9 17.8-20.9.6-21.5.6-29.5 2.5-14.2-12.3-14.8-45.4-14.6-57.8-22.6 9.9-34.4 9.9-41.8c0-1.1.3-1.6.9-1.6 2.3 0 9.4 9.2 17.5 9.2a11.4 11.4 0 0 0 6.3-2c12.1-8.6 1.3-30.1 10.4-32a31.5 31.5 0 0 1 5.8-.4c12 0 33.2 3.5 37.9 3.5s17.1-10.5 11.6-11.6-20.3-5.5-16.6-11 2.4-11.8-3.7-11.8a8.6 8.6 0 0 0 -3.7.7 20.4 20.4 0 0 1 -7.4 1c-10.1 0-23.5-4-23.9-8.4s-11-17.8-19.6-18.4-20.3-6.1-15.4-26.4 33.8-25.8 36.3-33.8-13.5-28.9-4.3-28.9 31.9 28.3 37.4 33.3c2.6 2.3 5.5 3.9 7.8 3.9s4.2-2.2 3.2-7.7 2.5-9.6 7-9.6a13.6 13.6 0 0 1 7.2 2.3c6.3 4.4 12.9 25.1 19.6 34.4 4.1 5.7 18 11.6 28 11.6 6.5 0 11.5-2.5 11.3-9.1-.3-9 1.5-12.6 4.7-12.6s7.2 3 12.4 7.6c11.1 9.9 8.7 19.6 3.1 24.6s1.9 13.4 3.8 19.5 0 16-.6 33.3c-.5 14.5 32.2 16.6 54.7 16.6h13.3c16.4 0 39.9 6.2 74.7 6.2 8.6 0 17.9-.4 27.9-1.3 7.1-.7 13.9-1 20.6-1 42.6 0 76 12.2 81.2 17s3.1 11.9-2.3 11.9l-1.9-.3c-2.9-.9-5.8-2.3-8-2.3s-5 2.7-4.3 14c1.3 19.8-38 54.6-44.3 61.4s-38 7.3-47.8 8.6-22.1 24.5-25.7 38.6 14.6 39.9 24.5 48.6 19 28.1 30.6 28.1 10.5-17.1 9.9-27.6 8.5-14 13.5-19.5-1.2-11.8-1.2-22.8c0-6.1 7-8.4 15.2-8.4a51.8 51.8 0 0 1 19.8 4c11.7 5.5 13.5 66.3 13.5 75s17.8 26.4 20.4 41.1c.6 2.9 1 10.3 1.8 19.6h163.9a26.8 26.8 0 0 0 -6.4-17.5l-1.2-1.2c-6.9-6.7-18.4-18.1-17.4-46 1.2-31.2 8.5-49.6 14.4-56.1 2-4.4 1.6-21.2 1.5-27.6 0-2.6-.2-4.9-.2-6.8 0-13.1 12.5-49.5 25.7-70.2 6.7-10.5 14.1-20.3 20.6-29.2s11.3-15.2 13.2-19.1a6 6 0 0 0 .6-4.7 7.8 7.8 0 0 0 -4.7-4c-10-4.1-14.5-16.4-13.8-26.6s7.6-20.2 17.9-22.6c13.2-3.4 24.6-13.2 29.4-17.6l-.5-.8c-2.2-4-6-10.3-3.5-18.6s11.1-12.6 17.5-15.5l3.9-1.9c-.4-2.1-1-4.8-1.7-7.7-3.2-13.8-7.4-32.8-5.1-45.3 1.3-6.8 6.3-18.2 25.6-18.2a80.4 80.4 0 0 1 9.8.5l4.4.5c6.5-1.9 27.4-18.9 30.9-23.7 3.9-7.8 28.1-33.3 54.5-36.5z" fill="#fffdf4"/><path d="m2205.4 1423.7c8.7-21.6 28.2-58.4 41.2-80.2 7.5-12.6 37.4-84.7 66.8-153.1-4.9-2.9-9.8-5.5-11.1-7.9s10.3-8 5.8-17.7-32.7-27-35-32.7 2.3-11.4-1.2-16.1-14.9 3.5-14.9-6.8-24.5-67-36.6-66.4-24.6 14.8-34.9 14.8-29.2-36-29.8-40.1 14.3-4 15.4-12.6-20-30.9-30.9-38.3-17.1-21.8-21.7-19.6-19.5 16.1-27 26.4 2.9 40.6-6.3 35.6-17.1-43.6-20-67.1 6.8-35.5-5.2-38.4-11.5 43.5-20 46.4-14.4-22.9-24.1-18.8-3.3 17.7-6.2 34.9 14.8 20 14.8 30.9-29.8 23.5-37.2 21.2-3.5-22.9-12-23.5-13.8 13.2-15 18.9 17.7 70 24.8 70 4.7-9.7 7.6-14.9 9.7 1.9 20.1 8 9.8 39.4 12.2 90.5-17.8 45-17.8 60 14.9 22.1 12.2 29.1-15.5-3.8-19.8-3.4-10.4 26-15 30.3c5.2 14.8 8.7 32 11.6 47.3 5.3 29.3 14 59.8 50.9 66.2s78 26.1 93.3 34.8 56.3 14.1 65-7.7z" fill="#845567"/><path d="m1772.3 1024.3c-1.7-1.1-6.9-2.4-13-2.4h-3.9a69.9 69.9 0 0 1 -8-1 141.9 141.9 0 0 0 29.7 39.6c15.1 14 33.1 5.6 44.3-8.6l-2.9-1.2c-38.6-15.6-44.4-20.8-46.2-26.4z" fill="#845567"/><path d="m426.2 886.5c5.5 8.7 20.3 33.5 32.8 19.9s44-16.1 52.5-6.2-1.1 40.9 4.4 40.9 14.8-1.9 18 5.5a13.8 13.8 0 0 0 15.3 8.7c5.1-1.3 8.7-1.9 11.2 7.4s25.4 14.8 36.6 4.9 16.1 9.9 13 13.1-3.8 12.3.6 18.5 44 5.6 47-2.4 13.6-4.4 14.2 3 25.4 40.9 31.6 42.7 3.7-9.3 3.7-17.9 9.3-11.1 9.3-5.6 20.4 22.3 29.7 19.8 9.9-16.1 19.9-16.1 42 20.5 48.9 25.4 35.8 1.9 49.4 1.2 40.8-7.4 53.3-8 29-11.2 51.9-16.7 29.2 9.9 29.7 21.6-13.6 26.6-8.7 42.7 21.7 24.8 28.5 19.9 6.8-14.2 3.7-22.4 11.8-32.2 21.7-40.2 32.2-28.4 51.3-37.1 48.3 6.8 51.4 11.2 37.8 3.6 47.1 7.4 25.4 22.3 32.2 21.6 19.2-18.6 26-24.7 33.4 23.5 33.4 32.8-10.5 14.2-3.8 23.5 31.6 5 37.1 4.4 15 14.8 14.4 21.6a32.7 32.7 0 0 1 -1 4.5 49.1 49.1 0 0 0 12 9.8c16.3 8.8 88.9 18.5 122.6 4.4s30.3-36.8 57.4-57.4 138.7-78.1 172.4-79.3 40.5 6.9 45.8 20.9c5.5 1.5 10.6 2.6 13.4 2.4 8.1-.6 23.5 1.3 25.4 8.7 1 4 22.2 13.5 45.8 23 9.1-10.4 23.5-17.7 45.1-18.8 0-.2 0-.5-.1-.6-1-4.9-2.2-10.2-1.6-15.4.9-8.1 6.9-11.7 11.2-13.5a19.9 19.9 0 0 1 .8-13.8c2.9-7.5 10-13.3 20.5-17.1a17.7 17.7 0 0 1 6.1-1c19.1 0 37.8 30.2 41.3 36.3l3.2 2.3c3.6-8.4 10.5-17.4 20.9-17.4h1.2c12.1.9 14.3 13.2 15.5 19.9.3 1 .4 2.4.7 3.6 7.4-1.5 19.6-7.9 22.5-11.9l-3.6-3.9c-5.1-5-13.5-13.4-11.1-28.2a61.8 61.8 0 0 0 .6-15.5c-.3-9.1-.7-21.8 11.8-26.8a12 12 0 0 1 5.6-1.2c9.2 0 14.4 7.5 18.7 13.9.6-2.7 1.2-5.8 1.8-8.2a131.3 131.3 0 0 1 4.5-18.5 28 28 0 0 1 5.2-9.2 42.6 42.6 0 0 0 -.6-5c-3-14.2-3-49.2 0-63.4.7-3.3.3-18-2.6-40.2s-6.4-35.1-7.8-38.4c-5.4-4.8-14.7-17.1-21.6-27.6-17.3-25.8-16.3-33.2-15.9-36.4 1.2-8.7 7.2-14.3 15.3-14.3h.1c-26.5-21.1-35.2-31.4-35.2-40.4 0-2.6-2.3-11.9-6.8-22.7s-9-18.3-10.9-19.9c-12.5-4.4-24.7-9.3-36.7-14.8-12.8-1.3-23.8-2.2-31.4-2.2h-4.2a80.2 80.2 0 0 0 -1.4 12c-1 12.4-2.2 27.8-14.7 33.3-5.9 2.6-14.3 3.6-28.3 3.6h-19.7l2.6 5.5c2.9 5.8 4.5 9.4 5 12.6a16.2 16.2 0 0 1 -3.5 13.1c-2.4 2.6-6.7 5.6-14.4 5.6a31.4 31.4 0 0 1 -6.1-.5c-6.9-1.1-14.2-6.3-22.8-12.4-4.9-3.4-13.2-9.4-16.1-9.8h-1.1a6.9 6.9 0 0 0 -2.9.7c5.3 10.7 11.3 22.9 4.3 31.6a10.9 10.9 0 0 1 -8.7 4.5c-7.5 0-10.4-6.5-12.3-10.9a52.1 52.1 0 0 0 -2.8-5.2c9.3 30.6 15.8 64.9 9.5 104.9-14.7 91.5-119.1 144.6-128.9 150.1s-84.5 11.9-151.8 19.5-105.2 18.4-167 21.7-65-9.7-153.9-10.8-152.1 31.9-214.5 17.2-96-21.4-169.7-19.8-122.4 34.8-131.1 34-52.7-44.6-78.2-62.2c-20.6-14.1-79.8-27.4-141.6-33.5a85.3 85.3 0 0 1 6.5 8.1z" fill="#845567"/><path d="m2254.8 431.9c-5.9 0-12.9-7.6-19-18-17.1 19.1-39.3 48.1-50.8 52.1-16.2 5.3-93.2-16.3-141.7-34.1s-78.9-59.2-181-66.5-136.4 114.9-143.5 175.9c-3.9 32.2 11.2 64.8 23.9 102.7a40.9 40.9 0 0 1 9.3 4.2c6.4 4.8 8 18.4 11 14.3s-1.6-13.5-5.5-21.4 4.1-16 14.4-14.4 29.4 20.7 39 22.3 13.5-1.6 12.6-7.2-14.2-26.3-8.7-28.6 42.2 2.3 55-3.2 5.5-36.5 13.5-44.5c1.6-1.6 8.6-1.9 18.9-1.3-16.9-9.7-21.8-16-23.8-20.2-6.1-12-6.8-22.9-2.2-30.5a17.8 17.8 0 0 1 9.3-7.3 34.7 34.7 0 0 1 2.2-14.6c3-7.5 9.1-12 13.9-15.5l3-2.2-3-2c-10.8-6.7-28.5-18.1-29-41.9-.3-13.1 4.9-21.3 9.3-25.8a36.4 36.4 0 0 1 25.9-10.5c9.4 0 16.6 3.4 19.5 9.2a16 16 0 0 0 5.8 6.3c2.9-2 8.2-4.2 20.9-4.2s38.4 3.1 48.3 14.3c7.8 8.8 38 50.4 38 70.6 0 .7 0 1.2 2.3 2.2s9.6 2.4 15.2 3.3 8.1 1.2 11.9 2c8.9 2.2 12.5 7.4 13.9 11.4a18.4 18.4 0 0 1 1.1 8.7l8.8 2c17.9 4.3 27.9 7.1 33.7 10.3a2.8 2.8 0 0 0 -.5-1.6 14.3 14.3 0 0 1 .6-13.6c4.8-7.6 15.1-8.7 20.9-8.7 17.1 0 29.2 8.5 29.2 20.9 0 3.3.1 6.3.2 8.8a24.5 24.5 0 0 1 13.3-4.1 26.2 26.2 0 0 1 13.4 3.7 20.7 20.7 0 0 1 11.2 16.4c2.3-4.8 5.7-9 9.9-10.8a13.6 13.6 0 0 1 4.9-.8 59 59 0 0 1 9.3 1.1 93.8 93.8 0 0 0 17.4 2 27.8 27.8 0 0 0 8.6-1.1c3.7-1.2 6.5-3.2 7.1-5.4a4.5 4.5 0 0 0 -.9-4c-6.1-8.2-10.6-23-7.1-34.4a21.8 21.8 0 0 1 14.5-14.8 55.5 55.5 0 0 1 18-3.2 36.8 36.8 0 0 1 20.6 5.8c-19.3-25.3-50.9-54.1-63-54.1z" fill="#845567"/><path d="m2647 410.5c-10.8 0-18.3-13.9-19.5-20.7s-11.4-9.1-19.4-9.1-25.1-18.3-38.8-34.3-18.4-20.4-59.7-20.4c-89.7 0-125.5 28.7-161.3 50.3s-80.9 14.2-95.2 21.5a51.2 51.2 0 0 0 -9.6 7.8c5.4 9.6 10 14.4 11.9 15.2 15.7.6 39.5 23.3 52.4 36.8l6.5 7.1c4.5-12.1 17.4-26.9 29.6-26.9h1.3a18.2 18.2 0 0 1 13.5 7.9c5.4 7.5 5.9 18.1 4.1 25.3s-6 11.2-9.3 14.8c-1.2 1.2-2.2 2.4-3.2 3.5a1.9 1.9 0 0 0 1.6.9 10.8 10.8 0 0 0 4.5-2c4.5-3.4 7.5-7.9 10.6-12.4 4.8-6.9 10.1-14.8 20.4-15.5a35.7 35.7 0 0 0 11.6-2.3 153 153 0 0 0 -9.7-14.1c-9.3-12.9-15.1-21-15.7-28.3a16.6 16.6 0 0 1 4.4-12.7 25.3 25.3 0 0 1 30.3-3.2 4.9 4.9 0 0 0 2.6.4c4.5 0 9.3-2.5 10.2-5.2 4.6-15 22.5-26 35.2-26 16.4 0 32.4 29 32.4 45.9 0 7.8 10.4 12.7 14.8 12.7s17.7.7 32.9 1.6 30.9 1.9 36 1.9c17.2 0 28.1 21.6 28.1 32.9 0 4.4 4.1 12.8 9.9 18s11 18.6 9.7 29.6a29.5 29.5 0 0 1 -2.2 8.6c25.6-25.6 48.3-58.8 53.4-80.5 7.4-31.7-13.5-29.1-24.3-29.1z" fill="#845567"/><path d="m2057.1 891.9a6.3 6.3 0 0 0 .3 1.9h1.6a12.4 12.4 0 0 1 3.3.4c8.9 2 12.1 7.8 13.1 12.2s.6 8.7 0 13.9a83.6 83.6 0 0 0 -.5 20.6 274.2 274.2 0 0 0 5.8 32.8 16.7 16.7 0 0 1 2.9-5.8c7.6-10.6 23.5-26 30.5-29.4a11.1 11.1 0 0 1 5.4-1.3c6.8 0 11.1 5.3 15.8 11s6.5 7.8 10.4 10.4a125.3 125.3 0 0 1 21.9 20.5c13.1 15.2 13.8 22.9 13.2 27.3-1.1 8.7-7.6 12.7-12.9 15 4.7 9 13.7 23.4 18.5 26.4 2.4-.5 7.1-3.3 10.4-5.3 6.8-4.2 14.5-9 23.1-9.3h.7c6.7 0 16.2 4.1 31.5 34.8 4.5 8.9 12.2 26.4 14.2 37h1.4a14.5 14.5 0 0 1 12.1 5.5c4.3 5.8 3.3 11.9 2.7 15.5a19.7 19.7 0 0 0 -.3 2.4c3.5 3.1 7.2 6.2 10.9 9.1 12.2 9.6 20.5 16.4 23.8 23.4a18.2 18.2 0 0 1 -2 19.4l.4.3 2.1 1.1c19.8-45.9 39.1-88.9 50.6-108.9 29.3-51.1 66.1-81.4 91.1-108.5s22.8-46.6 8.7-66.2c-65.4-90.5-103-174.5-104.2-203.8s69.4-95.3 90.1-108.4 91-16.2 127.8-36.8a141.4 141.4 0 0 0 24.1-17.3c-4.6-3-7-6.9-1.2-10.3 9.6-5.3 6.9-25.2-.7-32s-12.9-17.7-12.9-25.3-8.3-23.2-18.4-23.2-60.1-3.3-68.9-3.3-24.7-8.3-24.7-22.7-14.3-36.1-22.5-36.1-22.5 8.1-25.9 19.2-19.8 14.9-27.3 10.1-20.5-1.3-19.7 6.8 19.7 29.5 25.2 40.4-10.3 14.3-20.5 14.9-13 16.4-25.9 26-22.7-.7-21.9-7.6 10.9-11.6 13-19.7-.7-20.4-9-21.2-20.4 15.1-21.7 24 11.6 10.8 8.1 17.7-8.1 12.9-15.7 6.8-18.4-8.1-32.8-3.4-8.8 25.9-2.7 34.1 3.5 19.8-10.9 24.6-36.1-2.8-39.6-1.3-7.4 10.1-9.6 20.4-19 7.5-17.7.7 9.6-21.1-2-27.4-17.7 0-23.9 6.8-8.2-9.4-8.2-23.8-37.5-14.3-32-2.7-7.6 22.5-11 16.4-45-13.1-49.1-15.7 5.4-14.4-8.2-17.8-36.9-2.1-36.9-17-26-53.2-35.5-64.3-49.8-13.6-56.6-8.1-16.4-3.5-19.7-10.3-37-6.8-36.3 22.6 35.5 34.9 34.1 43.7-15.7 11.6-19.8 21.8 2.8 19.8-5.5 19.8-11.6 9.6-4 24.6 68.9 38.8 78.5 41.6 23.9 41.6 23.9 51.9 40.9 39.6 46.4 44.4-8.3 16.3-11 11.6-14.2-10.3-15.7 0 28 50.5 34.8 55.9 15.9 74.4 13.1 87.4-2.8 46.2 0 59.1z" fill="#eebfaf"/><path d="m1957.1 1151.6c2.2 65.1-10.8 87.9 7.6 100.8 5.6 4.1 10.4 10.3 14.3 17.8l1.2.8 2.6-6.9c5-12.4 7.9-20 15.8-20.8h3.1a35.4 35.4 0 0 1 -4.4-16.2c0-8.9 4.5-13.9 8-17.8s11.3-12.3 9.9-41.8c-.3-7.7-.6-14.9-.9-21.9-.7-17.5-1.3-32.6-2.6-43.6-1.5-13.4-3.6-16.6-4.1-17.2l-7.4-4.6h-.3c-1.1 5.4-4.5 13.3-14.8 13.3a12.4 12.4 0 0 1 -9.8-5.2c-5.7-6.8-12.1-25.1-16.4-39.3-6.1-19.4-8.9-31.9-8.1-36.8-4.4-2.9-7.4-5.3-8.2-6.6-3.7-6.5-23.2-36.1-36.2-31.6s-18.6 13.1-14 22.3-11 5.6-12 14c-.4 4.5.9 9.5 2 14.8l11.8.8c38 4.2 60.8 60.7 62.9 125.7z" fill="#eebfaf"/><path d="m925 1059a54 54 0 0 0 .1-9 32.9 32.9 0 0 1 -7.1 1c-5.4.3-14.8 2.1-23.9 3.7s-21.6 4-29.3 4.3l-8.6.6c-7 .4-15.7 1-23.5 1-12 0-19.1-1.3-23.6-4.6-9.9-7.1-36.2-22.7-43-23.5a18.8 18.8 0 0 0 -2.7 3.6c-2.8 4.1-7 10-14.8 12.2a24.2 24.2 0 0 1 -4.5.6c-9 0-18.6-6.4-23.5-10.2l-3.2-2.6c0 4.8-.8 9.3-3.9 12.6a12.3 12.3 0 0 1 -8.9 3.8 14.5 14.5 0 0 1 -4.1-.6c-2-.7-7.6-2.3-22.9-22.8-7.5-10.3-12.3-18.3-14.3-23.9-7 6.4-20.8 8-32.2 8-22.7 0-27-6.4-28.5-8.4-5.8-8.2-6.5-19.9-2.2-27.5a36.8 36.8 0 0 1 -19.1 5.4c-12.8 0-27.3-6.1-30.3-17.5v-.3l-4.2.4a23.6 23.6 0 0 1 -21.8-14.5 8.4 8.4 0 0 0 -2.7-.2h-6.4a11.1 11.1 0 0 1 -8.2-3.6c-4.2-4.5-3.6-10.7-2.9-20.1.5-4.8 1.5-17.7-.7-20.5s-4.6-2.6-11.7-2.6c-10.6 0-21.4 3.6-26.3 9a20.2 20.2 0 0 1 -15.1 7.2c-15.1 0-26.2-17.7-32.3-27.1l-.8-1.2a58.7 58.7 0 0 0 -14.5-14.9c-9.7-.7-19.4-1.3-29.1-1.6-76-2.6-63.8 64.1-53.3 86.6s48.8 25.3 95.9 39.9 72 50.5 116.2 60.8 97.1 9.3 174 20.7 152.4 64 186.1 65.9c10.3.7 21 1 31.9 1.2-4.3-10.8-12.9-23.2-15.2-36.9-3.6-21.5 12.2-42.2 15.1-54.4z" fill="#eebfaf"/><path d="m982.9 1126.3c-3.5-6.2-4-11.6-1.4-15.9a69.7 69.7 0 0 0 3.8-9.5 43.4 43.4 0 0 1 -4-9.1c-4.1-12.9.7-24.4 4.6-33.5 1.7-4.4 3.8-9 3.6-11.6-.7-13.5-8.5-13.5-11-13.5a25.2 25.2 0 0 0 -6.7.9 197.7 197.7 0 0 0 -27.2 9.2l-9.9 3.8c.6 10.6.1 12.6-.2 14.1a91.5 91.5 0 0 1 -6.2 15.7c-4.9 10.8-10.7 23.2-8.7 34.9 1.2 7.7 5.2 15.5 9 22.9a170.3 170.3 0 0 1 7 15.7c21.4-.1 43.8-1 66.3-2.6-8.7-7.4-15.9-15.7-19-21.5z" fill="#eebfaf"/><path d="m1322 1101.4a30.6 30.6 0 0 0 -4-6.1c-5.5.7-11.2 1.1-16.9 1.3-13.3 0-22-3.4-26.9-9.9-7.9-10.7-2.8-19.7-.2-24.5a15.1 15.1 0 0 0 2-4.5c-.5-1.7-3.4-6.8-9.4-13.6a59.1 59.1 0 0 0 -10.4-9.5c-1.5 1.5-2.9 3.4-4.5 5.1-9.9 11.6-16.6 18.6-24.4 19.3h-1.3c-7.4 0-14.2-5.8-23.1-13.2-4-3.5-9.7-8.1-12.3-9.3s-13.5-2-20.6-2.6c-18.3-1.4-26.1-2.3-30.5-7.7-2.6-2.3-17.1-10.1-30.4-10.1a26.4 26.4 0 0 0 -9.3 1.7c-14.7 6.7-32.4 21.6-43 30.6l-6.2 5.2c-8.3 6.7-18.3 24.7-18.4 29.8 4.9 13.5 2.2 26.2-7.4 33.1a19 19 0 0 1 -10.6 3.3c-7 0-15.1-3.6-21.8-10.2a54.8 54.8 0 0 1 -2.3 5.6c-2.8 4.2 10.7 20.8 26.6 31.4 129.9-10.4 264.4-39.9 282.3-47.1 10.3-4.2 17.2-2.3 23 1.9z" fill="#eebfaf"/><g fill="#845567"><path d="m142.7 920.2v-28.5h7.4l13.7 17.5v-17.5h7.4v28.5h-7.3l-13.6-17.4v17.4z"/><path d="m193.4 898h-8.9v4.8h8.3v6.2h-8.3v4.9h8.9v6.3h-16.3v-28.5h16.3z"/><path d="m206 920.2h-7.3v-28.5h11.8a10.5 10.5 0 0 1 7.4 2.5 9.4 9.4 0 0 1 2.6 7 9.2 9.2 0 0 1 -2.6 6.9 10.5 10.5 0 0 1 -7.4 2.5h-4.4v9.6zm0-15.4h2.5c2.7 0 4-1.2 4-3.5s-1.3-3.5-4-3.5h-2.5z"/><path d="m240.1 915.2h-10.6l-1.7 5h-7.9l10.9-28.5h8.1l10.9 28.5h-7.8zm-2-5.6-3.4-9.4-3.3 9.4z"/><path d="m260.3 891.7v22.2h8.8v6.3h-16.2v-28.5z"/><path d="m910.9 731.2v22.1h-7.4v-22.1h-6.1v-6.3h19.6v6.3z"/><path d="m927.6 724.9v28.4h-7.4v-28.4z"/><path d="m933.5 724.9h11.1c2.6 0 4.6.6 5.9 1.9a7.2 7.2 0 0 1 2 5.4 9.6 9.6 0 0 1 -.7 3.6 10.7 10.7 0 0 1 -2.3 2.5 10.7 10.7 0 0 1 2.7.8 5.6 5.6 0 0 1 1.8 1.6 6.7 6.7 0 0 1 1 2.1 17.5 17.5 0 0 1 .3 2.4 9.5 9.5 0 0 1 -.7 3.5 7.5 7.5 0 0 1 -2.1 2.6 9.6 9.6 0 0 1 -3 1.6 16.8 16.8 0 0 1 -4.1.6h-11.9zm7.4 11.2h1.3c2.4 0 3.5-.9 3.5-2.8s-1.1-2.7-3.5-2.7h-1.3zm0 11.4h1.6a8.6 8.6 0 0 0 4.1-.7c.9-.4 1.1-1.3 1.1-2.3a2.6 2.6 0 0 0 -1.1-2.3 8.6 8.6 0 0 0 -4.1-.7h-1.6z"/><path d="m975.9 731.2h-8.9v4.7h8.3v6.3h-8.3v4.9h8.9v6.2h-16.3v-28.4h16.3z"/><path d="m992 731.2v22.1h-7.4v-22.1h-6.1v-6.3h19.6v6.3z"/><path d="m2483.9 781.5a8.3 8.3 0 0 0 -2.5-1.5 10.1 10.1 0 0 0 -2.3-.4 3.9 3.9 0 0 0 -2.3.7 2.1 2.1 0 0 0 -.9 1.8 3.8 3.8 0 0 0 .4 1.3 5 5 0 0 0 1.2.8 3.8 3.8 0 0 0 1.6.6 10.6 10.6 0 0 0 1.9.6 13.1 13.1 0 0 1 5.4 3.2 7.7 7.7 0 0 1 1.7 5.2 11.3 11.3 0 0 1 -.7 3.9 8.4 8.4 0 0 1 -2.2 3.1 9.8 9.8 0 0 1 -3.5 2 13.1 13.1 0 0 1 -4.6.7 16.9 16.9 0 0 1 -10-3.1l3.2-6a11.2 11.2 0 0 0 3.3 2.2 10.3 10.3 0 0 0 3.2.7 3.7 3.7 0 0 0 2.7-.9 2.3 2.3 0 0 0 .9-1.9 2 2 0 0 0 -.3-1.1 2.8 2.8 0 0 0 -.7-.9 3.3 3.3 0 0 0 -1.3-.7l-2-.7-2.8-1a20.7 20.7 0 0 1 -2.5-1.5 5.8 5.8 0 0 1 -1.7-2.3 8.3 8.3 0 0 1 -.7-3.5 11.2 11.2 0 0 1 .7-3.8 8.4 8.4 0 0 1 2-2.9 10.8 10.8 0 0 1 3.1-1.9 12.4 12.4 0 0 1 4-.7 16.7 16.7 0 0 1 4.4.6 18.4 18.4 0 0 1 4.3 1.7z"/><path d="m2500 774.2v28.5h-7.4v-28.5z"/><path d="m2526.5 783.7a7.7 7.7 0 0 0 -6.3-3.2 6.2 6.2 0 0 0 -3.1.6 13.2 13.2 0 0 0 -2.5 1.6 5.2 5.2 0 0 0 -1.5 2.4 6.9 6.9 0 0 0 -.6 3.1 7.3 7.3 0 0 0 .6 3.2 6.5 6.5 0 0 0 1.5 2.4 6.7 6.7 0 0 0 2.5 1.6 6.2 6.2 0 0 0 3.1.6 8.4 8.4 0 0 0 6.3-3v8.7l-.7.2a10.3 10.3 0 0 1 -3.2.9 14.3 14.3 0 0 1 -2.9.3 15.9 15.9 0 0 1 -10.4-4.3 17.2 17.2 0 0 1 -3.4-4.8 15.5 15.5 0 0 1 -1.3-6.1 16.4 16.4 0 0 1 1.2-6 13.5 13.5 0 0 1 3.3-4.6 14.7 14.7 0 0 1 4.8-3.1 16.5 16.5 0 0 1 5.7-1.1 18.4 18.4 0 0 1 3.3.3 17.5 17.5 0 0 1 3.5 1.1v9.2z"/><path d="m2539.7 785.3h10.8v-11.1h7.4v28.5h-7.4v-11.8h-10.8v11.8h-7.4v-28.5h7.4z"/><path d="m2571.2 774.2v15.6a11.8 11.8 0 0 0 .2 2.6 6 6 0 0 0 .6 2.3 3.3 3.3 0 0 0 1.4 1.7 4.8 4.8 0 0 0 2.9.8 5 5 0 0 0 2.9-.8 3.5 3.5 0 0 0 1.5-1.7 8.6 8.6 0 0 0 .5-2.3c0-.9.2-1.8.2-2.6v-15.6h7.4v16.6c0 4.5-1 7.7-3.1 9.7s-5 3-9.3 3-7.2-1-9.2-3-3.1-5.2-3.1-9.7v-16.6z"/><path d="m2611 797.7h-10.6l-1.8 5h-7.8l10.9-28.5h8.1l10.9 28.5h-7.8zm-1.9-5.6-3.3-9.4-3.4 9.4z"/><path d="m2623.9 802.7v-28.5h7.4l13.6 17.4v-17.4h7.4v28.5h-7.4l-13.6-17.4v17.4z"/><path d="m2296.8 1440.4-10.3-14.8h8.8l5.2 7.8 5.2-7.8h8.9l-10.4 14.8v13.6h-7.4z"/><path d="m2324.5 1425.6v15.5a21.7 21.7 0 0 0 .1 2.6 6.5 6.5 0 0 0 .6 2.4 4.7 4.7 0 0 0 1.4 1.7 6.4 6.4 0 0 0 5.8 0 3.1 3.1 0 0 0 1.5-1.7 6.5 6.5 0 0 0 .6-2.4c0-.8.1-1.7.1-2.6v-15.5h7.4v16.5c0 4.5-1 7.7-3 9.8s-5.1 3-9.3 3-7.3-1-9.3-3-3-5.3-3-9.8v-16.5z"/><path d="m2347.8 1454v-28.4h7.4l13.7 17.4v-17.4h7.4v28.4h-7.4l-13.7-17.4v17.4z"/><path d="m2382.2 1454v-28.4h7.4l13.6 17.4v-17.4h7.4v28.4h-7.4l-13.6-17.4v17.4z"/><path d="m2434.1 1449.1h-10.6l-1.7 4.9h-7.8l10.8-28.4h8.2l10.9 28.4h-7.9zm-2-5.7-3.3-9.4-3.4 9.4z"/><path d="m2446.9 1454v-28.4h7.4l13.6 17.4v-17.4h7.4v28.4h-7.4l-13.6-17.4v17.4z"/><path d="m1612.6 1478.7 4.8-28.4h7.2l5.7 15.2 5.7-15.2h7.2l4.8 28.4h-7.4l-2.5-16.4-6.6 16.4h-2.9l-6.4-16.4-2.5 16.4z"/><path d="m1659.7 1465.1-10.4-14.8h8.9l5.2 7.8 5.2-7.8h8.8l-10.4 14.8v13.6h-7.4v-13.6z"/><path d="m1694.7 1473.8h-10.6l-1.7 4.9h-7.9l10.9-28.4h8.2l10.8 28.4h-7.8zm-2-5.7-3.4-9.4-3.3 9.4z"/><path d="m1707.5 1478.7v-28.4h7.4l13.6 17.4v-17.4h7.4v28.4h-7.4l-13.6-17.4v17.4z"/><path d="m1740.6 1478.7 4.7-28.4h7.3l5.7 15.2 5.6-15.2h7.3l4.8 28.4h-7.4l-2.5-16.4-6.7 16.4h-2.9l-6.4-16.4-2.4 16.4z"/><path d="m1798.3 1473.8h-10.6l-1.7 4.9h-7.9l10.9-28.4h8.1l10.9 28.4h-7.8zm-1.9-5.7-3.3-9.4-3.4 9.4z"/><path d="m1834.8 1478.7h-9.1l-7.1-10.9v10.9h-7.4v-28.4h11.5a13.7 13.7 0 0 1 4.2.7 9.7 9.7 0 0 1 2.9 1.9 9.5 9.5 0 0 1 1.7 2.7 9.7 9.7 0 0 1 .6 3.4 8.5 8.5 0 0 1 -1.6 5.2 8.2 8.2 0 0 1 -4.6 2.8zm-16.3-15.7h1.4a5.7 5.7 0 0 0 3.3-.8 3.1 3.1 0 0 0 1.2-2.6 3.2 3.2 0 0 0 -1.2-2.7 5.7 5.7 0 0 0 -3.3-.8h-1.4z"/><path d="m332.9 1425.6v28.4h-7.4v-28.4z"/><path d="m338.9 1454v-28.4h7.4l13.6 17.4v-17.4h7.4v28.4h-7.4l-13.6-17.4v17.4z"/><path d="m373.3 1425.6h10.8a13.8 13.8 0 0 1 5.6 1.2 17.7 17.7 0 0 1 4.5 3 13.7 13.7 0 0 1 3 4.5 14.6 14.6 0 0 1 1.2 5.4 12 12 0 0 1 -1.1 5.3 12.7 12.7 0 0 1 -3 4.5 16 16 0 0 1 -4.5 3.2 11.4 11.4 0 0 1 -5.5 1.2h-10.9v-28.3zm7.4 22.2h1.7a7.8 7.8 0 0 0 3.5-.6 9.5 9.5 0 0 0 2.6-1.6 7.7 7.7 0 0 0 2.2-5.6 8.3 8.3 0 0 0 -.6-3.2 6.7 6.7 0 0 0 -4.2-4.1 9.2 9.2 0 0 0 -3.3-.6h-1.8v15.7z"/><path d="m410.4 1425.6v28.4h-7.4v-28.4z"/><path d="m433.8 1449.1h-10.6l-1.8 4.9h-7.8l10.9-28.4h8.1l10.9 28.4h-7.9zm-2.1-5.7-3.3-9.4-3.3 9.4z"/><path d="m983 1135.3h-79.6l-19.2-19.1-19.1 19.1h-79.7a18.8 18.8 0 0 0 -18.8 18.9v80.3a18.8 18.8 0 0 0 18.8 18.9h197.6a18.9 18.9 0 0 0 18.9-18.9v-80.3a18.9 18.9 0 0 0 -18.9-18.9z"/></g><path d="m813.1 1174.8h-6.8v3.6h6.2v4.8h-6.2v8.6h-5.7v-22h12.5z" fill="#eebfaf"/><path d="m829.1 1188h-8.1l-1.4 3.8h-6l8.2-22h6.3l8.2 22h-6.1zm-1.6-4.4-2.6-7.2-2.6 7.2z" fill="#eebfaf"/><path d="m841.1 1169.8 5.2 13.4 5.4-13.4h6.2l-9.2 22h-4.5l-9.2-22z" fill="#eebfaf"/><path d="m858.1 1180.9a11 11 0 0 1 .9-4.5 10.3 10.3 0 0 1 2.4-3.7 11.2 11.2 0 0 1 3.8-2.4 12.2 12.2 0 0 1 4.9-.9 13.9 13.9 0 0 1 5 .9 11.8 11.8 0 0 1 3.7 2.4 12.7 12.7 0 0 1 2.5 3.7 11.3 11.3 0 0 1 .9 4.5 11 11 0 0 1 -.9 4.5 10.1 10.1 0 0 1 -2.5 3.6 12.1 12.1 0 0 1 -3.7 2.5 15.4 15.4 0 0 1 -5 .8 15.3 15.3 0 0 1 -4.9-.8 11.4 11.4 0 0 1 -3.8-2.5 10.8 10.8 0 0 1 -2.4-3.6 11.7 11.7 0 0 1 -.9-4.5zm5.9 0a6.4 6.4 0 0 0 .5 2.4 5 5 0 0 0 1.3 1.9 4.6 4.6 0 0 0 2 1.3 6.4 6.4 0 0 0 2.3.5 6.4 6.4 0 0 0 2.4-.5 6.3 6.3 0 0 0 2-1.3 5 5 0 0 0 1.3-1.9 6.4 6.4 0 0 0 .4-2.4 6.6 6.6 0 0 0 -.4-2.5 5.9 5.9 0 0 0 -1.3-1.9 5.3 5.3 0 0 0 -2-1.3 6.7 6.7 0 0 0 -2.4-.4 5.9 5.9 0 0 0 -2.3.4 6.3 6.3 0 0 0 -2 1.3 5.9 5.9 0 0 0 -1.3 1.9 6.6 6.6 0 0 0 -.5 2.5z" fill="#eebfaf"/><path d="m891.6 1169.8v13.8a5.9 5.9 0 0 0 .4 1.8 3 3 0 0 0 1.2 1.3 4.8 4.8 0 0 0 2.2.6 2.9 2.9 0 0 0 2.1-.6 3 3 0 0 0 1.2-1.3 3.9 3.9 0 0 0 .4-1.8v-13.8h5.7v12.7c0 3.3-.7 5.9-2.3 7.4a10.4 10.4 0 0 1 -7.1 2.3c-3.2 0-5.7-.7-7.3-2.3s-2.3-4.1-2.3-7.4v-12.7z" fill="#eebfaf"/><path d="m927.9 1191.8h-7.1l-5.4-8.5v8.5h-5.8v-22h8.8a7.6 7.6 0 0 1 3.2.6 8.7 8.7 0 0 1 2.4 1.5 6.7 6.7 0 0 1 1.3 2.2 10.9 10.9 0 0 1 .4 2.6 6.3 6.3 0 0 1 -1.2 4 6.5 6.5 0 0 1 -3.6 2.2zm-12.7-12.1h1.1a4.7 4.7 0 0 0 2.6-.7 2.3 2.3 0 0 0 .8-2 2.5 2.5 0 0 0 -.8-2.1 4.7 4.7 0 0 0 -2.6-.7h-1.1z" fill="#eebfaf"/><path d="m935.8 1169.8v22h-5.6v-22z" fill="#eebfaf"/><path d="m948.8 1174.8v17.1h-5.7v-17.1h-4.6v-4.8h15v4.8z" fill="#eebfaf"/><path d="m968.3 1174.8h-6.8v3.6h6.4v4.8h-6.4v3.8h6.8v4.8h-12.3v-22h12.5v5z" fill="#eebfaf"/><path d="m849 1208.9a14.5 14.5 0 0 0 -1.9-1.2 3.8 3.8 0 0 0 -1.8-.3 2.4 2.4 0 0 0 -1.7.6 1.6 1.6 0 0 0 -.7 1.3 3 3 0 0 0 .2 1l.9.7 1.3.5 1.5.4a8.1 8.1 0 0 1 4 2.5 5.7 5.7 0 0 1 1.3 4 7.5 7.5 0 0 1 -.5 3.1 7.9 7.9 0 0 1 -1.6 2.3 8.4 8.4 0 0 1 -2.6 1.5 13.2 13.2 0 0 1 -3.7.5 13.7 13.7 0 0 1 -7.7-2.4l2.5-4.7a17.1 17.1 0 0 0 2.5 1.8 5.3 5.3 0 0 0 2.4.6 3.3 3.3 0 0 0 2.1-.6 2.3 2.3 0 0 0 .7-1.5 1.9 1.9 0 0 0 -.1-.8l-.6-.8-1-.6-1.6-.5-2.2-.8a7.2 7.2 0 0 1 -1.9-1.1 4 4 0 0 1 -1.3-1.8 6.6 6.6 0 0 1 -.6-2.6 7.2 7.2 0 0 1 .6-2.9 10.9 10.9 0 0 1 1.4-2.3 5.3 5.3 0 0 1 2.4-1.4 9.6 9.6 0 0 1 3.2-.6 13.5 13.5 0 0 1 3.3.4 12 12 0 0 1 3.3 1.3z" fill="#eebfaf"/><path d="m861.3 1225.1h-5.7v-21.9h9c2.5 0 4.4.6 5.7 1.9a7.2 7.2 0 0 1 2 5.4 7.1 7.1 0 0 1 -2 5.3c-1.3 1.3-3.2 1.9-5.7 1.9h-3.3zm0-11.7h1.9c2 0 3.2-.9 3.2-2.8s-1.1-2.7-3.2-2.7h-1.9z" fill="#eebfaf"/><path d="m874.3 1214.2a11 11 0 0 1 .9-4.5 11.6 11.6 0 0 1 2.5-3.6 12.1 12.1 0 0 1 3.7-2.5 15.4 15.4 0 0 1 5-.8 16.2 16.2 0 0 1 4.9.8 11.4 11.4 0 0 1 3.8 2.5 10.8 10.8 0 0 1 2.4 3.6 11.7 11.7 0 0 1 .9 4.5 11 11 0 0 1 -.9 4.5 10.3 10.3 0 0 1 -2.4 3.7 11.2 11.2 0 0 1 -3.8 2.4 12.2 12.2 0 0 1 -4.9.9 13.5 13.5 0 0 1 -5-.9 11.8 11.8 0 0 1 -3.7-2.4 15.1 15.1 0 0 1 -2.5-3.7 11.3 11.3 0 0 1 -.9-4.5zm6 0a6.6 6.6 0 0 0 .4 2.5 5.9 5.9 0 0 0 1.3 1.9 5 5 0 0 0 2.1 1.3 6.2 6.2 0 0 0 2.3.4 5.9 5.9 0 0 0 2.3-.4 5.3 5.3 0 0 0 2-1.3 5.9 5.9 0 0 0 1.3-1.9 6.6 6.6 0 0 0 .5-2.5 6.4 6.4 0 0 0 -.5-2.4 5 5 0 0 0 -1.3-1.9 4.1 4.1 0 0 0 -2-1.3 6.4 6.4 0 0 0 -2.3-.5 5.6 5.6 0 0 0 -2.3.5 5.7 5.7 0 0 0 -2.1 1.3 5 5 0 0 0 -1.3 1.9 6.4 6.4 0 0 0 -.4 2.4z" fill="#eebfaf"/><path d="m910.2 1208.1v17.2h-5.7v-17.2h-4.6v-4.7h15.1v4.7z" fill="#eebfaf"/><path d="m929.5 1208.9a10 10 0 0 0 -1.9-1.2 3.8 3.8 0 0 0 -1.8-.3 2.4 2.4 0 0 0 -1.7.6 1.9 1.9 0 0 0 -.7 1.3 1.7 1.7 0 0 0 .3 1l.8.7 1.3.5 1.5.4a9 9 0 0 1 4.1 2.5 6.2 6.2 0 0 1 1.3 4 7.5 7.5 0 0 1 -.6 3.1 7.9 7.9 0 0 1 -1.6 2.3 7.4 7.4 0 0 1 -2.6 1.5 12.7 12.7 0 0 1 -3.7.5 13.2 13.2 0 0 1 -7.6-2.4l2.4-4.7a24.8 24.8 0 0 0 2.5 1.8 5.7 5.7 0 0 0 2.5.6 3.2 3.2 0 0 0 2-.6 2.3 2.3 0 0 0 .7-1.5 1.9 1.9 0 0 0 -.1-.8l-.6-.8-1-.6-1.6-.5-2.2-.8a7.2 7.2 0 0 1 -1.9-1.1 4 4 0 0 1 -1.3-1.8 6.6 6.6 0 0 1 -.6-2.6 7.2 7.2 0 0 1 .6-2.9 8.3 8.3 0 0 1 1.5-2.3 4.5 4.5 0 0 1 2.3-1.4 9.6 9.6 0 0 1 3.2-.6 13.5 13.5 0 0 1 3.3.4 12 12 0 0 1 3.3 1.3z" fill="#eebfaf"/><path d="m2335.5 764.1h-79.7l-19.1-19.2-19.2 19.2h-79.6a18.9 18.9 0 0 0 -18.9 18.8v80.3a18.9 18.9 0 0 0 18.9 18.8h197.6a18.8 18.8 0 0 0 18.8-18.8v-80.4a18.8 18.8 0 0 0 -18.8-18.7z" fill="#845567"/><path d="m2165.6 803.5h-6.8v3.7h6.2v4.8h-6.2v8.5h-5.7v-21.9h12.5z" fill="#eebfaf"/><path d="m2181.6 816.7h-8.2l-1.3 3.8h-6.1l8.3-21.9h6.3l8.2 21.9h-6.1zm-1.6-4.3-2.6-7.3-2.7 7.3z" fill="#eebfaf"/><path d="m2193.6 798.6 5.2 13.4 5.4-13.4h6.2l-9.2 21.9h-4.5l-9.2-21.9z" fill="#eebfaf"/><path d="m2210.7 809.6a11 11 0 0 1 .9-4.5 10.1 10.1 0 0 1 2.5-3.6 12.1 12.1 0 0 1 3.7-2.5 15.4 15.4 0 0 1 5-.8 16.2 16.2 0 0 1 4.9.8 12.5 12.5 0 0 1 3.8 2.5 10.8 10.8 0 0 1 2.4 3.6 11.7 11.7 0 0 1 .9 4.5 11 11 0 0 1 -.9 4.5 10.3 10.3 0 0 1 -2.4 3.7 12.3 12.3 0 0 1 -3.8 2.4 12.6 12.6 0 0 1 -4.9.9 13.9 13.9 0 0 1 -5-.9 11.8 11.8 0 0 1 -3.7-2.4 12.7 12.7 0 0 1 -2.5-3.7 11 11 0 0 1 -.9-4.5zm6 0a6.6 6.6 0 0 0 .4 2.5 5.9 5.9 0 0 0 1.3 1.9 5.3 5.3 0 0 0 2 1.3 6.7 6.7 0 0 0 2.4.4 5.9 5.9 0 0 0 4.3-1.7 5.9 5.9 0 0 0 1.3-1.9 6.6 6.6 0 0 0 .5-2.5 6.4 6.4 0 0 0 -.5-2.4 5 5 0 0 0 -1.3-1.9 4.6 4.6 0 0 0 -2-1.3 6.4 6.4 0 0 0 -2.3-.5 6.9 6.9 0 0 0 -2.4.5 6.3 6.3 0 0 0 -2 1.3 5 5 0 0 0 -1.3 1.9 6.4 6.4 0 0 0 -.4 2.4z" fill="#eebfaf"/><path d="m2244.2 798.6v13.8a5.8 5.8 0 0 0 .5 1.7 2.8 2.8 0 0 0 1.1 1.3 4.8 4.8 0 0 0 2.2.6 2.9 2.9 0 0 0 2.2-.6 2 2 0 0 0 1.1-1.3 3.4 3.4 0 0 0 .5-1.7v-13.8h5.6v12.6c0 3.4-.7 6-2.3 7.4a10 10 0 0 1 -7.1 2.4q-4.8 0-7.2-2.4c-1.6-1.6-2.4-4-2.4-7.4v-12.6z" fill="#eebfaf"/><path d="m2280.4 820.5h-7.1l-5.4-8.4v8.4h-5.7v-21.9h8.9a8.3 8.3 0 0 1 3.2.6 6.4 6.4 0 0 1 2.1 1.4 4.5 4.5 0 0 1 1.3 2.2 8.5 8.5 0 0 1 .5 2.6 7.4 7.4 0 0 1 -1.2 4.1 7.2 7.2 0 0 1 -3.6 2.2zm-12.5-12h1a4.5 4.5 0 0 0 2.6-.7 2.6 2.6 0 0 0 .9-2.1 2.3 2.3 0 0 0 -.9-2 4.5 4.5 0 0 0 -2.6-.7h-1z" fill="#eebfaf"/><path d="m2288.3 798.6v21.9h-5.6v-21.9z" fill="#eebfaf"/><path d="m2301.2 803.5v17.2h-5.6v-17.2h-4.7v-4.7h15.1v4.7z" fill="#eebfaf"/><path d="m2321 803.5h-6.8v3.7h6.3v4.8h-6.3v3.7h6.8v4.8h-12.5v-21.9h12.5z" fill="#eebfaf"/><path d="m2201.4 837.6-1.8-1.1a3.8 3.8 0 0 0 -1.8-.3 2 2 0 0 0 -1.7.6 1.6 1.6 0 0 0 -.8 1.3 2.9 2.9 0 0 0 .3 1l.9.7c.3.3.9.3 1.3.4l1.5.5a8 8 0 0 1 4 2.4 6.1 6.1 0 0 1 1.3 4.1 7.5 7.5 0 0 1 -.5 3.1 9.4 9.4 0 0 1 -1.6 2.3 7.7 7.7 0 0 1 -2.7 1.4 11.7 11.7 0 0 1 -3.6.6 13.8 13.8 0 0 1 -7.7-2.5l2.5-4.6a15.9 15.9 0 0 0 2.5 1.7 4.3 4.3 0 0 0 2.4.6 2.8 2.8 0 0 0 2.1-.6 1.9 1.9 0 0 0 .7-1.4 1.5 1.5 0 0 0 -.2-.9c-.1-.3-.3-.4-.5-.7l-1.1-.6-1.6-.6-2.1-.7a6.2 6.2 0 0 1 -1.9-1.2 3.7 3.7 0 0 1 -1.3-1.7 6.7 6.7 0 0 1 -.5-2.6 7.2 7.2 0 0 1 .6-2.9 7 7 0 0 1 1.5-2.3 6.1 6.1 0 0 1 2.3-1.5 10.1 10.1 0 0 1 3.2-.6 13.2 13.2 0 0 1 3.3.5 14 14 0 0 1 3.4 1.3z" fill="#eebfaf"/><path d="m2213.8 853.9h-5.7v-21.9h9c2.5 0 4.4.6 5.7 1.9a7.1 7.1 0 0 1 2 5.3 7.2 7.2 0 0 1 -2 5.4c-1.3 1.3-3.2 1.9-5.7 1.9h-3.3zm0-11.8h1.9c2 0 3.1-.8 3.1-2.7s-1-2.8-3.1-2.8h-1.9z" fill="#eebfaf"/><path d="m2226.8 843a11 11 0 0 1 .9-4.5 11.1 11.1 0 0 1 2.5-3.6 12.1 12.1 0 0 1 3.7-2.5 13.1 13.1 0 0 1 5-.9 13.7 13.7 0 0 1 4.9.9 13 13 0 0 1 3.9 2.5 9.8 9.8 0 0 1 2.5 3.6 11.7 11.7 0 0 1 0 9 12.9 12.9 0 0 1 -2.5 3.6 10.9 10.9 0 0 1 -3.9 2.5 12.2 12.2 0 0 1 -4.9.9 13.5 13.5 0 0 1 -5-.9 12.1 12.1 0 0 1 -3.7-2.5 11.1 11.1 0 0 1 -2.5-3.6 11 11 0 0 1 -.9-4.5zm6 0a6.9 6.9 0 0 0 .4 2.5 5.9 5.9 0 0 0 1.3 1.9 8 8 0 0 0 1.9 1.3 6.2 6.2 0 0 0 2.3.4 5.6 5.6 0 0 0 2.3-.4 7.4 7.4 0 0 0 2.1-1.3 5.9 5.9 0 0 0 1.3-1.9 8 8 0 0 0 0-5 4.6 4.6 0 0 0 -1.3-1.8 5.2 5.2 0 0 0 -2.1-1.4 9.3 9.3 0 0 0 -2.3-.4 8.5 8.5 0 0 0 -2.3.4 5.2 5.2 0 0 0 -1.9 1.4 4.6 4.6 0 0 0 -1.3 1.8 6.9 6.9 0 0 0 -.4 2.5z" fill="#eebfaf"/><path d="m2262.7 836.9v17.1h-5.7v-17.1h-4.6v-4.8h15v4.8z" fill="#eebfaf"/><path d="m2282 837.6-1.9-1.1a3.8 3.8 0 0 0 -1.8-.3 2 2 0 0 0 -1.7.6 1.7 1.7 0 0 0 -.7 1.3 1.7 1.7 0 0 0 .3 1c.2.3.5.4.8.7s.9.3 1.3.4l1.5.5a8 8 0 0 1 4 2.4 6.1 6.1 0 0 1 1.3 4.1 7.5 7.5 0 0 1 -.5 3.1 9.4 9.4 0 0 1 -1.6 2.3 8.2 8.2 0 0 1 -2.6 1.4 13 13 0 0 1 -3.7.6 13.8 13.8 0 0 1 -7.7-2.5l2.5-4.6 2.5 1.7a4.3 4.3 0 0 0 2.4.6 2.8 2.8 0 0 0 2.1-.6 1.9 1.9 0 0 0 .7-1.4 2.8 2.8 0 0 0 -.1-.9l-.6-.7-1-.6-1.6-.6-2.2-.7a7.6 7.6 0 0 1 -1.9-1.2 3.7 3.7 0 0 1 -1.3-1.7 6.8 6.8 0 0 1 -.4-2.6 7 7 0 0 1 2-5.2 6.1 6.1 0 0 1 2.3-1.5 10.1 10.1 0 0 1 3.2-.6 13.2 13.2 0 0 1 3.3.5 12.6 12.6 0 0 1 3.4 1.3z" fill="#eebfaf"/><path d="m1947.9 1156.2-17.7-17.7v-22.6a18.9 18.9 0 0 0 -18.9-18.9h-197.6a18.8 18.8 0 0 0 -18.8 18.9v80.3a18.8 18.8 0 0 0 18.8 18.9h197.6a18.9 18.9 0 0 0 18.9-18.9v-22.6z" fill="#845567"/><path d="m1741.4 1136.6h-6.8v3.7h6.2v4.7h-6.2v8.6h-5.7v-21.9h12.5z" fill="#eebfaf"/><path d="m1757.4 1150h-8.1l-1.3 3.7h-6.1l8.2-21.9h6.3l8.2 21.9h-6.1zm-1.6-4.4-2.6-7.2-2.6 7.2z" fill="#eebfaf"/><path d="m1769.4 1131.8 5.2 13.4 5.4-13.4h6.3l-9.3 21.9h-4.5l-9.2-21.9z" fill="#eebfaf"/><path d="m1786.5 1142.9a11 11 0 0 1 .9-4.5 12.1 12.1 0 0 1 2.5-3.7 11.8 11.8 0 0 1 3.7-2.4 13.1 13.1 0 0 1 5-.9 13.7 13.7 0 0 1 4.9.9 12.8 12.8 0 0 1 3.9 2.4 11 11 0 0 1 2.5 3.7 11.3 11.3 0 0 1 .9 4.5 11 11 0 0 1 -.9 4.5 11.6 11.6 0 0 1 -2.5 3.6 10.9 10.9 0 0 1 -3.9 2.5 14.4 14.4 0 0 1 -4.9.8 16.4 16.4 0 0 1 -5-.8 12.1 12.1 0 0 1 -3.7-2.5 12.9 12.9 0 0 1 -2.5-3.6 11.7 11.7 0 0 1 -.9-4.5zm6 0a6.4 6.4 0 0 0 .4 2.4 5 5 0 0 0 1.3 1.9 5.9 5.9 0 0 0 1.9 1.3 6.4 6.4 0 0 0 2.3.5 6.4 6.4 0 0 0 2.4-.5 6.3 6.3 0 0 0 2-1.3 5 5 0 0 0 1.3-1.9 6.4 6.4 0 0 0 .4-2.4 6.6 6.6 0 0 0 -.4-2.5 5.9 5.9 0 0 0 -1.3-1.9 5.3 5.3 0 0 0 -2-1.3 6.7 6.7 0 0 0 -2.4-.4 5.9 5.9 0 0 0 -2.3.4 5 5 0 0 0 -1.9 1.3 5.9 5.9 0 0 0 -1.3 1.9 6.6 6.6 0 0 0 -.4 2.5z" fill="#eebfaf"/><path d="m1820.1 1131.8v13.8a5.9 5.9 0 0 0 .4 1.8 3.5 3.5 0 0 0 1.1 1.3 5.1 5.1 0 0 0 2.2.5 3.3 3.3 0 0 0 2.2-.5 3 3 0 0 0 1.2-1.3 3.9 3.9 0 0 0 .4-1.8v-13.8h5.7v12.7c0 3.3-.8 5.9-2.4 7.4a10.4 10.4 0 0 1 -7.1 2.3c-3.2 0-5.6-.7-7.2-2.3s-2.4-4.1-2.4-7.4v-12.7z" fill="#eebfaf"/><path d="m1856.2 1153.7h-7.1l-5.4-8.4v8.4h-5.7v-21.9h8.9a7.9 7.9 0 0 1 3.2.6 5.7 5.7 0 0 1 2.2 1.5 6.2 6.2 0 0 1 1.3 2.1 8.4 8.4 0 0 1 .4 2.7 6.3 6.3 0 0 1 -1.2 4 6.7 6.7 0 0 1 -3.4 2.2zm-12.5-12h1a4.5 4.5 0 0 0 2.6-.7 2.6 2.6 0 0 0 .9-2.1 2.5 2.5 0 0 0 -.9-2 4.5 4.5 0 0 0 -2.6-.7h-1z" fill="#eebfaf"/><path d="m1864.2 1131.8v21.9h-5.7v-21.9z" fill="#eebfaf"/><path d="m1877.1 1136.6v17.1h-5.7v-17.1h-4.6v-4.8h15.1v4.8z" fill="#eebfaf"/><path d="m1896.8 1136.6h-6.8v3.7h6.4v4.7h-6.4v3.8h6.8v4.8h-12.5v-21.9h12.5z" fill="#eebfaf"/><path d="m1777.3 1170.9a10 10 0 0 0 -1.9-1.2 3.8 3.8 0 0 0 -1.8-.3 2.4 2.4 0 0 0 -1.7.6 2.1 2.1 0 0 0 -.7 1.3 1.7 1.7 0 0 0 .3 1c.2.3.5.4.8.7s.9.3 1.3.5l1.5.4a8.1 8.1 0 0 1 4 2.5 5.7 5.7 0 0 1 1.3 4 7.5 7.5 0 0 1 -.5 3.1 7.9 7.9 0 0 1 -1.6 2.3 8.4 8.4 0 0 1 -2.6 1.5 18.4 18.4 0 0 1 -3.7.5 13.7 13.7 0 0 1 -7.7-2.4l2.5-4.7a24.8 24.8 0 0 0 2.5 1.8 5.2 5.2 0 0 0 2.4.5 3.3 3.3 0 0 0 2.1-.5 2.3 2.3 0 0 0 .7-1.5 2.8 2.8 0 0 0 -.1-.9l-.6-.7-1-.6-1.6-.5-2.2-.8a11.8 11.8 0 0 1 -1.9-1.1 4 4 0 0 1 -1.3-1.8 6.6 6.6 0 0 1 -.6-2.6 7.2 7.2 0 0 1 .6-2.9 10.9 10.9 0 0 1 1.4-2.3 5.5 5.5 0 0 1 2.4-1.5 11.9 11.9 0 0 1 6.5-.1 12 12 0 0 1 3.3 1.3z" fill="#eebfaf"/><path d="m1789.7 1187.1h-5.6v-21.9h9a7.6 7.6 0 0 1 5.6 1.9 7.2 7.2 0 0 1 2.1 5.4 7.1 7.1 0 0 1 -2.1 5.3 7.6 7.6 0 0 1 -5.6 1.9h-3.4zm0-11.9h1.9c2 0 3.2-.9 3.2-2.7s-1-2.8-3.2-2.8h-1.9z" fill="#eebfaf"/><path d="m1802.6 1176.2a11 11 0 0 1 .9-4.5 11.6 11.6 0 0 1 2.5-3.6 11.4 11.4 0 0 1 3.8-2.5 14.4 14.4 0 0 1 4.9-.8 16.2 16.2 0 0 1 4.9.8 13 13 0 0 1 3.9 2.5 9.8 9.8 0 0 1 2.5 3.6 11.7 11.7 0 0 1 0 9 15.1 15.1 0 0 1 -2.5 3.7 10.8 10.8 0 0 1 -3.9 2.4 12.2 12.2 0 0 1 -4.9.9 12.6 12.6 0 0 1 -4.9-.9 11.2 11.2 0 0 1 -3.8-2.4 15.1 15.1 0 0 1 -2.5-3.7 11.3 11.3 0 0 1 -.9-4.5zm6 0a6.6 6.6 0 0 0 .4 2.5 8 8 0 0 0 1.3 1.9 5.9 5.9 0 0 0 1.9 1.3 6.2 6.2 0 0 0 2.3.4 6.4 6.4 0 0 0 2.4-.4 6.3 6.3 0 0 0 2-1.3 5.9 5.9 0 0 0 1.3-1.9 6.6 6.6 0 0 0 .4-2.5 6.4 6.4 0 0 0 -.4-2.4 5 5 0 0 0 -1.3-1.9 5.3 5.3 0 0 0 -2-1.3 6.9 6.9 0 0 0 -2.4-.5 5.9 5.9 0 0 0 -2.3.5 5 5 0 0 0 -1.9 1.3 5.5 5.5 0 0 0 -1.7 4.3z" fill="#eebfaf"/><path d="m1838.6 1170v17.1h-5.6v-17.1h-4.7v-4.8h15.1v4.8z" fill="#eebfaf"/><path d="m1857.8 1170.9a10 10 0 0 0 -1.9-1.2 3.8 3.8 0 0 0 -1.8-.3 2.4 2.4 0 0 0 -1.7.6 2.1 2.1 0 0 0 -.7 1.3 1.7 1.7 0 0 0 .3 1l.8.7c.3.3.9.3 1.3.5l1.5.4a9 9 0 0 1 4.1 2.5 6.2 6.2 0 0 1 1.3 4 7.5 7.5 0 0 1 -.6 3.1 7.9 7.9 0 0 1 -1.6 2.3 7.4 7.4 0 0 1 -2.6 1.5 17.4 17.4 0 0 1 -3.7.5 13.2 13.2 0 0 1 -7.6-2.4l2.4-4.7a24.8 24.8 0 0 0 2.5 1.8 5.6 5.6 0 0 0 2.5.5 3 3 0 0 0 2-.5 2.3 2.3 0 0 0 .7-1.5 2.8 2.8 0 0 0 -.1-.9l-.6-.7-1-.6-1.6-.5-2.2-.8a11.8 11.8 0 0 1 -1.9-1.1 4 4 0 0 1 -1.3-1.8 6.6 6.6 0 0 1 -.6-2.6 7.2 7.2 0 0 1 .6-2.9 8.3 8.3 0 0 1 1.5-2.3 4.6 4.6 0 0 1 2.3-1.5 14.3 14.3 0 0 1 3.2-.5 13.5 13.5 0 0 1 3.3.4 12 12 0 0 1 3.3 1.3z" fill="#eebfaf"/><path d="m1748.5 303.2-6.8 1-2.4-2.7a14.2 14.2 0 0 1 -7.4 1.8c-5.9 0-9.6-2.3-11.8-4.6a15.4 15.4 0 0 1 -4-10.3 14.6 14.6 0 0 1 4.4-10.4 15.8 15.8 0 0 1 11.2-4.3 16.5 16.5 0 0 1 11.3 4.3 14.6 14.6 0 0 1 4.3 10.6 14.4 14.4 0 0 1 -1.1 5.7 11.1 11.1 0 0 1 -2.6 3.9zm-12.1-12.7 1.9 2.1a7.3 7.3 0 0 0 1.3-4.1 7.9 7.9 0 0 0 -2.2-5.3 9 9 0 0 0 -5.7-2.4 8 8 0 0 0 -7.9 8.1 6.9 6.9 0 0 0 2.1 5.1 8.6 8.6 0 0 0 5.8 2.2 7.3 7.3 0 0 0 2.2-.3l-4.5-4.5z" fill="#845567"/><path d="m1759.4 274.3v28.4h-7.3v-28.4z" fill="#845567"/><path d="m1765.4 302.7v-28.4h7.3l13.6 17.4v-17.4h7.3v28.4h-7.3l-13.6-17.3v17.3z" fill="#845567"/><path d="m1813.2 286.6h14.6c0 5.6-1.1 9.6-4.5 12.8a14.2 14.2 0 0 1 -10 3.6 14.5 14.5 0 0 1 -10.9-4.3 14.2 14.2 0 0 1 -4.1-10.2 14.6 14.6 0 0 1 4.3-10.6c2.3-2.4 6-4.2 11-4.2a15.1 15.1 0 0 1 7.6 1.9 14.2 14.2 0 0 1 5.1 5.8l-7 2.9a7.1 7.1 0 0 0 -2.1-2.8 5.9 5.9 0 0 0 -3.9-1.4 6.9 6.9 0 0 0 -4.9 1.9 9.9 9.9 0 0 0 -2.4 6.5 9.1 9.1 0 0 0 2.2 6.2 6.9 6.9 0 0 0 5.2 2.1 6.1 6.1 0 0 0 4.1-1.3 4.6 4.6 0 0 0 1.7-3.1h-6z" fill="#845567"/><path d="m1839.8 284.9h10.7v-10.6h7.4v28.4h-7.4v-11.5h-10.7v11.5h-7.3v-28.4h7.3z" fill="#845567"/><path d="m1881.1 297.9h-10.3l-1.9 4.8h-7.8l10.9-28.4h8.1l10.6 28.4h-7.8zm-1.9-5.6-3.2-9.2-3.1 9.2z" fill="#845567"/><path d="m1901.4 274.3v28.4h-7.4v-28.4z" fill="#845567"/></svg>