<svg viewBox="0 0 1839.9 870" xmlns="http://www.w3.org/2000/svg"><g fill="#eebfaf"><path d="m1182.2 187.4c-44.5 6.5-75.3-20.5-111.9-5.1-56.3 23.8-54.6 46.4-68.6 88.9-15.3 46.3-53.5 32.4-69.1-29.7-16.8-67-36.8-52.5-59.6-111.1-6.8-17.6 13.5-55.9 74.8-71.8-50 22.9-57.5 64-38 93 61.8 92.2 71.2-7.7 131.6-21.8 49.5-11.6 193 34.3 123.1-37 59.3 43.7 50 89.8 17.7 94.6z"/><path d="m679.1 297.4a84.7 84.7 0 0 1 -36.6-4.1c-14.6-4.8-30-24.6-24.2-52.3s11-39.2-5.8-44.1c-9.5-2.8-29.1 2-31.6 24.8-2.1 19.3-10.7 22.1-16.5 0s-.2-41 24.3-41c19.6 0 30.1-8.5 25.2-25.9-3-10.6-8.4-28.2 9.1-32.8 11.2-3 11.9 8.2 15.7 19.3s4.1 21.7 24.6 24.9a32.8 32.8 0 0 0 6.2.4c1.1 24-9.1 36.3-9.6 61.4-.7 30.1.5 58.4 19.2 69.4z"/><path d="m318.3 562.2c-29.8-3.6-100.8-15.1-157-22.5 7.3-15.5 67.4 8.1 68.9-9.5s-170.8-14.2-171.1-44.4c-.1-11.4 49.2-7.5 111.2 1.6a5.7 5.7 0 0 0 -1.8 4.5c.9 17.4 102.9 21.6 154.3 33.9s40.7 41.7-4.5 36.4z"/><path d="m648.5 519.5c21.4 22.5 35.3 66.2-15.8 62.7s-195.8-4.9-202.1-38c-2.3-12.5 83.2 4.4 84.6-15.8 1.1-14.5-54.2-22.2-117.7-29.3a24.4 24.4 0 0 0 .1-2.7c-.7-15.9 194.6 29.5 197.4 12.8s-33.8-22.4-61-27c-62.2-10.7-278.1-12.2-314.1-44 81.2 9.2 168.8 16.7 232.4 23.1 158.6 16.1 174.8 35.8 196.2 58.2z"/><path d="m1090.8 634.8c-60.9-8.3-199.3-29.8-239-35.4s-25.9-19.5 35.8-10.4 79.1 5.4 86-.8 2-19.7-.3-25.1c-3.3-7.6 44.3 1.5 44.3 1.5 65.3 9.5 76.8 4.1 69.9 16.7-3.2 5.8-26-3.4-31.3 11.9-2.1 6.3 12 15.6 58.8 22.2s36.8 27.7-24.2 19.4z"/><path d="m1793.3 760.3c-24.1-8-57.2-14.9-97.1-21.8-87.1-15-118.5-38.8-92.8-49.4 19-7.9 36.6-3.6 67.3.8s38.6-35.1 4.9-39.1c-20.4-2.5-109.9-12.5-166.5-24.5-30-6.4-33.6-15.6-27.1-23.5 54.4 19 102.2 23 221.1 33.9 75.7 7 84.6 40.9 62.6 70.6-20.7 27.9 17 29.8 27.6 53z"/></g><path d="m1512.2 588c31.2-5.8 263.1 32.7 299 36.9s34.9-8.5 14.7-12.3c-70.1-13.4-215.2-36.5-392.5-62.9 8.5-81.7-.3-160.1-34.1-235.3-58.1-129.3-148.4-200.1-235.7-238.4-9.6-4.2-18.1 3.9-6.9 11.4 67.9 45.2 59.1 95 25.4 100-44.4 6.5-75.2-20.5-111.8-5.1-56.3 23.8-54.6 46.4-68.6 88.9-15.3 46.3-53.5 32.4-69.1-29.7-16.8-67-36.8-52.5-59.6-111.1-8.4-21.7 24.5-74.8 124.3-78.7 15.7-.6 12.9-14 6.3-14.4-36.2-2.1-69.8.6-82.1 2.6-27.2 4.6-35-3.9-41.2-14.1a4.9 4.9 0 0 0 -6.8-1.7 5.2 5.2 0 0 0 -2.3 3.5c-2.2 14.8-6.1 26.6-10.7 35.9-2.7 5.6-10.9 2.4-9.3-3.6a63.4 63.4 0 0 0 2.2-17.4c-.1-2.3-2.5-4.1-4.9-4.2-28.1-1-39.6 6.1-55.7 14.1-4.4 2.2-10-3.6-7.7-8 8.8-16.7 23.5-27.3 37.8-34 5.3-2.5 2.9-10.5-3-9.4-22.1 4.3-33.4 14.6-48.3 15-11.1.3-32.8-16-87.6-16-67.4 0-97.7 28.5-119.8 24.1a58.5 58.5 0 0 0 -11.8-1.4c-5.6-.1-7 7.8-1.8 9.7a46.9 46.9 0 0 1 22.3 15.9c3.7 5.1-1.7 11.3-6.1 8.6-11.6-6.9-24.6-10.9-43.4-7.4-2 .3-4.8 2.7-5.2 4.7-3 18.3 4.2 45.4 17.5 63.1s-9.5 67 10.6 117.1c19.4 48.3 52.2 69.3 72.7 79.4s23.5 28.5 23.5 57.9c0 14.6 2.1 43.5 7 69.1-352.2-45.1-642.3-75.7-649-58.1-15.2 40.3 293.2 62.5 451.8 78.6s174.8 35.8 196.2 58.2 35.3 66.2-15.8 62.7-195.8-4.9-202.1-38c-2.3-12.5 83.2 4.4 84.6-15.8s-106.2-27.1-193.3-37.8-154.3-16.1-153.4 1.3 102.9 21.6 154.3 33.9 40.7 41.7-4.5 36.4-184.5-29-224.1-28.9-83.1-9.9-81.2 9.7c2.8 29.4 169.6 33.1 205.4 37.3 23.1 2.7 569 80.7 992.4 141.6-4.2 6.7-24.5 27.5-29.8 34.2-56.2 70 8.4 158 95.3 88.5 38-30.5 63.3-60.5 86.3-98.6 158.8 22.4 304.9 42.2 321.9 44.7 61.5 8.8 152.7 31.4 153 4.6s-54.2-41.7-141.3-56.7-118.5-38.9-92.8-49.5c19-7.9 36.6-3.6 67.3.8s38.6-35.1 4.9-39.1c-20.4-2.5-109.9-12.5-166.4-24.5s-19.6-34.1 3-38.3zm-564.1-129.4c4.4-20.3 84.3-2.3 105.9 10.3 24.5 14.3 32.1 29.7 32.1 29.7l-126.7-20.1a13.7 13.7 0 0 1 -11.6-11 22.2 22.2 0 0 1 .3-8.9zm-177.5-2s-6.8-17.9-6.9-36.5 18.1-17.8 24.1-.7c5.2 15.3 12.2 41.4 12.2 41.4zm31.2-207.3c-6.1 10.9-19.3 2.2-32-19.3-14.6-24.8-47.7-48-65.2-42.5s-22.2 25.9-10.5 37 36.6 24.8 26.8 44.4c-15.8 31.5-52.2 33.2-78.4 24.4-14.6-4.9-30-24.6-24.2-52.2s11-39.3-5.8-44.3c-9.5-2.7-29.1 2.1-31.6 24.9-2.1 19.4-10.7 22.1-16.5 0s-.2-41 24.3-41c19.6 0 30.1-8.5 25.2-25.9-3-10.6-8.4-28.2 9.1-32.8 11.2-3 11.9 8.2 15.7 19.3s4.1 21.7 24.6 24.9c16.7 2.6 31.5-8.2 42.4-31.7 8.3-18 33.5-20 39.7-7.6 4.9 9.8-4.9 23.2-4.9 34.2s32.4 20.9 49.7 44c13.9 18.8 17 34.7 11.6 44.2zm289 385.5c-60.9-8.3-199.3-29.9-239-35.4s-25.9-19.5 35.8-10.4 79.1 5.4 86-.8 2-19.7-.3-25.1c-3.3-7.6 44.3 1.5 44.3 1.5 65.3 9.4 76.8 4.1 69.9 16.8-3.2 5.7-26-3.5-31.3 11.8-2.1 6.3 12 15.6 58.8 22.2s36.8 27.7-24.2 19.4zm194.6-108.3c-13-1.9-31.1-3.6-40.1-4.6s3-19.9 12.7-33.7c11.8-16.9 27.9-30.5 28.6-2a301.5 301.5 0 0 1 -1.2 40.3z" fill="#845567"/><path d="m686.8 250.8c-3.4-17.7-14.1-27.7-30.8-22.7-23.7 7.2-17.1 43.5 6.5 46.3 16.5 1.9 26.7-11.5 24.3-23.6z" fill="#845567"/></svg>