<svg viewBox="0 0 1440.2 899.4" xmlns="http://www.w3.org/2000/svg"><g fill="#eebfaf"><path d="m189.2 578.9c-27.6 7.3-32.5 25.3-25.1 38-57-3.3-46-47.8 9.8-60.2 71.9-15.9 61.6-57.6-2.6-41.8-53.9 13.2-133.4 23.7-161.3.3a23.7 23.7 0 0 0 15.7 3.8c45.3-4.3 147.1-26.3 224.2-40.2s75.7 39.9 57.6 64c-13.1 17.4-69.1 23-118.3 36.1z"/><path d="m429.6 731.2c8.6 21.2-10.3 34-99.1 57.6-38.8 10.3-77 23.2-106.7 37.5l1-.6c57.7-32.1 182.9-60 186.7-101.3 9.6-.2 16.1 1.8 18.1 6.8z"/><path d="m678.3 549.4c23.8 51.8 24.3 59.5-19.4 97.4-22.2 19.4-47.4 36.5-88.1 44s-53.5-11.8-17.1-27.4 15.8-45.8-6.4-37.9-98 40.5-193.3 62.7-108.3 39.2-105.7 52.2a25.4 25.4 0 0 0 1.9 5.9c-18.2 2.4-31.1 1.2-33.4-7.2-4.8-17.1-6.1-34.5 81.5-61.9s232.4-53.3 305.8-84.7-59.3-62.5-115.6-55.9c-21.6 2.5-46.2 8.6-75.5 17.1 8.9-13.9-1.6-27.2-21.9-21.7-30.4 8.2-41.1-5.1-46.2-30.6-3.7-20.2-2.7-31.6 11.2-39.7 29.9-16.9 45.8-9.8 55-2.6 15.2 11.8 48.7 33.3 98.6 51.4a355.3 355.3 0 0 0 117.4 20c12.4 0 42.1-.8 51.2 18.9z"/><path d="m877.2 495.4c14.4 27.2 61.2-18.1 68.7 2.4 6.3 16.9-45.3 31.7-101.1 51.1-37.9 13.1-68.4 18.5-79.1-8.1-9-22.6-15.6-34.1 12.7-45.1 86.6-34.2 116.8-92.9 135.7-140 4.6-11.3 11.8-25 44-31.5 95-19.4 68.6-36.6 101.6-47.3 15.8-5.1 39.8-10.7 59.8-16.9-27 14.2-52.3 30.8-65.9 43.5-18.2 17.1-73.5 23.1-90.4 34.8s-53.7 83.7 40.5 53.5c78.7-25.2 111.4-29.3 124.8-15.4a128 128 0 0 0 -21.1 9.5c-12.6 6.9-97.9 38.7-151.3 55s-93.4 27.2-78.9 54.5z"/><path d="m1372.4 421.7c-24.2 7.8-128 52.8-151.1 44.8-15.9-5.8-6.4-25.5-18.7-35.6s-59.6 4.9-111.4 24.4-87.3 42.7-97.7 17.1c-8.7-21.7 54.8-28.4 112.1-52.5 14.1-5.9 27.6-11 36.7-16.8 8.9 12.5 22.8 16.5 45.9 9.7 31.3-9.2 7.9 57 69.1 31.5 74-31.1 74.6-9.9 115.1-22.6z"/><path d="m470.2 305.5a209 209 0 0 0 -72.7-29.6c-50.1-9.6-86.4-2.8-114.4 5.6a202.3 202.3 0 0 0 -55 26.5c37.2-28.5 121.4-61.2 184.5-49.4a.1.1 0 0 0 .1.1h.1a241 241 0 0 1 66.2 33.2c8.6 6.5.4 19.5-8.8 13.6z"/><path d="m676.3 92.5c-37.4-6.4-43.2-36.3-92.6-30.6-57.6 6.6-41 51.9-119.4 68.3-48.6 10.2-89-28.6-34.5-84.4 14.4-14.7 34.3-23.5 48.4-28h.3c-20.5 6.9-29.7 15.2-40.5 33.3s14.3 40.2 44.3 37.6 57.4-29.7 104.9-35.1c53.6-6 102.4 28.8 124.2 13.7 15.8-11 4.4-33.9-17.4-44.6a70.3 70.3 0 0 1 21.8 10.7c40.3 28.9 17.9 68.7-39.5 59.1z"/><path d="m725.6 115a125.7 125.7 0 0 0 -3.4 12.4c-55.6 2.8-85.4 32.7-88.7 56.5s-7.8-28.3-53-33.7c-17.9-2.1-19.9 11.2-5.8 30.9 5.3 7.2-5.2 16.2-13.9 4.7-14.6-19.2-19.7-42.5-6.4-49.4s27.7-1.9 48.2 6.3 26.8 10.3 47.9-5.3c16.5-12.1 49.5-21.4 75.1-22.4z"/><path d="m720.6 378.4a101.9 101.9 0 0 0 5.5 24.8c-13.7 0-25.8-5.7-35.2-15.2-29.4-29.7-4.4-50.5 4.4-59.4s4.5-35.4-12.3-34.9-27.2 4.4-34.8 27.4c-3.6 11.1-1.4 23.4 7.3 38 10.6 17.9-12.8 31.1-24.5 20.9-18.1-15.6-31.8-40.7-19.9-64 7.6-14.6 16-26.1 42.1-34 14.6-4.3 14.9-19.5 4.4-39.9s23.8-34.6 32.3-4.6c7.2 25.3 20.7 29.9 34.3 30.7 2.9 29.4 4.6 54.8-.5 70.1a1.4 1.4 0 0 1 -.2.6c-9.4 2-17 9.3-16.8 18.6s3.9 17.3 13.9 20.9z"/></g><path d="m1439.6 417.9c-4.1-11.8-44.1-3.3-66.1 3.4s-128.7 53.4-152.2 45.2c-15.9-5.8-6.4-25.5-18.7-35.6s-59.6 4.9-111.4 24.4-87.3 42.7-97.7 17.1c-8.7-21.7 54.9-28.4 112.1-52.5 27.9-11.7 53.4-20.2 47.6-37.5s-33.1-3.4-45.8 3.5-97.9 38.7-151.3 55-93.4 27.2-78.9 54.5 61.2-18.1 68.7 2.4c6.3 16.9-45.3 31.7-101.1 51.1-37.9 13.1-68.4 18.5-79.1-8.1-9-22.6-15.5-34.1 12.7-45.1 86.6-34.1 116.8-92.9 135.7-140 4.6-11.3 11.8-24.9 44-31.5 95-19.4 68.6-36.6 101.6-47.3s101.1-23.4 95.8-38.9-62 11.4-98 20c-28 6.9-131.9 28.9-131.9 28.9.2-50.2-14-80.9-14-80.9a74.8 74.8 0 0 0 4.6-20.3 5.3 5.3 0 0 0 -4.7-5.8h-.2a5.5 5.5 0 0 0 -5.4 3.5c-7.1 15.6-24.6 9.7-14.4-5.1 13.3-19 12.1-27.7 3.2-29.4-29.3-5.6-62.7 57.8-65.1 35.8s-36.6-57.9-100.5-57.5c-60 .5-92.2 31.9-95.6 56.7s-7.7-28.3-53-33.7c-17.9-2.1-19.9 11.2-5.8 30.9 5.3 7.2-5.2 16.2-13.9 4.7-14.6-19.2-19.7-42.5-6.4-49.4s27.7-1.9 48.2 6.3 26.8 10.3 47.9-5.3c17.4-12.8 53.4-22.5 79.5-22.5 45.3 0 76 18.1 97.1 35.3 7.7 6.4 17.6 8.7 30.5-1.6 18.3-14.3 26.1-21.7 40.9-20.4 8.1.9 10.8-6.2-2.4-10.8s-32.4.3-35.8 2.1c0 0-29.6-39.8-86.2-76.8-23.3-15.1-48.2-25.9-72.5-35.4-15.1-6.1-23.5 10.6-7.6 15.4a71.9 71.9 0 0 1 21.9 10.7c40.2 28.9 17.8 68.7-39.6 59.1-37.4-6.4-43.2-36.3-92.6-30.6-57.6 6.6-41 51.9-119.4 68.3-48.6 10.2-89-28.6-34.5-84.4 16.2-16.7 39.7-25.7 53.7-29.5s9.8-19.9-6.1-15.6c-78.3 21-150.7 77.3-190.1 132.9-22.9 32.7-45.4 76.7-55.9 115.3-4.5 15.9 12.1 24.9 21.8 20.6 27.3-12.1 104.9-42.1 194.7 3.5a230.3 230.3 0 0 1 31.1 18.9c8.6 6.5.4 19.5-8.8 13.6a209 209 0 0 0 -72.7-29.6c-50.1-9.6-86.4-2.8-114.4 5.6-34.3 10.4-79 35.6-93.1 68.8-20.8 49.2-3.6 95.2-3.6 95.2s-111.4 22.9-160.7 28c-39.2 4-29 48.3 0 45.5 45.3-4.3 147.1-26.3 224.2-40.2s75.7 39.9 57.6 64c-13.1 17.4-69.1 23-118.3 36.1s-26.3 60.1 9.8 50.2 140.5-42 185.7-56.8 36.7-48.5 6.4-40.3-41.1-5.1-46.2-30.6c-3.7-20.2-2.7-31.6 11.2-39.7 29.9-16.9 45.8-9.8 55-2.6 15.3 11.8 48.7 33.3 98.6 51.4a355.3 355.3 0 0 0 117.4 20c12.4 0 42.1-.8 51.2 18.9 23.8 51.8 24.3 59.5-19.4 97.4-22.2 19.4-47.4 36.5-88.1 44s-53.5-11.8-17.1-27.4 15.8-45.8-6.4-37.9-98 40.5-193.3 62.7-108.3 39.2-105.7 52.2 14.3 26.1 63.8 9.2 110.6-35.6 117.5-18.4c8.6 21.2-10.3 34-99.1 57.6s-174.8 60.6-161.8 98.3 82-18.7 221.9-72.2 626.7-241.6 833-312.2 220.3-72.8 216-84.8zm-748.7-29.9c-29.4-29.7-4.4-50.5 4.4-59.4s4.5-35.4-12.3-34.9-27.2 4.4-34.8 27.4c-3.6 11.1-1.4 23.4 7.3 38 10.6 17.9-12.8 31.1-24.5 20.9-18-15.6-31.8-40.7-19.9-64 7.6-14.6 16-26.1 42.1-34 14.6-4.3 14.9-19.5 4.4-39.9s23.8-34.6 32.3-4.6 26.1 30.9 42 30.9c27.1 0 38.1-22.5 40.9-40.2s35-23.5 30 3.6-3.4 38.2 13 42.7 28.9 8.5 37.4 26.4c12 25.3 2.5 53.6-17.9 73.3-27.5 27-31.3-4.9-22.6-45.6 2.4-11.5 1-24.4-4.9-33.8-8.2-12.8-29.7-13.9-40.4-2.9-7.9 8.3-14.6 21.5-.5 36.7 9.8 10.7 27.2 39.1-2 60.4s-56.4 16.8-74-1z" fill="#845567"/><path d="m729 338.3c19.3 0 24.3 12.3 24.3 19.2s-2.2 21.8-21 22.5-25.5-11.5-25.6-22.5 10.5-19.2 22.3-19.2z" fill="#845567"/></svg>