<svg viewBox="0 0 830.9 625.1" xmlns="http://www.w3.org/2000/svg"><g fill="#eebfaf"><path d="m635 155.3-12.4.4c-4.1.1-5.9 7.5.4 8.8 3.7.8 11.2 2.7 13.6 12.2s-8.4 14.8-15.8 11.1c-1.5-3-3.1-6.4-4.7-10.1-3.6-8.5-2.4-32.8 1.4-45.8s21.5-50.9 17.9-66.7a14.2 14.2 0 0 0 -8.6-9.9c13.5 3.1 16 15.2 11.7 32.5s-11.7 40.7-14.6 47.6c-3.9 9.1 4.1 12.4 11 12.4s8.5 7.2.1 7.5z"/><path d="m671.3 111.5c-3.8 1.8-14.7-1-18.8-1.7s-5.5-6 .5-6.8c0 0 12.2-3.5 17.1-2.5s5 9.3 1.2 11z"/><path d="m684.5 86.8c-9.8-7.4-21.9-5.4-27.3-3.2s-8-4.9-4.8-7.3 16.3-10.4 32.3 2.3c6.9 5.4 4.2 11.5-.2 8.2z"/><path d="m722.1 234.5c-6.3 2.7-15.4-.2-45.6 10.6s-43.4 8.5-66.7 117.1c-20.5 95.5-8 204.9-1.9 246.1a19.7 19.7 0 0 0 15.1 16.3l-58.4.5a19.7 19.7 0 0 0 19.6-21.7c-17.9-182.9 27.9-310.5 31.7-324.5s4.4-18.5 1.2-28-24.2-22.9-25-31.9a23.2 23.2 0 0 1 5.7-16.7c-10.2 16.4 9.4 27.8 24 41.7 10.4 10 23 6.9 54.4-8.6 28.8-14.2 55.5-7.6 44.2-23.9l2.5 2.9c7 8.7 5.5 17.3-.8 20.1z"/><path d="m767.6 624.7-40.1.4c6.4-2.5 11.7-9.7 12.8-16.8 23.5-153.5 29.9-167.8 9.1-248.4-4-15.4 10.9-21.3 16.3-3.4 23.7 77.7-.2 195.4-8.9 245.5-1.6 9.2 2.9 19.2 10.8 22.7z"/><path d="m187.4 211.7h-11.9c-5.7 0-6 7.7.1 7.7s10.1 3.5 11.8 9c2.3 7.6-4.8 13.4-12.4 8.7-10.6-13.1-11.5-36.3-2.8-54.8s21.4-76.1-31.7-75.6c4.1-3.1 9.8-5.1 17.9-5.1 18.9 0 29.4 12.6 29.7 28 .3 10 2.8 21.4-3.7 43.1-1.7 5.8-7 13.7-7.7 21.3s5.9 10.1 10.8 10.1 4.2 7.6-.1 7.6z"/><path d="m223.8 168.2c-3.8 1.7-14.7-1-18.8-1.7s-5.5-6 .6-6.9c0 0 12.1-3.5 17-2.4s5.1 9.2 1.2 11z"/><path d="m230.4 143.3c-5.5-3.1-16.9-3.5-22.8.3s-10.1-2.4-3-7c4.8-3.1 20.3-3.8 29.5 1.6s1.8 8.3-3.7 5.1z"/><path d="m337.1 230.6a26.3 26.3 0 0 1 -4.1-2.1c-13.9-10.9-6.8-34.4-1.9-45.6s13.1-25.6 9.5-35.5a18.8 18.8 0 0 0 -3.5-6.1c3-.9 3.6-4.5.5-7.2-4.8-3.9-10.5-5.8-15.9-5.2-7.3.8-7-6.4-1.1-7.7 3.9-1 14.4-.2 20.8 3.8s5.6 7.5 5.1 17.7-1.2 20.8-3.6 26.3-10.6 17-9.3 22.7 9.4 4.6 12.2 5 3.6 6.6-.4 6.6c-2.4 0-5.9-.4-10.7-.4s-6.4 7.1-.1 8.1c4.4.7 7.6-.3 12.3 3.4s1.5 21.2-9.8 16.2z"/><path d="m376.2 163.8c-3.1 1.4-12.2-.9-15.6-1.4s-4.5-5 .5-5.7c0 0 10.1-2.9 14.2-2.1s4.1 7.7.9 9.2z"/><path d="m386.6 141.2c-5.5-3.2-16.9-3.6-22.8.2s-10.1-2.4-3-7c4.8-3.1 20.3-3.8 29.4 1.6s1.9 8.4-3.6 5.2z"/><path d="m414.6 623.9h-48.3a22.5 22.5 0 0 0 15.1-16.6c13.8-61 23.9-129.1 23.9-240.8 0-20.1 15.8-22.9 15.8-.7 0 113.6-14.8 193.6-21.6 232.4a22.8 22.8 0 0 0 15.1 25.7z"/><path d="m103.2 624.5h-53.5a22.9 22.9 0 0 0 17.6-25.9c-14-91-3.9-176.5.6-198.3 3.3-16.1 18.5-15.3 15.5 2.5-14.9 88.2-4 168.4 2.5 203.5a22.8 22.8 0 0 0 17.3 18.2z"/><path d="m419.9 264.7c-20.3 11.7-45 15.4-61.7 6.7-9.8-5-23.9-8.3-39.8 10.7s-18.9 40.3-33.3 142.9c-9.4 67.6-26.9 136.9-37.9 172.7-3.8 12.4.9 23.3 11.6 26.5h-75.2a22.7 22.7 0 0 0 17.9-23.2c-2.4-57.4-8.8-201.4-11.3-235.9-3.3-43.4-13.1-59.1-35.4-77.6s-44.3-15.3-46.6-23.7c-1.7-6.3 3.2-14 9.8-19.1l-.5.7c-12 16.1 44.8 38.5 55.8 50.5s17.2 19.8 24.5 10.4 25-23.9 38-35.9 24.2-16.7 18.8-23.9c5.7 2.6 10.5 8.2 10.1 13-.6 6.8-24.5 8-47.8 37.1s-9 50.8-6.3 134.4c1.5 47.9 5 96.5 5.7 133 .5 22.4 20.2 24.7 27.1.5a1183 1183 0 0 0 39.8-210.5c5-51.7 17.3-71.2 31.6-85.3 21.6-16 53.1-5.8 76.5-7.7 25-2 36.9-12.3 34.4-28.7.6 2.4 1.1 5.1 1.7 8.2 3.7 18.7 3 18.1-7.5 24.2z"/></g><path d="m174.1 136.6c-4.8-3.1-20.4-3.8-29.5 1.6s-1.8 8.3 3.7 5.1 16.8-3.5 22.8.2 10-2.3 3-6.9z" fill="#845567"/><path d="m619.7 103c6 .8 4.7 6.1.6 6.8s-15 3.5-18.9 1.7-3.7-9.9 1.2-11 17.1 2.5 17.1 2.5z" fill="#845567"/><path d="m598.9 78.6c16-12.7 29.2-4.7 32.3-2.3s.5 9.5-4.8 7.3-17.4-4.2-27.3 3.2c-4.4 3.3-7.1-2.8-.2-8.2z" fill="#845567"/><path d="m172.3 159.6c6 .9 4.6 6.2.5 6.9s-15 3.4-18.8 1.7-3.8-10 1.2-11 17.1 2.4 17.1 2.4z" fill="#845567"/><path d="m335.8 156.7c4.9.7 3.8 5.1.4 5.7s-12.4 2.8-15.6 1.4-3.1-8.3 1-9.1 14.2 2 14.2 2z" fill="#845567"/><path d="m509.6 390.2c-2.4-36-6.9-71.2-20.3-93.8s-28.3-34.1-38.6-42.7-10.5-21.6-11.5-27.8-2.7-14.3-8.1-16.4c-10-3.8-16.4.6-23.6-.3s-3-13.8 3.2-22.7 36-57.7-.8-98.4c-17.4-19.4-54.4-23.9-76.7-13.3-29.2 13.9-38.8 42.3-38.5 83.8s20.9 72.5 26.3 79.1-10.2 12.9-18.3 22.2-13.3 17.8-18.3 14.3-2.6-17.6-13.3-29.3-17.2-4.8-26.3-14.5c-6.5-7.1-1.5-34.4.1-42.1s10-15 12-25.2c1.3-6.6 1.7-15.7-1.4-22-2.2-4.4-2.5-10.7-2.5-10.7 0-42.5-9.1-54-19.7-63.8-21.1-19.4-63.1-17.9-86-1s-30.5 48.4-29.9 66.1c.1 3.8-.4 9.6-2.1 13.3a41 41 0 0 0 8.6 43.6c4.9 4.7 9.3 13.2 11.4 19.1s4.7 19.6.2 22.7c-1.6 1.1-6.2-.2-9.5-.3-13.2-.2-26 14.4-28.7 19.5s-3.9 19-19.9 30c-41.1 28.1-61.1 60.2-74 151.5s15.5 194 15.5 194h53.2c-20.8-100.4-9.2-200.8-4.2-224.7 3.3-16.1 18.5-15.3 15.5 2.5-14.8 88.2-6.9 173.7 5.1 221.4l116.2-.3c-2.5-57.4-12-224.3-14.5-258.8-3.2-43.4-13.1-59.1-35.4-77.6s-44.3-15.3-46.6-23.7c-3.3-11.9 17.3-29.2 28.4-23.2s34.8 35.7 42.8 45.7 20.8 12.1 28.8-.4c10.4-16.5 30.2-40.5 39.4-40.9s17.6 7.8 17.1 14.5-24.5 8.1-47.8 37.1-9 50.8-6.3 134.4c1.5 47.9 4 96.5 5.7 133 .8 16.9 2.5 38 4.1 55.5.5 5.6 8.6 6.1 9.7.5 3.6-17.8 8.3-39.1 13.3-55.5 26.5-86.5 35-161.5 39.8-210.5 5.6-58.1 20.5-75.5 36.9-90.4s31.2-6.3 41.6-17.1c16.4-17.1 27.4-20.4 42.7-23.7 19.9-4.2 20 2.7 23 17.7 3.7 18.6 3 18-7.5 24.1-20.3 11.7-45 15.4-61.7 6.7-9.8-5-23.9-8.3-39.8 10.7s-18.9 40.3-33.3 142.9c-9.5 67.6-45 199-45 199l137.2 1.1c15.8-65.8 28-135.8 28-258.5 0-20.1 15.8-22.9 15.8-.7 0 113.6-19.4 219.2-26.2 258l92.3 1.2c22-92.4 27.2-163.9 22.4-234.9zm-322.2-178.5h-11.9c-5.7 0-6 7.7.1 7.7s10.1 3.5 11.8 9c2.6 8.6-6.9 14.9-15.4 6.2-4.7-4.7-8.3-18.5-25-35.4s-21.6-27.5-21.6-39.4c0-9.3 3-13 4-23.1 1-11.8 1.5-35.1 29-35.1 18.9 0 29.4 12.6 29.7 28 .3 10 2.8 21.4-3.7 43.1-1.7 5.8-7 13.7-7.7 21.3s5.9 10.1 10.8 10.1 4.2 7.6-.1 7.6zm36.4-43.5c-3.8 1.7-14.7-1-18.8-1.7s-5.5-6 .5-6.9c0 0 12.2-3.5 17.1-2.4s5.1 9.2 1.2 11zm6.6-24.9c-5.5-3.1-16.9-3.5-22.8.2s-10.1-2.3-3-6.9c4.8-3.1 20.3-3.8 29.5 1.6s1.8 8.3-3.7 5.1zm106.7 87.3c-13.9-6.1-19.4-20.4-22.2-27.8-11.8-30.9-9.3-52.5-4.2-59.4 2.8-3.8 10.3-9.1 19.9-3.6 7.9 4.6 11.7-1.7 7-5.7s-10.5-5.9-15.9-5.2c-7.3.8-7-6.4-1.1-7.7 3.9-1 14.4-.2 20.8 3.9 4.8 3.1 5.6 7.4 5.1 17.6s-1.2 20.9-3.6 26.3-10.7 17-9.3 22.7 9.4 4.6 12.2 5 3.6 6.6-.4 6.6c-2.4 0-5.9-.4-10.7-.4s-6.4 7.1-.1 8.1c4.4.7 7.6-.3 12.3 3.4s1.5 21.2-9.8 16.2zm39.1-66.8c-3.1 1.4-12.2-.9-15.6-1.4s-4.5-5 .5-5.7c0 0 10.1-2.9 14.1-2s4.2 7.6 1 9.1zm10.4-22.6c-5.5-3.2-16.9-3.6-22.8.2s-10.1-2.4-3-7c4.8-3.1 20.3-3.8 29.4 1.6s1.9 8.4-3.6 5.2z" fill="#845567"/><path d="m800.3 252.6c-10.5-18.1-30.9-28.4-44.3-30.8-7.2-1.3-11.2-3.6-14.9-9.5a91.4 91.4 0 0 0 -11.6-13.9c-15.9-15.8-28.5-10.1-32.9-25.5-3.4-11.6 6.4-24.9 10.7-30.7a10.8 10.8 0 0 1 5.7-3.5c4.3-1.2 11-5.6 14.7-20.1s4.3-19.7 1.9-24.8c-1.4-2.7-1.9-7.5-1.9-9.7-1.2-59.2-23.4-82-60-83.9-50.4-2.7-76.5 23.2-87.8 72.5-10.9 47.7 3.5 70.5 11.2 83.5 5 8.4 4.7 16.3 5.9 23.7.6 4 .5 7.1-3.2 8.8-9.5 4.5-14.4 13.8-15 20.5-.7 9.6-4.9 9.4-8.5 9.4-45.4.2-73.3 34.8-77.2 50.1-5.2 20.9 31.1 15.1 31.1 150 0 90.2-14.6 175.3-20.2 206.4h82.6c-24-194.5 25.4-331.6 29.3-346.2s4.4-18.5 1.2-28-24.2-22.9-25-31.9 5.3-20.3 12.9-20.4 10.7 16.9 20.7 33.5c4.3 7.2 15.2 6.3 21.3 1.1 16.7-14.1 39.6-31.6 48.3-34.7s20.5 7.2 27.6 15.9 5.5 17.3-.8 20.1-15.4-.2-45.6 10.6-43.4 8.5-66.7 117.1c-25.8 120.4.8 262.9.8 262.9h127.2c25.5-169.4 33.1-181.8 11.6-265.2-4-15.4 10.9-21.3 16.3-3.5 29.5 96.9-14.7 255.6-11.6 268.7h52.1c44.2-243.4 20.8-326.7-5.9-372.5zm-165.3-97.3-12.4.4c-4.1.1-5.9 7.5.4 8.8 3.7.8 11.2 2.7 13.6 12.2s-10.1 15.8-17.4 10.1c-14-10.9-11.6-30.5-22-47.7-4.4-7.3-9.1-19.9-7.6-37.4s6-50.3 34.3-46.9c16 2 19.2 14.6 14.6 33s-11.7 40.7-14.6 47.6c-3.9 9.1 4.1 12.4 11 12.4s8.5 7.2.1 7.5zm36.3-43.8c-3.8 1.8-14.7-1-18.8-1.7s-5.5-6 .5-6.8c0 0 12.2-3.5 17.1-2.5s5 9.3 1.2 11zm13.2-24.7c-9.8-7.4-21.9-5.4-27.3-3.2s-8-4.9-4.8-7.3 16.4-10.4 32.3 2.3c6.9 5.4 4.2 11.5-.2 8.2z" fill="#845567"/></svg>