<svg viewBox="0 0 1445.4 848.3" xmlns="http://www.w3.org/2000/svg"><path d="m1166 384.6c18.1 32.2-15.8 55.1-46.1 47.8s-39.3-27.3-62.6-42.6-45.2 3.6-56.2 11.7c-14.8 10.8-27.9.4-19-14.6 18.4-31.3 49.9-43.5 66.2-47.5-17.6 9.4-35 21.6-29.3 29.9 7.2 10.7 43.9-9.5 59.2 1.7s40 31.1 61.3 29.9 20.2-22.7 11.4-34.5l-.2-.3a69.1 69.1 0 0 1 15.3 18.5z" fill="#eebfaf"/><path d="m1274.6 439.4c-39-60.7-81.7-35.7-86.7-46.9-3.2-7 1.6-13.4 5.6-17.2a1.8 1.8 0 0 0 .5-.7c-2.4 6.1 0 16.4 22.2 15.9 17.7-.4 45.1 12.5 53.7 21.6 26.8 28.4 37.5-9.5 13.2-20 14.6 6.3 27.2 14.3 32.9 22.8 28.1 42.1-20.6 57-41.4 24.5z" fill="#eebfaf"/><path d="m130.3 725.1c-6.7 5.3-14 9.9-41.6 31.9 25.9-36 21.4-40 8.9-40-6.9 0-13.2-4.4-17.6-8.7 10.7-.3 24.4-.6 35.4-.3 15.8.3 23.1 10.8 14.9 17.1z" fill="#eebfaf"/><path d="m224.5 353.5h33.2a7.2 7.2 0 0 1 4.4 12.9l-12.1 9.5c-19.5-3.8-24.4-14.9-25.5-22.4z" fill="#eebfaf"/><path d="m298.1 632c-16.8 14.2-34.3 26.8-51.4 36.4 14.7-10.9 30-34.5-.3-37.6-12.7-1.3-46.6-.8-85.7 0-25.6.5-38.7-12.1-44.7-20.8 45.1.2 139.6.5 162 0 28.3-.6 36.5 8.2 20.1 22z" fill="#eebfaf"/><path d="m321.9 471.9-7.2 5.8c-50.1.8-89.8 1.4-98.3 1.4-16.4 0-25.5-10.9-29.5-20h130.5a7.2 7.2 0 0 1 4.5 12.8z" fill="#eebfaf"/><path d="m413.7 382.2c-50.4-4.9-104.4-2.6-143.8-4.5l28.9-22.6a7.1 7.1 0 0 1 4.4-1.5h122.6a248.6 248.6 0 0 1 25 1 7.2 7.2 0 0 1 3.8 12.8l-20.4 16.3c-6.6-.3-13.5-.8-20.5-1.5z" fill="#eebfaf"/><path d="m471.5 559.7a131 131 0 0 1 -29.7 17.1c7.5-5.4 13.1-16.6-2.9-19.6-26.2-4.9-107.6-2.7-171.2-.4l-12.9-8.8c-6.6-4.3-15.7 3.3-6.1 9.5l-57.2 2.2c-20 .4-25.4-10.7-26.4-20h299.4c16.7 0 29.6 2.5 7 20z" fill="#eebfaf"/><path d="m462.2 384.8 20.5-16.3a6.8 6.8 0 0 1 8.7-.1 51.3 51.3 0 0 1 13.8 16.2 59.3 59.3 0 0 1 5.6 13.6c-4.7-11.2-22.8-12.6-48.6-13.4z" fill="#eebfaf"/><path d="m793.1 489c-10.7 6-23.3 10.8-37.3 14.8l.8-.4c11.2-8.1-5.7-19.7-28.8-24.9-20.7-4.6-95.3-4.1-164.8-4.1-40.5 0-143.5 1.6-227 3l20.9-16.8a7.8 7.8 0 0 1 4.5-1.5h171.2c82.7 0 166.3-2.6 213.8 2.8s64.7 17 46.7 27.1z" fill="#eebfaf"/><path d="m311.5 257c-.5 6.9 5 11.7 10.4 16.1 26.1 21.6 43.6 38.1 80.1 38.1 48.9 0 69.3 1.5 97.2 7.1s40.2 27.1 40.2 27.1l-23.8 27.4 4.4 63.3 212.4 13.7 115.8 27 94.2 13.4s-66.1-143.9-66.1-125.3-7.8 11.9-8.5 1.7.4-29.7.4-29.7l-3.1-24.4 52.9-41.9 61.8 39.1 52.6-41.7 97.5 59.6 79.5 12 63.7-46.1s-55.9 19.6-70.1 6c-23.1-22.2-29.4-29.5-29.4-29.5l-59.6-97.5-361.9 85.5s-118.7-67.8-132.7-62.9c-17.5 6.1-35.8-3.6-35.8-3.6l-90-58.7-184.9-13.8-17.4 30.9s25.9 23 20.2 107.1z" fill="#eebfaf"/><g fill="#845567"><path d="m569.6 504.3 32.5-25.9c3.1-2.5-3.6-13.8-8.1-10.2l-32.5 25.9c-4.3 3.5 4 13.5 8.1 10.2z"/><path d="m235.8 512.1 48.7-31.9c4.6-3.1-.4-15.4-7.2-10.9l-48.7 31.9c-6.4 4.3 1.1 14.9 7.2 10.9z"/><path d="m162.6 622.8-36.4 45.5c-4.8 6 5.6 13.8 10.2 8.1l36.4-45.5c3.4-4.3-5.1-14.4-10.2-8.1z"/><path d="m181 661.2 24.9-31.1c2.4-3-3.5-9.9-7-5.6s-24.9 31.1-24.9 31.1c-3.3 4.2 3.9 9.5 7 5.6z"/><path d="m386.8 429.1c9 6 14.8-3.7 6.3-9.4l-68-45.6c-6.5-4.4-15.8 3.1-6.3 9.4z"/><path d="m613.8 490.5 67.9-9.6c8.9-1.3 7.1-10.6-1.4-9.4l-67.8 9.6c-6.5 1-8.1 10.8 1.3 9.4z"/><path d="m1284.1 511.3c31.4 28 98.9 28.7 80.8-40.9-15.6-60-61.4-82-83.7-89.7-19.8-6.9-32.8-10-44.5-10-6.4 0-8.1 7.2-1.1 8 27.5 3.4 68.7 18.6 80.4 36.2 28.1 42.1-20.6 57-41.4 24.5-39-60.7-81.6-35.7-86.7-46.9-3.2-7 1.6-13.4 5.6-17.2a4.4 4.4 0 0 0 -2.3-7.6c-6.3-1.2-8.3 1.1-14.2.9s-10.2-3.2-13.3-5.3c-4.8-3.3-6.6-4.6-12-6.9s-12.1 1.5-5.4 6.3a68.7 68.7 0 0 1 19.7 21.9c18.1 32.2-15.8 55.1-46.1 47.8s-39.3-27.3-62.6-42.6-45.2 3.6-56.2 11.7c-14.8 10.8-27.8.4-19-14.6 19.8-33.7 54.7-45.2 69.7-48.3 4.2-.9 5.4-4.9 3.5-8.3-7.2-13.3-18.1-21.5-24.7-25.7a13.2 13.2 0 0 0 -12.9-.5c-10.9 5.2-19.4 15.1-23.9 20.8-2.1 2.8-6.6 2.6-8.4 2.6-24.4.5-34.8 5.7-47.1 11.4-3.8 1.8-7.5.4-8.5-.5-18-15.1-28-17.1-33.6-18s-10.3 2.2-12.1 5.3c-2.7 4.7-6.3 15.8-7 23.5-1.2 12.6-2.9 46.6 10.3 76.7a177.7 177.7 0 0 0 24.8 41.4c7.6 10.5.6 14.6-9.8 11.1-19.9-6.8-45.2-14.1-100.4-25.8-87-18.4-185-22.2-230.9-22.7s-51.5-40-39.7-57.3 14.6-29.5-10.2-43.7c-20.6-11.6-46.8-12.4-100.1-7.1s-77-6.8-104.6-37.9c-17.1-19.3-31.5 0-20 9.9 29.7 25.7-10 37.4-35.5 37.4h-33.6c-27.9 0-27.9 22.4 0 22.4h30.3a7.2 7.2 0 0 1 4.4 12.9l-33.5 26.2c-8.5 6.6.4 17.1 8.5 10.8l61.7-48.4a7.1 7.1 0 0 1 4.4-1.5h122.6c8.8 0 17.2.3 25 1a7.2 7.2 0 0 1 3.8 12.8l-29.6 23.6c-8.4 6.8 3.4 20.7 11.4 14.4l46.3-36.9a6.8 6.8 0 0 1 8.7-.1 51.3 51.3 0 0 1 13.8 16.2c15.2 27 4.9 51.8-18.3 51.8h-309.1c-20.1 0-23.2 22.7 0 22.7h139.6a7.2 7.2 0 0 1 4.5 12.8l-15.1 12.1c-6 4.8 2.5 14.7 8.1 10.1l42-33.4a6.9 6.9 0 0 1 4.5-1.6h171.2c82.7 0 166.3-2.6 213.8 2.8s64.7 17 46.7 27.1c-60 33.5-184.7 33-247.4 33h-394.9c-22 0-21.4 17.7-4.4 17.7h318.2c16.6 0 29.5 2.5 6.9 20.1-49.4 38.4-132.2 35.1-141.9 34.5s-68.2-42.1-74.8-46.3-15.7 3.4-6.1 9.5l36.8 23.5c6 3.9 3.3 13.3-3.9 13.3h-187.8c-18.9 0-15.8 15.7-.7 15.7s156.7.6 184.9 0 36.5 8.2 20.1 22c-37.1 31.4-77.7 54.7-109.8 56.5-21.4 1.2-103.5 3.8-121.7 3.8s-15.6 16.3-.6 16.3c8.9 0 32.4-1.1 49.4-.6s23.1 10.9 14.9 17.1-17 11.7-61 47.5c-18.9 15.4-56.4 43.7-65.6 56.1s1.6 25.9 13.2 16.1c20.3-17.2 249.3-186.3 478.8-253.4s409.9-82.4 420.3-83.7 14.9-1.1 18 5.2c5.7 21.7 11.7 49.4 4.3 52.4-12.5 5.1-55 17.9-58.1 43.3s56.4 63.9 157.6 65.9c92.6 1.9 125.1-20.5 146.5-34.8s40.4-4 101.4 18.2 68.3-5.5 57.2-29.3-38.7-40.2-79.9-56.8-70.1-13.5-69.9-25.6c.1-5.5 3.2-49.6 3.2-49.6.6-15 54-15.6 87.8 14.7zm-243.8 37c-6.1 0-18 .1-29.4 1.2a3.9 3.9 0 0 1 -3.8-3.3c-.5-6.7-.7-21.6 7.3-33.2 3.1-4.4 7.6-4.1 11.9-1.5 7.9 5 19 15.5 18.4 34.4 0 .8-1.7 2.4-4.4 2.4zm89.5 29.1a17.4 17.4 0 0 1 -9.1 0c-2.1-.6-2-3.5-1.6-4.8a68.6 68.6 0 0 0 2.7-16.8c.2-3.3 2.5-2.9 3.2-.1a115 115 0 0 0 5.6 16.4c1.2 2.6.7 4.9-.8 5.3z"/><path d="m450.2 221.3a66.2 66.2 0 0 0 12.4-14.6 4.5 4.5 0 0 1 7.8.1c5.1 8.6 15.6 21.6 35.7 30.3a4.7 4.7 0 0 1 2.8 4.2v63.2c0 4.7-54.3-1.1-54.3-8.3s-4.8-59.4-5.9-71.2a4.3 4.3 0 0 1 1.5-3.7z"/><path d="m609.2 346.7c4.1-1.4 11.8-5.4 18.3-17a4.3 4.3 0 0 1 7.4-.1c2.2 3.4 4.3 8.8 4.3 17.1v60.5c0 6.2-33.3 7.1-33.3-1.8 0-7.4.3-43.4.4-54.6a4.2 4.2 0 0 1 2.9-4.1z"/><path d="m655.2 408.1v-81.3a4.6 4.6 0 0 1 3.8-4.5 38.8 38.8 0 0 0 6.3-1.6 4.7 4.7 0 0 1 5.2 1.5c4 5 14.4 15.2 33.9 16.3a4.8 4.8 0 0 1 4 2.5c2.4 5.1 10.6 17 34.4 21.8a4.5 4.5 0 0 1 3.6 4.5v54.6c0 4.9-91.2-2.2-91.2-13.8z"/><path d="m765.8 363a108.3 108.3 0 0 0 35.6-8.9 4.7 4.7 0 0 1 5.7 1.3 50.9 50.9 0 0 0 7 7.2 4.8 4.8 0 0 1 1.7 2.9c1.5 10.5 9.3 63.2 8.9 68.4s-63.6-4.4-63.2-12.5c.4-6.5.1-41.3 0-53.7a4.7 4.7 0 0 1 4.3-4.7z"/><path d="m837.6 366.5c6.3-.6 16.3-1.9 23.5-4.5a4.9 4.9 0 0 1 6.7 4.6 210.6 210.6 0 0 0 16.7 79.6c1.9 4.6-4.6 10.7-9.3 9.1-13.1-4.3-32-11.5-31.7-16.6.4-7.4-2.9-37.5-10.2-66.1a4.9 4.9 0 0 1 4.3-6.1z"/><path d="m301.2 163.6c13.7 11 28.5 13.7 41.3 13.7 23.3 0 42.1-11.7 49.8-17.3a2.5 2.5 0 0 0 -.7-4.3 65.6 65.6 0 0 1 -23.2-13.3 2.4 2.4 0 0 1 1.6-4.2 3 3 0 0 1 1.4.5c13.4 9.2 28.9 12.2 43.2 12.2a124.3 124.3 0 0 0 27.6-3.3h.7a2.5 2.5 0 0 1 .8 4.8 84 84 0 0 1 -32.2 6.4h-4.6a2.4 2.4 0 0 0 -1.9 1c-16.9 24.4-44.5 29.3-63.7 29.3a116.3 116.3 0 0 1 -19.1-1.6h-.4a2.3 2.3 0 0 0 -2.4 2.3c.1 12.4.5 61.5.5 66.4s15.8 16.7 19.6 16.7c.5 0 .8-.2.8-.7 0-4 2.2-32.8 2.2-50 0-5.8 2.5-8.2 5.4-8.2s7.5 3.8 7.5 9.5c0 16.1-2 48.8-2 52.9s14.5 18.6 31.2 23.7c6.7 2 16.4 3.2 25.6 3.2 13.4 0 25.9-2.5 27-8.1 1.6-8.4-3.4-59.4-4.5-69.9a2.2 2.2 0 0 0 -2.1-2c-15.5-1.4-27-9.3-34.1-16a2.5 2.5 0 0 1 1.8-4.3l1 .2c11 4.9 20.4 6.8 28.4 6.8 21.3 0 32.4-13.7 36.9-21.2a2.3 2.3 0 0 1 2-1.1 2.3 2.3 0 0 1 2.1 1.4c5.6 13.2 18.4 27 45.5 32.8a77.1 77.1 0 0 0 16.8 1.9c10.6 0 17.7-2.6 21.8-4.8a2.3 2.3 0 0 0 -.4-4.2 40.5 40.5 0 0 1 -19.6-15.3 2.3 2.3 0 0 1 1.9-3.7 2.7 2.7 0 0 1 1.5.5c8.8 7.2 19.8 11.8 33.3 13l3.7.2c13.7 0 20.9-7.5 24-12a2.4 2.4 0 0 0 -1.4-3.8 51.8 51.8 0 0 1 -21.6-10.2 2.5 2.5 0 0 1 1.5-4.5 1.5 1.5 0 0 1 .9.2c8.2 3 18.8 5.7 29.1 5.7 13.6 0 26.8-4.7 33.5-19.1a46.9 46.9 0 0 0 .2-40.6 2.4 2.4 0 0 1 2.3-3.3 2.2 2.2 0 0 1 1.9 1.1 70.6 70.6 0 0 1 6.7 14 2.5 2.5 0 0 0 2.3 1.6 2.1 2.1 0 0 0 1.5-.5c11.4-8.2 25.6-13.3 28.6-14.4a1.8 1.8 0 0 0 1-.7c12.8-16.4 27.6-21.2 40.4-21.2a53.4 53.4 0 0 1 6.9.5c2.8.4 2.5 4.7-.4 4.7-19.2.1-27.1 8.9-30 13.6a2.4 2.4 0 0 0 1.4 3.4 58 58 0 0 1 25.1 14.6 2.4 2.4 0 0 1 -2.9 3.7c-11.6-6.6-21.9-9.1-30.9-9.1-23.7 0-37.8 17.1-40.1 20.2a2.2 2.2 0 0 0 -.5 1.1c-5 38.3-37 41-44.3 41.1a2.3 2.3 0 0 0 -2.1 1.5c-6.7 15.6-21.7 19.8-29.9 21a2.4 2.4 0 0 0 -1 4.3c7.8 5.4 20.4 6.8 32 6.8 4.9 0 9.6-.2 13.7-.6h.3a2.5 2.5 0 0 1 .9 4.8 63.9 63.9 0 0 1 -24.3 4.8 72.7 72.7 0 0 1 -36.6-10.3 2.7 2.7 0 0 0 -1.2-.3 2.3 2.3 0 0 0 -1.6.6c-10.6 9.5-24.6 11.3-30.1 11.6a2.4 2.4 0 0 0 -2.3 2.5c.4 12.1 2 66.1 2.4 69.1s4.2 1.6 18.4 10.4 26.8 22.5 17.6 37.5-10.5 37.2-4.3 45.1c3.7 4.8 13.5 7.1 21.1 7.1 5.5 0 9.8-1.2 9.8-3.6 0-5.2 1.5-49 1.8-58.6a2.5 2.5 0 0 0 -1.8-2.4 35.2 35.2 0 0 1 -17.5-12.8 2.6 2.6 0 0 1 2-4.1 2.4 2.4 0 0 1 1.4.5c7.2 5.1 13.7 7 19.6 7 11.7 0 20.3-7.6 24.2-11.8a2.3 2.3 0 0 0 -1.1-3.8 69.9 69.9 0 0 1 -23-14.3 2.5 2.5 0 0 1 1.6-4.4l1.3.3c14.1 7.7 27 10.6 38.4 10.6 27.4 0 46.5-17.1 55.2-26.9a2.3 2.3 0 0 1 1.8-.8 2.5 2.5 0 0 1 2.5 3c-3.2 13.6-12.5 21.7-16.8 24.8a2.2 2.2 0 0 0 -.4 3.4c7.3 8.2 17.8 11 28.5 11 14 0 28.4-4.6 37.7-8.3a1.5 1.5 0 0 1 .9-.2 2.5 2.5 0 0 1 1.7 4.3c-9.3 8.5-20.4 11.9-26.3 13.2a2.3 2.3 0 0 0 -1.1 4c9.2 9 22.7 13.4 37.2 13.4a79.5 79.5 0 0 0 34.2-7.9c25.5-12 28.8-29.6 29.2-35.6a2.3 2.3 0 0 0 -2-2.3 42.6 42.6 0 0 1 -22-9.9 2.5 2.5 0 0 1 1.7-4.4l1 .2a55.5 55.5 0 0 0 23.6 4.9 89.3 89.3 0 0 0 17.3-1.8c14.8-3 21.6-14.9 23.9-20.3a2.3 2.3 0 0 0 -1.6-3.2 33.7 33.7 0 0 1 -19.6-12.3 2.3 2.3 0 0 1 1.8-3.8 1.9 1.9 0 0 1 1.4.5 36 36 0 0 0 22.1 7.1 47.8 47.8 0 0 0 8.2-.7c13.2-2.2 20.7-13.1 22.9-22.3a2.5 2.5 0 0 1 2.1-2.2c.8 0 1.5.8 1.3 2.3a40.4 40.4 0 0 1 -27.4 32.6 2.2 2.2 0 0 0 -1.5 1.6c-7.1 26.2-31 31.6-37.6 32.6a2.4 2.4 0 0 0 -2 2c-2 13.9-12.9 25.3-17.6 29.7a2.5 2.5 0 0 0 .2 3.8c7.1 5.3 14.1 7.3 20.4 7.3 14 0 24.7-9.6 27.7-12.6a3.7 3.7 0 0 0 1-1.7c1.6-6.9 4.2-14.1 6.8-18.5a22.1 22.1 0 0 1 19.3-11.1 21.5 21.5 0 0 1 4.3.4c5.7 1 17.4 3 36.7 18.7h.2c12.4-5.9 24.4-11.3 50.1-11.8h1.3c6-7.5 15.1-16.9 26.4-22.3a25.5 25.5 0 0 1 11.1-2.6 23.8 23.8 0 0 1 12.7 3.7c12.4 7.9 21.9 20.7 30.1 33.7 2.7 4.3 3.7 5.3 6.8 5.3s5.6-.5 11.8-.5a181.1 181.1 0 0 1 28.3 2.6c17.9 2.8 33.5 7.4 47.3 15.6 4.9 2.9 12.1 4.6 20.2 4.6a59.5 59.5 0 0 0 10.2-.9 69.3 69.3 0 0 1 12.8-1c23.1 0 58.4 5.7 80.8 15.6 100.5 44 149.5 5.6 140.6-50.9 44.1-37.6 6.1-96-29.1-89.2-10.5 2-15.7 7.3-21.6 11.2a2.4 2.4 0 0 1 -1.4.5 2.6 2.6 0 0 1 -2.6-2.4c-3-36-11.8-67.7-45.1-79.9-13.5-5-26-7.2-36.7-7.2-20.6 0-34.3 8.5-34.4 22.6-.7-27-35.9-24.2-41.5-16.3-4.7-15.6-15.5-25.8-19.3-28.1a33.7 33.7 0 0 0 -16.6-5h-2c-16.3 0-26.3 6.4-31.1 10.6a2.4 2.4 0 0 1 -1.5.6 2.3 2.3 0 0 1 -2.3-2.1c-3.3-28.4-22.8-41.4-32.4-46.1l-1-.2a2.3 2.3 0 0 0 -2.2 3.1 62.7 62.7 0 0 1 2.3 24.7 2.3 2.3 0 0 1 -2.4 2.2 2.3 2.3 0 0 1 -2.3-2.2c-2-19.6-9.9-42-29.1-52.1a65.4 65.4 0 0 0 -31.2-7.8 79.2 79.2 0 0 0 -33.6 7.8 2.4 2.4 0 0 0 .3 4.5 57.8 57.8 0 0 1 15 8.5 2.6 2.6 0 0 1 -1.5 4.6 2.2 2.2 0 0 1 -1.3-.4 57.2 57.2 0 0 0 -27.2-7.1h-3.8c-22.7 1.7-38.2 16.6-43 21.9a2.4 2.4 0 0 1 -3.4 0c-10.8-10.5-25.9-17.7-42.1-17.7a55.9 55.9 0 0 0 -18.5 3.2c-2.6.9-5.3 2.5-8.6 3.4-1.3-23.5-35-49.3-72.9-49.3a79.4 79.4 0 0 0 -37.9 9.5c-21.4-20-36.6-30.8-65-32.6h-4.8c-40.6 0-62.2 32.7-65.5 38.2a1.8 1.8 0 0 0 -.2 1.6 43.3 43.3 0 0 1 2.2 12.1c0 2-.5 3.1-1.1 3.1s-1.2-1-1.4-3.2c-1.5-13.7-7.7-23.2-23.8-29.3a49.7 49.7 0 0 0 -17.9-3.5 44.1 44.1 0 0 0 -27.2 9.6 5.4 5.4 0 0 1 -2.8 1.4c-1.3 0-.7-2.3.8-4.2a44.5 44.5 0 0 1 12.3-10.4 2.3 2.3 0 0 0 .7-3.4c-4-5.4-15.9-18.7-34.9-21.3a74.5 74.5 0 0 0 -7.9-.5c-14.6 0-24.2 5.6-27.9 8.2a2.2 2.2 0 0 0 -.7 3 55.9 55.9 0 0 1 6.3 20.1 2.3 2.3 0 0 1 -4.5 1.1c-18.7-44.3-76.1-45.1-105.9-10.6-107.8-37.9-154.4 90.2-93.1 139.2zm531.2 36.1c-4.5 4.4-13.1 9.6-28.6 9.6l-4.2-.2h-.2a2.2 2.2 0 0 0 -2.2 1.8 42 42 0 0 0 .4 17.6 2.1 2.1 0 0 1 -2.1 2.7 1.9 1.9 0 0 1 -1.8-1.2c-2.6-5.4-4.7-12.7-5.2-22.5a2.1 2.1 0 0 0 -.8-1.6c-3.3-2.5-16.7-13.6-20.9-32a2.3 2.3 0 0 1 2.2-2.7 2.1 2.1 0 0 1 2 1.2c5.9 11.7 18 26.5 40.7 26.5a65.5 65.5 0 0 0 18.5-2.8h.7a2.2 2.2 0 0 1 1.5 3.6zm279.3 16.7c-6.6 12.9-19.5 27.7-48.1 27.7a102.6 102.6 0 0 1 -19.6-2h-.5a1.9 1.9 0 0 0 -1.2.4c-3.3 1.8-16.9 8.9-33.2 8.9-12.6 0-26.8-4.2-39.2-18.2a2.6 2.6 0 0 1 1.8-4.3 2.4 2.4 0 0 1 1.5.6c9.6 7 22.9 14.2 36.9 14.2s29.5-7.6 42.2-31a2.5 2.5 0 0 1 4.7 1.5 36.7 36.7 0 0 1 -6.5 16.6 2.7 2.7 0 0 0 1.5 4.3 70 70 0 0 0 14.3 1.6c11.8 0 27-3.8 39.2-21.2 1.4-2 3.1-2.8 4.4-2.8s3 1.5 1.8 3.7zm209.9 67.9a61.2 61.2 0 0 1 -13.9 1.6c-11.5 0-21.6-2.8-26-3.9h-.9a3.8 3.8 0 0 0 -2.7 1 76.8 76.8 0 0 1 -50.6 19.1 75.8 75.8 0 0 1 -7.9-.4h-.5a4 4 0 0 0 -3.6 2.2c-6.9 13.7-21.9 23.9-39.8 23.9h-2.4c-13.8-.7-23.3-5.8-29.9-12.6-2.8-2.9-.2-7 3.1-7a4.9 4.9 0 0 1 2.4.8 42.3 42.3 0 0 0 24 7.6h.6c18.6 0 27.3-9.9 30.6-15.3a3.9 3.9 0 0 0 -1.1-5.4 56.4 56.4 0 0 1 -9.7-9 2.2 2.2 0 0 1 1.4-3.8 1.8 1.8 0 0 1 1.5.8c4.9 6.1 13.5 10.2 29 11.3l4.7.2a63.4 63.4 0 0 0 38-12.9 4.1 4.1 0 0 0 -.5-6.8 45 45 0 0 1 -16.4-16.6c-1.8-3.2-1.2-4.6.2-4.6a5.4 5.4 0 0 1 3.8 2.5c14.3 19.4 35.3 23.9 51.9 23.9a95.8 95.8 0 0 0 14-1h.7c3.4-.3 4.3 3.4 0 4.4zm-108.5-125.7c-4.7-15.6-15.5-25.8-19.3-28.1"/></g></svg>