<svg viewBox="0 0 448.2 1114.2" xmlns="http://www.w3.org/2000/svg"><path d="m315.4 317.3c-16.1-59.6-75.2-80.4-127.1-68.8-36.9 8.2-62.3 49.2-57.4 80.7s16.6 44.8 41.4 66c41.8 35.7 9.9 14.4 22.5 170.3 12.9 159.1-43.1 318.1-103.8 405.3-18.5 26.6-20.9 52.1-12.4 74.1-33.3-82.7 63.4-211 88.9-338.4 27.3-136.4-5.5-260.9-37.2-322s-5.4-108.1 6.6-126.6 77.5-59 151.7-13.1 85.2 0 73.8-54.7c11.6 30.6 21.7 61.8 26.2 85.5 21.7 113.9-50.6 125.3-73.2 41.7z" fill="#eebfaf"/><path d="m1.5 990.5c124-287.4 71-484.6 53.8-518.7s-36.4-77.1-20.6-112.3c14.4-32 36.5-30.4 34.5-40.7s-8.4-59.8-40.4-152.5c-28-81 21.1-73.9 21.1-73.9-8.5-80.3 52.9-43.2 52.9-43.2.4-83 74.9-26.8 74.9-26.8 26.7-60.8 97.2 21.5 97.2 21.5 5.6-43.9 52.1-18.1 70.4 19.7 34.7 71.8 73.9 166.5 98.4 365.7 22.6 183.7-45.1 501.3-107.7 609.9-85.3 148.1-328.2 51.1-245-68.4 60.7-87.2 116.7-246.1 103.8-405.3-12.6-155.9 19.3-134.6-22.5-170.3-24.8-21.2-36.7-34.9-41.4-66s20.5-72.5 57.4-80.7c51.9-11.6 111 9.2 127.1 68.8 22.6 83.6 94.9 72.2 73.2-41.7-7.3-38.4-29.3-96.4-48.5-139.2-16.1-36.1-50.8-38.7-21.4 9.4 14.1 23.2 47.4 93.8 5.3 77.9-35-13.3-40.6-80.6-60.8-120.2-22.7-44.5-42.4-30.6-13.8 29.5 24.1 50.7 28.3 82.3 7.2 77.5-38.1-8.6-50.1-51.5-68.7-101.9-20-54.2-56.9-45-21.4 18.3 33.4 59.5 41.3 96.5 16.3 92.7s-42.8-34.4-56.5-75.2c-15.6-46.3-47.6-37-14.8 17.9 26.3 44 40.5 83.7 16.6 84s-32.4-21.4-40.7-51.3-41.3-37-18.1 11.2c19.8 41.3 28.5 71.8 32 106 2.5 23.8 5.1 46.4-5 62.5-4 6.5-14.4 7.2-18.4 17.9-6 16.1 16.4 26.2 24.3 41.6 15.6 30.5 52.5 91.6 35.1 250-14.7 133.6-57.8 241.2-111.3 314.6-10.7 14.6-31.7 8.3-24.5-8.3z" fill="#845567"/></svg>